<?xml version="1.0" encoding="UTF-8" standalone="no"?>
<!DOCTYPE svg PUBLIC "-//W3C//DTD SVG 1.1//EN" "http://www.w3.org/Graphics/SVG/1.1/DTD/svg11.dtd">
<svg xmlns="http://www.w3.org/2000/svg" version="1.1" viewBox="0.00 0.00 555.00 449.00">
<path fill="#545760" fill-opacity="0.996" d="
  M 272.80 169.57
  Q 272.78 168.86 272.07 168.86
  L 152.69 168.26
  A 1.82 1.82 0.0 0 1 150.88 166.44
  L 150.89 157.49
  A 1.21 1.20 0.2 0 0 149.69 156.29
  Q 135.52 156.20 118.01 156.32
  Q 117.42 156.33 116.89 156.05
  A 1.51 1.50 13.6 0 1 116.07 154.71
  L 116.01 84.26
  A 1.23 1.23 0.0 0 1 117.24 83.03
  L 149.76 83.00
  A 1.01 1.01 0.0 0 0 150.77 81.99
  L 150.92 13.04
  A 1.47 1.46 87.9 0 1 152.26 11.59
  Q 154.02 11.44 155.55 11.43
  Q 224.05 11.16 298.27 11.29
  Q 298.82 11.29 299.00 10.77
  Q 299.52 9.19 301.08 9.19
  Q 394.30 9.27 482.49 9.19
  Q 483.77 9.19 485.10 9.27
  Q 485.66 9.30 485.75 9.86
  Q 486.10 11.98 486.10 14.16
  Q 485.90 79.82 486.06 146.33
  Q 486.07 147.95 484.44 147.95
  L 456.02 147.90
  A 1.32 1.31 -0.4 0 0 454.70 149.23
  L 454.97 165.55
  Q 455.02 168.37 452.20 168.38
  L 334.15 168.61
  A 1.17 1.16 -90.0 0 0 332.99 169.78
  L 332.99 172.76
  A 0.96 0.96 0.0 0 0 333.68 173.68
  C 336.08 174.40 338.52 173.87 340.87 174.79
  C 342.37 175.38 343.89 175.10 345.44 175.38
  Q 355.25 177.20 364.96 180.12
  Q 369.88 181.60 372.98 183.46
  C 376.26 185.42 373.53 189.13 370.63 187.92
  Q 358.76 182.97 344.76 180.80
  Q 340.75 180.18 336.30 179.52
  Q 332.09 178.90 327.87 178.60
  Q 304.35 176.90 279.73 178.52
  Q 275.72 178.78 271.85 179.30
  Q 267.98 179.82 263.92 180.34
  Q 260.50 180.78 257.16 181.48
  C 249.68 183.06 242.60 185.00 235.39 187.98
  Q 233.47 188.78 232.10 187.28
  C 229.70 184.66 233.57 182.78 235.52 182.05
  Q 248.11 177.33 260.13 175.53
  Q 263.25 175.07 266.30 174.51
  C 268.02 174.20 269.56 174.22 271.27 174.01
  A 1.79 1.78 -3.9 0 0 272.85 172.21
  L 272.80 169.57
  Z
  M 282.99 168.85
  L 274.60 169.04
  Q 273.76 169.06 273.76 169.89
  L 273.75 172.47
  Q 273.74 173.19 274.46 173.21
  Q 281.91 173.41 289.80 171.88
  Q 291.38 171.95 293.75 171.90
  Q 309.16 171.55 324.52 172.86
  C 326.41 173.03 328.48 172.82 330.45 172.87
  L 331.38 173.01
  Q 331.96 173.11 332.01 172.52
  Q 332.05 171.92 331.80 171.07
  Q 332.01 170.12 331.71 170.41
  Q 331.49 170.65 331.23 170.48
  A 0.40 0.40 0.0 0 1 331.20 169.84
  Q 331.51 169.59 331.68 169.28
  A 0.50 0.50 0.0 0 0 331.24 168.53
  L 282.99 168.85
  Z
  M 291.25 174.00
  Q 273.32 173.94 254.01 177.78
  Q 242.59 180.04 233.88 183.83
  A 1.64 1.62 7.9 0 0 233.30 184.26
  Q 231.43 186.48 233.68 187.22
  A 1.76 1.73 41.8 0 0 234.93 187.16
  Q 241.82 184.16 246.48 182.98
  Q 261.91 179.09 276.25 177.90
  Q 288.12 176.91 305.25 176.35
  Q 306.71 176.66 307.70 176.38
  Q 316.15 176.83 324.57 177.45
  Q 333.26 178.09 340.35 179.19
  C 351.05 180.83 360.83 182.76 371.08 187.28
  A 1.43 1.42 48.3 0 0 372.06 187.34
  Q 373.27 187.00 373.35 186.20
  Q 373.51 184.50 371.94 183.85
  Q 362.99 180.15 354.50 178.29
  Q 339.88 175.09 324.98 174.30
  L 316.02 174.45
  Q 314.77 173.15 312.50 174.30
  Q 310.29 173.66 308.00 173.53
  Q 299.63 173.06 291.25 174.00
  Z"
/>
<g stroke-width="2.00" fill="none" stroke-linecap="butt">
<path stroke="#8a8d9c" vector-effect="non-scaling-stroke" d="
  M 484.88 73.57
  L 404.24 73.57
  Q 403.72 73.57 403.60 73.06
  Q 401.95 65.85 394.80 63.41
  C 391.51 62.28 387.29 62.93 383.70 62.73
  Q 383.08 62.70 383.09 62.08
  Q 383.20 46.60 383.13 30.58
  C 383.11 25.84 379.98 22.88 375.32 22.83
  Q 372.90 22.80 370.73 23.06
  Q 368.25 23.37 365.81 23.55
  Q 362.34 23.80 361.53 27.21
  Q 361.40 27.78 360.83 27.92
  Q 350.25 30.57 349.91 42.60
  Q 349.80 46.49 350.37 49.25
  Q 350.84 51.53 350.79 53.65
  Q 350.69 58.12 352.83 62.31
  A 0.36 0.36 0.0 0 1 352.49 62.83
  C 349.14 62.72 345.45 62.38 342.29 63.68
  Q 335.94 66.28 334.24 73.21
  Q 334.13 73.68 333.65 73.68
  L 318.82 73.72"
/>
<path stroke="#8a8d9c" vector-effect="non-scaling-stroke" d="
  M 484.91 74.63
  L 404.32 74.57
  Q 403.63 74.57 403.64 75.26
  L 403.78 82.47
  A 0.76 0.75 89.6 0 1 403.03 83.24
  L 334.71 83.22
  Q 334.21 83.22 334.21 82.71
  L 334.30 75.21
  Q 334.31 74.55 333.65 74.54
  L 310.12 74.47"
/>
<path stroke="#8a8d9c" vector-effect="non-scaling-stroke" d="
  M 447.66 147.31
  Q 446.45 147.38 446.43 145.21
  Q 446.42 144.75 445.96 144.75
  L 395.79 144.74
  Q 395.28 144.74 395.14 144.25
  Q 393.60 138.67 388.59 135.94
  C 384.96 133.96 379.73 134.49 375.57 134.50
  Q 374.89 134.50 375.07 133.85
  Q 376.22 129.78 375.79 124.57
  C 375.65 122.94 374.35 121.70 373.68 120.19
  A 1.17 1.17 0.0 0 1 374.57 118.56
  Q 376.09 118.33 376.99 117.16
  Q 380.52 112.58 376.82 107.73
  Q 376.57 107.40 376.56 107.00
  C 376.44 103.50 376.86 99.86 375.89 96.46
  Q 374.39 91.21 369.12 88.00
  Q 368.68 87.74 368.63 87.23
  Q 368.34 84.26 365.28 84.28
  Q 361.47 84.30 357.97 84.28
  C 356.50 84.27 355.63 85.14 354.50 85.92
  Q 353.47 86.62 352.09 87.23
  Q 343.04 91.27 343.00 101.74
  Q 343.00 103.99 342.99 106.28
  C 342.98 108.06 341.28 109.18 340.92 110.88
  Q 339.69 116.80 344.94 118.56
  A 1.44 1.44 0.0 0 1 345.54 120.90
  Q 343.87 122.72 343.63 124.66
  Q 343.05 129.36 344.33 133.89
  Q 344.52 134.53 343.85 134.51
  Q 341.63 134.44 339.16 134.49
  Q 329.00 134.71 326.09 144.17
  Q 325.91 144.75 325.31 144.75
  L 300.56 144.74
  A 0.40 0.40 0.0 0 1 300.16 144.34
  L 300.16 139.55"
/>
<path stroke="#8a8d9c" vector-effect="non-scaling-stroke" d="
  M 447.13 148.15
  L 447.21 161.12
  A 0.57 0.57 0.0 0 1 446.64 161.70
  Q 303.37 161.71 159.61 161.71
  A 0.98 0.98 0.0 0 1 158.69 161.06
  Q 158.67 161.00 158.81 160.47"
/>
<path stroke="#8a8d9c" vector-effect="non-scaling-stroke" d="
  M 299.30 134.83
  L 299.37 144.32
  A 0.43 0.42 90.0 0 1 298.95 144.75
  L 160.49 144.75
  Q 160.11 144.75 160.11 145.13
  L 160.15 155.42"
/>
<path stroke="#8a8d9c" vector-effect="non-scaling-stroke" d="
  M 279.73 83.82
  Q 279.15 83.70 278.72 83.84
  A 0.69 0.69 0.0 0 0 278.23 84.50
  L 278.22 88.03
  Q 278.21 88.78 277.47 88.78
  L 209.16 88.77
  A 0.61 0.61 0.0 0 1 208.55 88.16
  L 208.53 84.46
  Q 208.53 83.94 208.04 83.75
  Q 207.60 83.58 207.21 83.90"
/>
<path stroke="#8a8d9c" vector-effect="non-scaling-stroke" d="
  M 278.24 82.46
  Q 278.62 74.43 271.90 70.16
  Q 269.55 68.67 267.22 68.55
  Q 262.04 68.28 254.23 68.49
  Q 253.54 68.50 253.31 67.85
  C 252.89 66.63 253.46 65.23 254.43 64.45
  C 260.09 59.92 259.20 54.42 259.16 48.01
  Q 259.16 47.49 259.51 47.09
  Q 262.53 43.72 259.61 40.35
  Q 259.26 39.96 259.24 39.43
  C 259.10 35.99 259.53 32.43 258.46 29.14
  Q 256.40 22.77 250.32 20.73
  C 247.93 19.93 245.35 20.31 242.88 20.19
  C 237.97 19.94 233.79 22.41 231.24 26.55
  Q 230.97 26.99 230.50 27.20
  C 228.96 27.90 227.09 28.31 225.79 29.36
  Q 218.58 35.22 222.77 43.92
  C 223.07 44.54 223.82 45.15 224.16 45.78
  Q 224.40 46.21 224.13 46.62
  C 217.93 56.07 224.19 67.20 235.29 67.51
  Q 235.57 67.52 235.56 67.80
  L 235.56 68.19
  Q 235.56 68.47 235.29 68.46
  Q 230.79 68.42 226.40 68.31
  Q 220.29 68.17 217.65 68.98
  Q 208.56 71.78 208.35 82.77
  Q 208.34 82.98 208.09 82.96"
/>
<path stroke="#a5a6a9" vector-effect="non-scaling-stroke" d="
  M 289.80 171.88
  Q 291.38 171.95 293.75 171.90
  Q 309.16 171.55 324.52 172.86
  C 326.41 173.03 328.48 172.82 330.45 172.87"
/>
<path stroke="#a5a6a9" vector-effect="non-scaling-stroke" d="
  M 331.80 171.07
  Q 332.01 170.12 331.71 170.41
  Q 331.49 170.65 331.23 170.48
  A 0.40 0.40 0.0 0 1 331.20 169.84
  Q 331.51 169.59 331.68 169.28
  A 0.50 0.50 0.0 0 0 331.24 168.53
  L 282.99 168.85"
/>
<path stroke="#a5a6a9" vector-effect="non-scaling-stroke" d="
  M 291.25 174.00
  Q 273.32 173.94 254.01 177.78
  Q 242.59 180.04 233.88 183.83
  A 1.64 1.62 7.9 0 0 233.30 184.26
  Q 231.43 186.48 233.68 187.22
  A 1.76 1.73 41.8 0 0 234.93 187.16
  Q 241.82 184.16 246.48 182.98
  Q 261.91 179.09 276.25 177.90
  Q 288.12 176.91 305.25 176.35"
/>
<path stroke="#a5a6a9" vector-effect="non-scaling-stroke" d="
  M 307.70 176.38
  Q 316.15 176.83 324.57 177.45
  Q 333.26 178.09 340.35 179.19
  C 351.05 180.83 360.83 182.76 371.08 187.28
  A 1.43 1.42 48.3 0 0 372.06 187.34
  Q 373.27 187.00 373.35 186.20
  Q 373.51 184.50 371.94 183.85
  Q 362.99 180.15 354.50 178.29
  Q 339.88 175.09 324.98 174.30"
/>
<path stroke="#a5a6a9" vector-effect="non-scaling-stroke" d="
  M 316.02 174.45
  Q 314.77 173.15 312.50 174.30"
/>
</g>
<path fill="#f6f5f1" d="
  M 484.88 73.57
  L 404.24 73.57
  Q 403.72 73.57 403.60 73.06
  Q 401.95 65.85 394.80 63.41
  C 391.51 62.28 387.29 62.93 383.70 62.73
  Q 383.08 62.70 383.09 62.08
  Q 383.20 46.60 383.13 30.58
  C 383.11 25.84 379.98 22.88 375.32 22.83
  Q 372.90 22.80 370.73 23.06
  Q 368.25 23.37 365.81 23.55
  Q 362.34 23.80 361.53 27.21
  Q 361.40 27.78 360.83 27.92
  Q 350.25 30.57 349.91 42.60
  Q 349.80 46.49 350.37 49.25
  Q 350.84 51.53 350.79 53.65
  Q 350.69 58.12 352.83 62.31
  A 0.36 0.36 0.0 0 1 352.49 62.83
  C 349.14 62.72 345.45 62.38 342.29 63.68
  Q 335.94 66.28 334.24 73.21
  Q 334.13 73.68 333.65 73.68
  L 318.82 73.72
  L 300.81 73.56
  A 0.64 0.64 0.0 0 1 300.17 72.92
  L 300.23 11.11
  A 0.66 0.65 -0.0 0 1 300.89 10.46
  L 484.28 10.44
  A 0.67 0.66 -90.0 0 1 484.94 11.11
  L 484.88 73.57
  Z"
/>
<path fill="#f6f5f1" d="
  M 158.72 18.82
  Q 158.56 19.52 158.57 20.35
  Q 158.82 51.62 158.58 82.64
  Q 158.58 82.83 158.39 82.83
  Q 153.17 83.02 151.91 82.64
  Q 151.82 82.61 151.82 82.52
  L 151.87 13.31
  A 0.44 0.44 0.0 0 1 152.31 12.87
  L 298.46 12.77
  Q 299.14 12.77 299.15 13.46
  L 299.17 17.32
  Q 299.18 18.07 298.43 18.07
  L 159.71 18.03
  A 1.02 1.02 0.0 0 0 158.72 18.82
  Z"
/>
<path fill="#f6f5f1" d="
  M 278.24 82.46
  Q 278.62 74.43 271.90 70.16
  Q 269.55 68.67 267.22 68.55
  Q 262.04 68.28 254.23 68.49
  Q 253.54 68.50 253.31 67.85
  C 252.89 66.63 253.46 65.23 254.43 64.45
  C 260.09 59.92 259.20 54.42 259.16 48.01
  Q 259.16 47.49 259.51 47.09
  Q 262.53 43.72 259.61 40.35
  Q 259.26 39.96 259.24 39.43
  C 259.10 35.99 259.53 32.43 258.46 29.14
  Q 256.40 22.77 250.32 20.73
  C 247.93 19.93 245.35 20.31 242.88 20.19
  C 237.97 19.94 233.79 22.41 231.24 26.55
  Q 230.97 26.99 230.50 27.20
  C 228.96 27.90 227.09 28.31 225.79 29.36
  Q 218.58 35.22 222.77 43.92
  C 223.07 44.54 223.82 45.15 224.16 45.78
  Q 224.40 46.21 224.13 46.62
  C 217.93 56.07 224.19 67.20 235.29 67.51
  Q 235.57 67.52 235.56 67.80
  L 235.56 68.19
  Q 235.56 68.47 235.29 68.46
  Q 230.79 68.42 226.40 68.31
  Q 220.29 68.17 217.65 68.98
  Q 208.56 71.78 208.35 82.77
  Q 208.34 82.98 208.09 82.96
  L 160.63 82.90
  A 0.70 0.69 0.0 0 1 159.93 82.21
  L 159.85 19.98
  A 0.67 0.67 0.0 0 1 160.52 19.31
  L 298.79 19.27
  A 0.51 0.51 0.0 0 1 299.30 19.78
  L 299.04 82.40
  A 0.47 0.47 0.0 0 1 298.57 82.87
  Q 288.72 82.84 278.94 82.90
  Q 278.74 82.90 278.58 82.77
  Q 278.44 82.66 278.24 82.46
  Z"
/>
<path fill="#1e2446" d="
  M 278.24 82.46
  Q 278.13 82.64 278.12 82.82
  Q 278.09 83.26 278.54 83.27
  Q 280.32 83.29 279.73 83.82
  Q 279.15 83.70 278.72 83.84
  A 0.69 0.69 0.0 0 0 278.23 84.50
  L 278.22 88.03
  Q 278.21 88.78 277.47 88.78
  L 209.16 88.77
  A 0.61 0.61 0.0 0 1 208.55 88.16
  L 208.53 84.46
  Q 208.53 83.94 208.04 83.75
  Q 207.60 83.58 207.21 83.90
  Q 206.73 83.61 208.09 82.96
  Q 208.34 82.98 208.35 82.77
  Q 208.56 71.78 217.65 68.98
  Q 220.29 68.17 226.40 68.31
  Q 230.79 68.42 235.29 68.46
  Q 235.56 68.47 235.56 68.19
  L 235.56 67.80
  Q 235.57 67.52 235.29 67.51
  C 224.19 67.20 217.93 56.07 224.13 46.62
  Q 224.40 46.21 224.16 45.78
  C 223.82 45.15 223.07 44.54 222.77 43.92
  Q 218.58 35.22 225.79 29.36
  C 227.09 28.31 228.96 27.90 230.50 27.20
  Q 230.97 26.99 231.24 26.55
  C 233.79 22.41 237.97 19.94 242.88 20.19
  C 245.35 20.31 247.93 19.93 250.32 20.73
  Q 256.40 22.77 258.46 29.14
  C 259.53 32.43 259.10 35.99 259.24 39.43
  Q 259.26 39.96 259.61 40.35
  Q 262.53 43.72 259.51 47.09
  Q 259.16 47.49 259.16 48.01
  C 259.20 54.42 260.09 59.92 254.43 64.45
  C 253.46 65.23 252.89 66.63 253.31 67.85
  Q 253.54 68.50 254.23 68.49
  Q 262.04 68.28 267.22 68.55
  Q 269.55 68.67 271.90 70.16
  Q 278.62 74.43 278.24 82.46
  Z"
/>
<path fill="#1e2446" d="
  M 484.88 73.57
  L 484.91 74.63
  L 404.32 74.57
  Q 403.63 74.57 403.64 75.26
  L 403.78 82.47
  A 0.76 0.75 89.6 0 1 403.03 83.24
  L 334.71 83.22
  Q 334.21 83.22 334.21 82.71
  L 334.30 75.21
  Q 334.31 74.55 333.65 74.54
  L 310.12 74.47
  L 318.82 73.72
  L 333.65 73.68
  Q 334.13 73.68 334.24 73.21
  Q 335.94 66.28 342.29 63.68
  C 345.45 62.38 349.14 62.72 352.49 62.83
  A 0.36 0.36 0.0 0 0 352.83 62.31
  Q 350.69 58.12 350.79 53.65
  Q 350.84 51.53 350.37 49.25
  Q 349.80 46.49 349.91 42.60
  Q 350.25 30.57 360.83 27.92
  Q 361.40 27.78 361.53 27.21
  Q 362.34 23.80 365.81 23.55
  Q 368.25 23.37 370.73 23.06
  Q 372.90 22.80 375.32 22.83
  C 379.98 22.88 383.11 25.84 383.13 30.58
  Q 383.20 46.60 383.09 62.08
  Q 383.08 62.70 383.70 62.73
  C 387.29 62.93 391.51 62.28 394.80 63.41
  Q 401.95 65.85 403.60 73.06
  Q 403.72 73.57 404.24 73.57
  L 484.88 73.57
  Z"
/>
<path fill="#f6f5f1" d="
  M 372.04 28.59
  Q 367.93 27.09 363.22 27.69
  A 0.50 0.50 0.0 0 1 362.65 27.18
  Q 362.68 25.74 364.02 25.13
  Q 369.49 22.63 373.20 27.44
  A 0.78 0.77 71.9 0 1 372.57 28.69
  Q 372.30 28.69 372.04 28.59
  Z"
/>
<path fill="#f6f5f1" d="
  M 239.11 36.35
  C 243.09 34.73 244.37 30.98 244.99 27.09
  A 0.79 0.78 6.9 0 1 245.82 26.44
  Q 255.30 27.11 256.30 36.58
  A 0.74 0.73 86.8 0 1 255.57 37.40
  L 239.32 37.43
  Q 236.43 37.43 239.11 36.35
  Z"
/>
<rect fill="#f6f5f1" x="-3.42" y="-2.21" transform="translate(238.84,40.62) rotate(1.1)" width="6.84" height="4.42" rx="0.44"/>
<rect fill="#f6f5f1" x="-3.44" y="-2.24" transform="translate(250.18,40.66) rotate(0.4)" width="6.88" height="4.48" rx="0.65"/>
<path fill="#f6f5f1" d="
  M 242.51 47.81
  Q 242.53 48.38 243.07 48.21
  L 243.52 48.06
  Q 243.74 47.99 243.74 47.75
  L 243.74 40.48
  Q 243.74 39.70 244.52 39.73
  L 244.87 39.74
  Q 245.71 39.78 245.72 40.62
  L 245.75 42.70
  A 1.10 1.09 3.3 0 0 246.71 43.77
  Q 249.10 44.08 252.37 44.00
  C 254.20 43.96 254.98 42.58 254.50 40.85
  A 0.90 0.89 -8.7 0 1 255.34 39.71
  C 260.24 39.60 262.06 46.03 257.37 47.12
  Q 256.25 47.38 256.14 48.54
  C 255.77 52.17 252.12 55.10 249.72 57.64
  A 3.50 3.49 -70.6 0 1 247.47 58.72
  C 244.72 58.94 241.02 59.44 238.89 57.23
  C 237.27 55.55 233.83 52.45 233.29 50.30
  Q 233.15 49.77 233.42 49.30
  Q 234.82 46.86 234.47 44.05
  Q 234.39 43.44 234.99 43.58
  Q 238.15 44.30 241.70 43.70
  Q 242.39 43.59 242.41 44.29
  L 242.51 47.81
  Z"
/>
<path fill="#f6f5f1" d="
  M 361.03 62.39
  Q 362.65 61.84 360.95 61.59
  Q 359.94 61.44 359.07 61.10
  Q 358.41 60.85 358.40 60.14
  L 358.25 54.24
  Q 358.24 53.58 358.89 53.68
  Q 366.42 54.81 372.41 51.92
  Q 376.75 49.83 374.86 46.11
  A 0.62 0.62 0.0 0 1 375.48 45.21
  Q 377.65 45.42 377.66 47.55
  Q 377.69 51.04 377.56 54.25
  Q 377.54 54.81 377.02 55.03
  Q 376.26 55.33 375.38 55.37
  Q 374.76 55.39 374.76 56.00
  L 374.75 57.51
  Q 374.74 58.24 374.23 58.75
  L 366.86 66.06
  Q 366.44 66.48 365.83 66.48
  Q 362.43 66.46 358.15 66.45
  Q 356.65 66.44 355.82 65.30
  Q 351.14 58.84 351.79 51.71
  Q 351.82 51.40 352.11 51.52
  L 357.00 53.53
  Q 357.33 53.66 357.34 54.02
  Q 357.41 56.30 357.31 59.01
  C 357.23 61.23 358.75 63.15 361.03 62.39
  Z"
/>
<path fill="#1e2446" d="
  M 247.90 49.44
  A 0.42 0.42 0.0 0 1 248.32 49.86
  L 248.32 50.00
  A 3.28 2.62 -0.0 0 1 245.04 52.62
  L 243.22 52.62
  A 3.28 2.62 -0.0 0 1 239.94 50.00
  L 239.94 49.86
  A 0.42 0.42 0.0 0 1 240.36 49.44
  L 247.90 49.44
  Z"
/>
<path fill="#f6f5f1" d="
  M 246.37 50.27
  Q 247.98 50.38 246.55 51.12
  Q 244.37 52.23 241.99 51.24
  Q 240.27 50.53 242.12 50.33
  Q 244.25 50.11 246.37 50.27
  Z"
/>
<path fill="#f6f5f1" d="
  M 247.65 59.66
  C 249.43 59.41 250.45 58.20 251.64 57.02
  Q 252.36 56.30 252.34 57.32
  Q 252.21 62.08 252.33 66.59
  Q 252.39 68.85 251.36 70.97
  Q 248.62 76.65 245.90 81.98
  A 1.24 1.24 0.0 0 1 243.68 81.96
  Q 241.00 76.46 237.68 70.51
  Q 236.64 68.65 236.70 66.58
  Q 236.82 62.01 236.65 57.36
  Q 236.59 55.79 237.50 57.08
  C 239.77 60.33 243.94 60.16 247.65 59.66
  Z"
/>
<path fill="#f6f5f1" d="
  M 365.92 67.48
  A 1.92 1.92 0.0 0 0 367.29 66.93
  L 374.47 59.89
  Q 375.17 59.20 375.12 60.18
  L 375.02 62.24
  Q 374.99 63.02 374.44 63.57
  Q 368.39 69.76 362.13 76.03
  Q 361.44 76.72 360.42 76.31
  A 1.36 1.36 0.0 0 1 359.58 75.04
  L 359.72 68.11
  Q 359.73 67.46 360.39 67.46
  L 365.92 67.48
  Z"
/>
<path fill="#f6f5f1" d="
  M 335.12 80.89
  Q 335.11 78.48 335.12 75.94
  C 335.14 70.60 337.86 66.29 342.95 64.47
  C 345.77 63.46 349.58 63.67 352.78 63.76
  A 1.82 1.80 -10.0 0 1 354.40 64.88
  Q 355.50 67.57 358.12 67.45
  Q 358.88 67.41 358.84 68.17
  C 358.71 70.44 357.98 75.71 360.10 77.15
  C 361.39 78.04 362.66 76.91 363.53 76.03
  Q 369.40 70.11 375.14 64.32
  A 1.95 1.91 22.4 0 1 376.53 63.76
  Q 382.11 63.84 388.34 63.70
  Q 392.94 63.61 395.88 64.85
  C 400.39 66.75 402.96 71.23 402.84 76.20
  Q 402.78 79.00 402.91 81.68
  A 0.63 0.63 0.0 0 1 402.28 82.34
  Q 369.92 82.46 335.81 82.40
  Q 335.20 82.40 334.96 81.83
  Q 334.90 81.68 335.03 81.35
  Q 335.13 81.10 335.12 80.89
  Z"
/>
<path fill="#f6f5f1" d="
  M 242.78 82.39
  A 2.34 2.34 0.0 0 0 246.96 82.30
  L 252.84 69.90
  Q 253.11 69.34 253.73 69.36
  Q 258.26 69.56 262.87 69.38
  Q 268.26 69.17 271.23 70.93
  C 277.52 74.63 277.77 80.48 277.19 87.37
  Q 277.14 87.91 276.60 87.91
  L 210.19 87.89
  Q 209.47 87.89 209.45 87.17
  C 209.29 80.61 209.10 74.70 215.43 71.03
  Q 218.58 69.21 223.97 69.39
  Q 230.02 69.60 235.45 69.42
  A 0.86 0.86 0.0 0 1 236.25 69.89
  L 242.78 82.39
  Z"
/>
<path fill="#f6f5f1" d="
  M 484.91 74.63
  Q 484.94 74.90 485.10 75.08
  Q 485.30 75.30 485.30 75.60
  L 484.95 146.06
  A 0.95 0.95 0.0 0 1 484.01 147.00
  L 447.66 147.31
  Q 446.45 147.38 446.43 145.21
  Q 446.42 144.75 445.96 144.75
  L 395.79 144.74
  Q 395.28 144.74 395.14 144.25
  Q 393.60 138.67 388.59 135.94
  C 384.96 133.96 379.73 134.49 375.57 134.50
  Q 374.89 134.50 375.07 133.85
  Q 376.22 129.78 375.79 124.57
  C 375.65 122.94 374.35 121.70 373.68 120.19
  A 1.17 1.17 0.0 0 1 374.57 118.56
  Q 376.09 118.33 376.99 117.16
  Q 380.52 112.58 376.82 107.73
  Q 376.57 107.40 376.56 107.00
  C 376.44 103.50 376.86 99.86 375.89 96.46
  Q 374.39 91.21 369.12 88.00
  Q 368.68 87.74 368.63 87.23
  Q 368.34 84.26 365.28 84.28
  Q 361.47 84.30 357.97 84.28
  C 356.50 84.27 355.63 85.14 354.50 85.92
  Q 353.47 86.62 352.09 87.23
  Q 343.04 91.27 343.00 101.74
  Q 343.00 103.99 342.99 106.28
  C 342.98 108.06 341.28 109.18 340.92 110.88
  Q 339.69 116.80 344.94 118.56
  A 1.44 1.44 0.0 0 1 345.54 120.90
  Q 343.87 122.72 343.63 124.66
  Q 343.05 129.36 344.33 133.89
  Q 344.52 134.53 343.85 134.51
  Q 341.63 134.44 339.16 134.49
  Q 329.00 134.71 326.09 144.17
  Q 325.91 144.75 325.31 144.75
  L 300.56 144.74
  A 0.40 0.40 0.0 0 1 300.16 144.34
  L 300.16 139.55
  L 300.25 75.38
  A 0.66 0.66 0.0 0 1 300.89 74.72
  L 310.12 74.47
  L 333.65 74.54
  Q 334.31 74.55 334.30 75.21
  L 334.21 82.71
  Q 334.21 83.22 334.71 83.22
  L 403.03 83.24
  A 0.76 0.75 89.6 0 0 403.78 82.47
  L 403.64 75.26
  Q 403.63 74.57 404.32 74.57
  L 484.91 74.63
  Z"
/>
<path fill="#f6f5f1" d="
  M 207.21 83.90
  Q 207.60 83.58 208.04 83.75
  Q 208.53 83.94 208.53 84.46
  L 208.55 88.16
  A 0.61 0.61 0.0 0 0 209.16 88.77
  L 277.47 88.78
  Q 278.21 88.78 278.22 88.03
  L 278.23 84.50
  A 0.69 0.69 0.0 0 1 278.72 83.84
  Q 279.15 83.70 279.73 83.82
  L 298.15 83.90
  A 0.99 0.98 0.3 0 1 299.13 84.88
  L 299.30 134.83
  L 299.37 144.32
  A 0.43 0.42 90.0 0 1 298.95 144.75
  L 160.49 144.75
  Q 160.11 144.75 160.11 145.13
  L 160.15 155.42
  L 117.57 155.20
  A 0.50 0.50 0.0 0 1 117.07 154.70
  L 117.03 84.77
  A 0.94 0.93 90.0 0 1 117.96 83.83
  L 207.21 83.90
  Z"
/>
<path fill="#1e2446" d="
  M 447.66 147.31
  Q 447.86 147.92 447.13 148.15
  L 447.21 161.12
  A 0.57 0.57 0.0 0 1 446.64 161.70
  Q 303.37 161.71 159.61 161.71
  A 0.98 0.98 0.0 0 1 158.69 161.06
  Q 158.67 161.00 158.81 160.47
  Q 159.02 159.92 159.63 160.06
  A 0.74 0.74 0.0 0 0 160.54 159.27
  L 160.15 155.42
  L 160.11 145.13
  Q 160.11 144.75 160.49 144.75
  L 298.95 144.75
  A 0.43 0.42 90.0 0 0 299.37 144.32
  L 299.30 134.83
  L 299.80 127.19
  Q 299.80 127.12 299.87 127.12
  Q 300.62 127.18 299.97 127.12
  Q 299.94 127.12 299.94 127.15
  L 300.16 139.55
  L 300.16 144.34
  A 0.40 0.40 0.0 0 0 300.56 144.74
  L 325.31 144.75
  Q 325.91 144.75 326.09 144.17
  Q 329.00 134.71 339.16 134.49
  Q 341.63 134.44 343.85 134.51
  Q 344.52 134.53 344.33 133.89
  Q 343.05 129.36 343.63 124.66
  Q 343.87 122.72 345.54 120.90
  A 1.44 1.44 0.0 0 0 344.94 118.56
  Q 339.69 116.80 340.92 110.88
  C 341.28 109.18 342.98 108.06 342.99 106.28
  Q 343.00 103.99 343.00 101.74
  Q 343.04 91.27 352.09 87.23
  Q 353.47 86.62 354.50 85.92
  C 355.63 85.14 356.50 84.27 357.97 84.28
  Q 361.47 84.30 365.28 84.28
  Q 368.34 84.26 368.63 87.23
  Q 368.68 87.74 369.12 88.00
  Q 374.39 91.21 375.89 96.46
  C 376.86 99.86 376.44 103.50 376.56 107.00
  Q 376.57 107.40 376.82 107.73
  Q 380.52 112.58 376.99 117.16
  Q 376.09 118.33 374.57 118.56
  A 1.17 1.17 0.0 0 0 373.68 120.19
  C 374.35 121.70 375.65 122.94 375.79 124.57
  Q 376.22 129.78 375.07 133.85
  Q 374.89 134.50 375.57 134.50
  C 379.73 134.49 384.96 133.96 388.59 135.94
  Q 393.60 138.67 395.14 144.25
  Q 395.28 144.74 395.79 144.74
  L 445.96 144.75
  Q 446.42 144.75 446.43 145.21
  Q 446.45 147.38 447.66 147.31
  Z"
/>
<path fill="#f6f5f1" d="
  M 355.50 95.49
  Q 358.20 95.93 361.22 95.57
  C 362.44 95.43 363.22 94.63 363.96 93.73
  A 1.18 1.18 0.0 0 1 364.98 93.31
  C 369.87 93.77 372.94 97.27 372.77 102.09
  Q 372.69 104.24 372.79 106.39
  Q 372.82 107.01 372.28 107.32
  C 371.19 107.96 370.49 108.98 370.50 110.27
  Q 370.54 114.27 370.48 118.24
  A 2.31 2.31 0.0 0 1 367.08 120.24
  Q 364.25 118.74 361.38 117.35
  C 360.39 116.88 359.58 116.95 358.52 116.98
  A 1.17 1.16 86.7 0 1 357.32 115.90
  C 357.09 113.09 358.48 106.58 353.71 106.64
  Q 350.49 106.68 347.48 106.68
  Q 346.84 106.68 346.80 106.05
  C 346.37 100.54 346.85 95.69 352.76 93.53
  Q 353.36 93.32 353.71 93.84
  L 354.33 94.75
  Q 354.76 95.37 355.50 95.49
  Z"
/>
<path fill="#1e2446" d="
  M 259.66 115.43
  A 19.99 19.99 0.0 0 1 239.67 135.42
  A 19.99 19.99 0.0 0 1 219.68 115.43
  A 19.99 19.99 0.0 0 1 239.67 95.44
  A 19.99 19.99 0.0 0 1 259.66 115.43
  Z"
/>
<circle fill="#f6f5f1" cx="239.68" cy="108.79" r="5.44"/>
<path fill="#f6f5f1" d="
  M 345.76 117.53
  A 0.17 0.17 0.0 0 1 345.59 117.70
  L 345.49 117.70
  A 4.95 3.85 -89.5 0 1 341.68 112.71
  L 341.68 112.47
  A 4.95 3.85 -89.5 0 1 345.57 107.56
  L 345.67 107.56
  A 0.17 0.17 0.0 0 1 345.84 107.73
  L 345.76 117.53
  Z"
/>
<path fill="#f6f5f1" d="
  M 356.96 117.28
  Q 357.29 117.32 357.37 117.57
  Q 357.44 117.83 357.19 117.92
  Q 355.02 118.71 352.81 120.06
  C 351.05 121.14 348.91 120.33 348.98 118.06
  C 349.05 115.63 349.51 110.04 348.19 108.27
  Q 347.70 107.61 348.52 107.61
  L 354.09 107.61
  A 2.11 2.11 0.0 0 1 356.19 109.69
  L 356.30 116.55
  A 0.75 0.75 0.0 0 0 356.96 117.28
  Z"
/>
<path fill="#f6f5f1" d="
  M 373.72 107.73
  A 0.15 0.15 0.0 0 1 373.87 107.58
  L 373.96 107.58
  A 4.92 3.74 90.0 0 1 377.70 112.50
  L 377.70 112.70
  A 4.92 3.74 90.0 0 1 373.96 117.62
  L 373.87 117.62
  A 0.15 0.15 0.0 0 1 373.72 117.47
  L 373.72 107.73
  Z"
/>
<path fill="#f6f5f1" d="
  M 231.84 129.51
  A 0.60 0.60 0.0 0 1 231.24 128.91
  L 231.25 125.16
  A 8.69 8.11 -89.9 0 1 239.37 116.48
  L 239.95 116.48
  A 8.69 8.11 -89.9 0 1 248.05 125.18
  L 248.04 128.93
  A 0.60 0.60 0.0 0 1 247.44 129.53
  L 231.84 129.51
  Z"
/>
<rect fill="#f6f5f1" x="355.99" y="121.91" width="7.60" height="3.68" rx="1.37"/>
<path fill="#f6f5f1" d="
  M 353.62 141.73
  Q 361.15 142.94 367.32 141.37
  Q 370.91 140.45 374.17 135.78
  Q 374.39 135.46 374.77 135.47
  L 383.20 135.49
  Q 387.65 135.51 390.63 138.82
  Q 391.81 140.13 393.00 141.45
  Q 395.97 144.74 391.53 144.74
  L 329.28 144.74
  Q 325.57 144.74 327.93 141.88
  Q 329.07 140.51 330.20 139.14
  Q 332.73 136.08 336.67 135.67
  Q 340.37 135.28 344.52 135.53
  A 1.23 1.20 -14.7 0 1 345.45 136.06
  Q 348.68 140.93 353.62 141.73
  Z"
/>
<path fill="#f6f5f1" d="
  M 158.81 160.47
  Q 158.67 161.00 158.69 161.06
  A 0.98 0.98 0.0 0 0 159.61 161.71
  Q 303.37 161.71 446.64 161.70
  A 0.57 0.57 0.0 0 0 447.21 161.12
  L 447.13 148.15
  L 453.09 148.14
  A 0.83 0.82 89.6 0 1 453.91 148.96
  L 453.96 166.33
  A 1.04 1.03 0.0 0 1 452.92 167.36
  L 152.54 167.33
  A 0.79 0.79 0.0 0 1 151.75 166.54
  L 151.75 157.43
  Q 151.74 156.36 152.82 156.36
  L 157.72 156.38
  Q 158.74 156.38 158.75 157.40
  L 158.81 160.47
  Z"
/>
<circle fill="#f6f5f1" cx="227.69" cy="152.68" r="3.24"/>
<rect fill="#f6f5f1" x="-3.29" y="-3.28" transform="translate(266.49,152.73) rotate(-0.1)" width="6.58" height="6.56" rx="0.35"/>
<circle fill="#f6f5f1" cx="305.33" cy="152.68" r="3.26"/>
<rect fill="#f6f5f1" x="-3.36" y="-3.29" transform="translate(344.12,152.72) rotate(0.3)" width="6.72" height="6.58" rx="0.33"/>
<rect fill="#f6f5f1" x="-3.34" y="-3.28" transform="translate(382.93,152.72) rotate(-0.1)" width="6.68" height="6.56" rx="0.39"/>
<path fill="#f6f5f1" d="
  M 331.80 171.07
  Q 328.00 172.19 330.45 172.87
  C 328.48 172.82 326.41 173.03 324.52 172.86
  Q 309.16 171.55 293.75 171.90
  Q 291.38 171.95 289.80 171.88
  Q 284.70 171.19 282.99 168.85
  L 331.24 168.53
  A 0.50 0.50 0.0 0 1 331.68 169.28
  Q 331.51 169.59 331.20 169.84
  A 0.40 0.40 0.0 0 0 331.23 170.48
  Q 331.49 170.65 331.71 170.41
  Q 332.01 170.12 331.80 171.07
  Z"
/>
<path fill="#1e2446" d="
  M 54.15 209.15
  Q 53.48 221.94 54.33 234.35
  L 54.26 240.57
  Q 53.80 241.78 53.96 242.67
  Q 54.05 243.20 54.58 243.20
  L 57.29 243.21
  Q 58.24 242.95 58.74 243.21
  L 76.62 243.28
  A 0.58 0.57 -0.5 0 0 77.20 242.70
  L 77.05 221.04
  Q 77.45 220.98 77.39 220.31
  Q 77.37 220.07 77.44 220.30
  Q 77.50 220.53 77.45 220.75
  Q 77.15 222.23 77.70 223.05
  L 78.33 242.12
  Q 78.35 242.68 78.91 242.69
  L 87.51 242.87
  Q 88.47 242.69 88.41 243.11
  Q 99.55 243.51 106.75 243.26
  Q 107.31 243.24 107.53 242.58
  Q 109.68 243.70 112.77 243.02
  Q 114.35 243.51 115.90 243.13
  Q 116.47 242.99 116.01 242.63
  L 113.82 240.93
  Q 110.36 232.12 118.67 228.61
  Q 119.87 229.22 120.59 228.58
  A 0.71 0.71 0.0 0 0 120.74 227.72
  Q 120.53 227.34 120.02 227.49
  C 117.26 223.39 117.88 218.22 122.22 215.61
  C 124.27 214.39 128.28 214.49 130.75 214.48
  Q 153.92 214.45 177.08 214.66
  Q 177.62 214.67 177.89 215.13
  Q 178.40 215.99 177.94 216.91
  C 177.51 217.76 176.81 217.81 175.98 218.07
  Q 175.02 217.85 175.00 217.59
  Q 151.43 217.50 126.27 217.63
  Q 121.73 217.66 121.66 222.19
  Q 121.66 222.33 121.66 222.38
  Q 121.58 226.92 126.12 226.93
  Q 150.95 227.02 174.17 226.99
  Q 174.49 226.99 174.70 226.74
  Q 174.81 226.62 174.86 226.52
  Q 175.09 226.29 176.06 226.33
  Q 176.22 226.97 177.57 227.17
  Q 178.37 227.29 178.22 228.09
  L 178.04 229.06
  A 0.86 0.85 -84.7 0 1 177.20 229.76
  L 173.99 229.79
  Q 173.17 229.80 172.68 230.44
  Q 172.00 231.34 170.85 231.53
  A 1.13 1.11 -86.2 0 0 169.95 232.33
  Q 168.80 236.30 169.97 240.12
  Q 170.13 240.66 170.63 240.91
  Q 171.25 241.22 171.87 241.26
  Q 172.61 241.30 172.68 242.04
  Q 172.76 242.90 173.29 243.15
  Q 172.66 243.46 173.04 244.00
  L 30.15 244.18
  A 1.32 1.31 -0.0 0 0 28.84 245.48
  L 28.78 256.28
  A 0.86 0.85 0.3 0 0 29.64 257.14
  L 50.33 257.03
  Q 50.14 257.35 48.92 257.70
  L 28.86 257.71
  Q 28.06 257.71 28.07 256.91
  L 28.15 244.03
  Q 28.15 243.46 28.72 243.42
  L 32.25 243.21
  A 0.89 0.88 -0.7 0 0 33.08 242.36
  Q 33.52 226.51 33.35 211.77
  C 33.20 198.22 33.69 184.59 33.23 170.72
  A 1.82 1.82 0.0 0 1 34.99 168.84
  Q 43.61 168.55 52.87 169.01
  A 0.90 0.89 -89.0 0 1 53.72 169.90
  L 54.15 209.15
  Z
  M 53.13 181.06
  Q 54.12 177.38 53.19 174.40
  L 53.03 170.83
  A 1.10 1.10 0.0 0 0 51.95 169.78
  L 35.65 169.57
  A 1.28 1.28 0.0 0 0 34.35 170.85
  L 34.40 242.62
  A 0.61 0.61 0.0 0 0 35.00 243.23
  L 52.46 243.31
  Q 53.08 243.31 53.08 242.70
  L 53.13 181.06
  Z"
/>
<g stroke-width="2.00" fill="none" stroke-linecap="butt">
<path stroke="#393d53" vector-effect="non-scaling-stroke" d="
  M 53.13 181.06
  Q 54.12 177.38 53.19 174.40"
/>
<path stroke="#8a8d9c" vector-effect="non-scaling-stroke" d="
  M 53.19 174.40
  L 53.03 170.83
  A 1.10 1.10 0.0 0 0 51.95 169.78
  L 35.65 169.57
  A 1.28 1.28 0.0 0 0 34.35 170.85
  L 34.40 242.62
  A 0.61 0.61 0.0 0 0 35.00 243.23
  L 52.46 243.31
  Q 53.08 243.31 53.08 242.70
  L 53.13 181.06"
/>
<path stroke="#a5a6a9" vector-effect="non-scaling-stroke" d="
  M 53.19 174.40
  L 53.13 181.06"
/>
</g>
<path fill="#545760" fill-opacity="0.996" d="
  M 107.67 241.98
  Q 107.20 241.83 107.12 241.25
  Q 102.04 206.24 96.90 171.01
  A 1.30 1.29 -8.7 0 0 95.41 169.92
  L 81.36 172.20
  Q 80.16 172.14 79.41 172.44
  Q 78.93 172.63 78.81 173.14
  Q 78.53 174.45 78.98 176.03
  L 88.41 243.11
  Q 88.47 242.69 87.51 242.87
  L 86.19 229.87
  Q 86.14 229.38 85.87 228.95
  Q 85.58 228.49 85.58 227.94
  Q 85.58 224.68 84.84 221.74
  C 84.42 220.07 84.57 218.45 84.15 216.78
  Q 83.42 213.90 82.99 210.64
  Q 82.18 204.47 81.34 198.57
  Q 81.08 196.80 80.67 195.05
  C 80.05 192.39 80.40 189.98 79.58 187.27
  Q 78.85 184.84 78.58 182.30
  Q 78.56 182.05 78.31 182.06
  L 78.30 182.07
  Q 78.06 182.08 78.05 182.33
  Q 77.91 202.68 77.70 223.05
  Q 77.15 222.23 77.45 220.75
  Q 77.50 220.53 77.44 220.30
  Q 77.37 220.07 77.39 220.31
  Q 77.45 220.98 77.05 221.04
  L 77.11 171.10
  Q 77.11 169.76 75.76 169.76
  L 59.93 169.80
  Q 58.53 169.80 58.54 171.20
  L 58.74 243.21
  Q 58.24 242.95 57.29 243.21
  Q 58.00 240.98 56.84 239.32
  Q 57.36 236.16 56.49 232.86
  Q 57.33 231.68 57.40 230.50
  Q 57.97 220.91 57.11 209.36
  Q 58.30 189.97 57.34 170.34
  Q 57.31 169.69 57.88 169.38
  Q 58.88 168.84 60.30 168.86
  Q 69.03 168.94 76.48 168.94
  Q 77.73 168.94 77.80 170.19
  A 1.16 1.15 -86.8 0 0 78.74 171.25
  Q 81.01 171.67 82.95 171.12
  C 86.24 170.18 89.35 170.24 92.77 169.42
  C 94.02 169.12 95.42 169.22 96.70 169.29
  Q 97.35 169.32 97.46 169.97
  Q 100.68 190.73 103.57 212.30
  C 104.12 216.48 104.95 220.74 105.52 225.00
  C 106.11 229.36 107.44 236.23 107.67 241.98
  Z"
/>
<path fill="#545760" fill-opacity="0.996" d="
  M 535.08 191.03
  L 533.66 191.69
  L 514.69 189.52
  A 1.56 1.52 -60.3 0 0 513.57 189.84
  Q 510.84 192.02 510.20 195.84
  A 2.25 2.25 0.0 0 0 511.53 198.29
  L 522.85 203.19
  A 0.82 0.81 37.8 0 1 523.03 204.58
  Q 514.50 211.23 505.94 217.94
  C 502.56 220.58 498.82 223.01 495.27 225.53
  A 0.60 0.60 0.0 0 1 494.47 225.44
  L 494.30 225.25
  A 0.29 0.29 0.0 0 1 494.35 224.82
  L 500.05 220.79
  Q 501.72 219.61 499.67 219.65
  Q 497.74 219.69 495.75 220.08
  C 494.58 220.31 493.61 221.71 492.41 222.25
  Q 482.49 226.76 471.58 231.77
  Q 469.91 232.54 469.33 230.77
  A 1.77 1.77 0.0 0 1 469.36 229.60
  Q 471.64 223.74 473.35 218.83
  Q 474.13 216.61 473.90 212.64
  Q 473.87 212.07 473.29 212.07
  C 470.44 212.10 466.66 212.88 465.21 209.48
  C 464.28 207.31 466.82 201.50 467.74 199.63
  A 0.89 0.88 42.5 0 0 467.70 198.77
  Q 467.34 198.22 466.73 197.93
  A 2.07 2.07 0.0 0 1 466.39 194.40
  C 467.69 193.43 470.43 192.90 470.93 191.15
  Q 472.05 187.18 474.20 184.04
  A 2.02 2.02 0.0 0 0 472.50 180.87
  C 468.89 180.94 464.91 180.44 461.67 182.18
  C 457.42 184.47 455.75 188.32 455.37 193.11
  Q 453.99 210.47 452.70 226.08
  Q 452.62 227.06 451.81 227.60
  Q 449.43 229.19 447.38 231.63
  Q 439.98 240.48 432.48 249.22
  Q 431.65 249.62 431.47 249.13
  Q 438.79 240.39 446.26 231.75
  Q 448.44 229.23 450.21 227.62
  C 451.81 226.16 452.04 224.74 452.17 222.75
  Q 453.13 208.34 454.50 192.49
  Q 455.15 184.92 460.87 181.62
  C 464.33 179.62 468.29 179.68 472.12 179.72
  Q 472.93 179.73 472.96 178.92
  Q 473.06 175.90 474.63 172.34
  Q 475.65 170.02 477.89 169.30
  Q 478.32 169.17 478.75 169.32
  Q 484.41 171.31 490.10 173.52
  Q 492.68 174.52 495.76 174.96
  Q 499.57 175.50 504.09 177.98
  C 507.65 179.94 509.73 183.21 510.95 186.93
  Q 511.30 188.00 512.42 188.14
  L 535.08 191.03
  Z
  M 502.46 216.06
  C 504.28 215.67 505.38 217.11 507.23 215.70
  Q 513.74 210.74 520.81 205.16
  Q 521.30 204.77 521.21 204.15
  Q 521.12 203.59 520.61 203.34
  Q 515.81 201.02 510.62 198.81
  A 1.45 1.44 22.2 0 0 508.70 199.61
  Q 506.12 206.22 503.42 213.34
  C 503.10 214.18 502.47 214.76 502.07 215.56
  Q 501.74 216.22 502.46 216.06
  Z
  M 502.27 217.12
  Q 501.16 217.17 500.80 218.22
  Q 500.59 218.82 501.22 218.88
  Q 502.93 219.06 504.33 217.42
  Q 504.96 216.68 504.01 216.84
  L 502.62 217.08
  Q 502.45 217.11 502.27 217.12
  Z"
/>
<path fill="#f6f5f1" d="
  M 53.19 174.40
  L 53.13 181.06
  L 53.08 242.70
  Q 53.08 243.31 52.46 243.31
  L 35.00 243.23
  A 0.61 0.61 0.0 0 1 34.40 242.62
  L 34.35 170.85
  A 1.28 1.28 0.0 0 1 35.65 169.57
  L 51.95 169.78
  A 1.10 1.10 0.0 0 1 53.03 170.83
  L 53.19 174.40
  Z"
/>
<path fill="#f6f5f1" d="
  M 77.05 221.04
  L 77.20 242.70
  A 0.58 0.57 -0.5 0 1 76.62 243.28
  L 58.74 243.21
  L 58.54 171.20
  Q 58.53 169.80 59.93 169.80
  L 75.76 169.76
  Q 77.11 169.76 77.11 171.10
  L 77.05 221.04
  Z"
/>
<path fill="#f6f5f1" d="
  M 107.67 241.98
  Q 107.44 241.81 107.53 242.58
  Q 107.31 243.24 106.75 243.26
  Q 99.55 243.51 88.41 243.11
  L 78.98 176.03
  L 81.36 172.20
  L 95.41 169.92
  A 1.30 1.29 -8.7 0 1 96.90 171.01
  Q 102.04 206.24 107.12 241.25
  Q 107.20 241.83 107.67 241.98
  Z"
/>
<path fill="#f6f5f1" d="
  M 498.08 208.51
  C 495.27 207.52 491.73 206.41 489.63 204.13
  Q 489.32 203.78 489.69 203.50
  Q 491.92 201.80 493.78 199.06
  C 496.45 195.12 492.09 191.43 488.19 193.61
  Q 487.35 194.07 487.59 193.14
  C 488.13 191.08 489.34 188.09 489.20 185.98
  C 489.05 183.78 486.45 182.52 484.44 183.39
  C 480.57 185.05 476.38 184.10 474.39 180.15
  C 473.15 177.70 474.80 173.95 476.07 171.69
  A 2.51 2.51 0.0 0 1 479.13 170.55
  Q 485.19 172.78 492.05 175.36
  C 493.47 175.89 494.57 175.49 495.93 175.85
  Q 499.30 176.75 502.69 178.33
  C 507.66 180.66 510.65 185.84 510.18 191.25
  Q 509.94 194.04 506.79 201.98
  Q 504.72 207.18 502.72 212.70
  A 4.47 4.45 -87.3 0 1 499.65 215.50
  L 498.72 215.74
  Q 496.60 216.29 497.26 214.20
  L 498.69 209.74
  Q 498.98 208.83 498.08 208.51
  Z"
/>
<path fill="#f6f5f1" d="
  M 291.25 174.00
  L 302.02 175.06
  Q 302.83 175.14 302.07 175.41
  Q 301.55 175.59 301.00 175.66
  Q 300.80 175.69 300.81 175.90
  L 300.81 175.90
  Q 300.81 176.09 301.00 176.08
  Q 303.14 175.97 305.25 176.35
  Q 288.12 176.91 276.25 177.90
  Q 261.91 179.09 246.48 182.98
  Q 241.82 184.16 234.93 187.16
  A 1.76 1.73 41.8 0 1 233.68 187.22
  Q 231.43 186.48 233.30 184.26
  A 1.64 1.62 7.9 0 1 233.88 183.83
  Q 242.59 180.04 254.01 177.78
  Q 273.32 173.94 291.25 174.00
  Z"
/>
<path fill="#f6f5f1" d="
  M 316.02 174.45
  Q 314.83 174.44 314.29 174.61
  Q 313.48 174.86 314.37 174.90
  Q 319.62 175.11 324.98 174.30
  Q 339.88 175.09 354.50 178.29
  Q 362.99 180.15 371.94 183.85
  Q 373.51 184.50 373.35 186.20
  Q 373.27 187.00 372.06 187.34
  A 1.43 1.42 48.3 0 1 371.08 187.28
  C 360.83 182.76 351.05 180.83 340.35 179.19
  Q 333.26 178.09 324.57 177.45
  Q 316.15 176.83 307.70 176.38
  L 308.71 176.02
  Q 308.87 175.96 308.94 175.81
  Q 309.00 175.68 308.87 175.52
  Q 308.71 175.30 308.97 175.24
  L 312.50 174.30
  Q 314.77 173.15 316.02 174.45
  Z"
/>
<path fill="#545760" fill-opacity="0.996" d="
  M 53.19 174.40
  Q 54.12 177.38 53.13 181.06
  L 53.19 174.40
  Z"
/>
<path fill="#f6f5f1" d="
  M 533.66 191.69
  Q 537.15 192.04 540.57 192.47
  Q 544.18 192.93 545.75 194.27
  Q 547.95 196.15 549.19 198.39
  C 551.07 201.79 550.13 206.52 547.49 209.24
  Q 527.60 229.69 507.61 249.81
  Q 505.70 251.73 504.70 254.06
  C 501.93 260.48 499.38 266.43 495.09 272.04
  Q 492.59 275.30 487.27 280.33
  Q 471.22 295.50 457.50 308.53
  A 0.36 0.36 0.0 0 1 456.91 308.39
  C 453.68 299.58 448.81 292.72 440.10 288.80
  Q 425.47 282.21 411.08 275.79
  A 0.82 0.82 0.0 0 1 410.79 274.51
  L 432.48 249.22
  Q 439.98 240.48 447.38 231.63
  Q 449.43 229.19 451.81 227.60
  Q 452.62 227.06 452.70 226.08
  Q 453.99 210.47 455.37 193.11
  C 455.75 188.32 457.42 184.47 461.67 182.18
  C 464.91 180.44 468.89 180.94 472.50 180.87
  A 2.02 2.02 0.0 0 1 474.20 184.04
  Q 472.05 187.18 470.93 191.15
  C 470.43 192.90 467.69 193.43 466.39 194.40
  A 2.07 2.07 0.0 0 0 466.73 197.93
  Q 467.34 198.22 467.70 198.77
  A 0.89 0.88 42.5 0 1 467.74 199.63
  C 466.82 201.50 464.28 207.31 465.21 209.48
  C 466.66 212.88 470.44 212.10 473.29 212.07
  Q 473.87 212.07 473.90 212.64
  Q 474.13 216.61 473.35 218.83
  Q 471.64 223.74 469.36 229.60
  A 1.77 1.77 0.0 0 0 469.33 230.77
  Q 469.91 232.54 471.58 231.77
  Q 482.49 226.76 492.41 222.25
  C 493.61 221.71 494.58 220.31 495.75 220.08
  Q 497.74 219.69 499.67 219.65
  Q 501.72 219.61 500.05 220.79
  L 494.35 224.82
  A 0.29 0.29 0.0 0 0 494.30 225.25
  L 494.47 225.44
  A 0.60 0.60 0.0 0 0 495.27 225.53
  C 498.82 223.01 502.56 220.58 505.94 217.94
  Q 514.50 211.23 523.03 204.58
  A 0.82 0.81 37.8 0 0 522.85 203.19
  L 511.53 198.29
  A 2.25 2.25 0.0 0 1 510.20 195.84
  Q 510.84 192.02 513.57 189.84
  A 1.56 1.52 -60.3 0 1 514.69 189.52
  L 533.66 191.69
  Z"
/>
<path fill="#f6f5f1" d="
  M 475.66 192.64
  Q 475.37 190.92 473.55 190.42
  Q 472.29 190.08 472.86 188.90
  L 474.82 184.88
  Q 475.43 183.63 476.67 184.25
  Q 480.66 186.23 484.84 184.43
  C 486.71 183.62 488.41 185.37 487.96 187.23
  Q 486.98 191.25 485.94 195.25
  A 0.88 0.87 3.8 0 1 485.19 195.90
  C 483.74 196.07 482.69 197.01 482.26 198.39
  C 481.15 202.06 479.60 205.29 475.57 206.42
  A 0.52 0.52 0.0 0 1 474.91 205.94
  Q 474.64 201.25 469.78 199.90
  A 0.87 0.86 3.7 0 1 469.15 199.19
  Q 468.93 197.64 467.41 197.26
  Q 466.56 197.05 466.58 196.17
  Q 466.61 195.18 467.61 194.87
  Q 470.78 193.88 472.09 191.44
  A 0.75 0.75 0.0 0 1 473.36 191.35
  Q 474.08 192.34 474.94 193.05
  Q 475.85 193.79 475.66 192.64
  Z"
/>
<path fill="#f6f5f1" d="
  M 511.94 189.96
  Q 511.78 190.22 511.49 190.29
  A 0.31 0.31 0.0 0 1 511.10 189.98
  Q 511.11 189.42 511.58 189.13
  Q 511.98 188.89 512.44 189.02
  Q 512.68 189.10 512.57 189.33
  Q 512.46 189.57 512.22 189.70
  A 0.79 0.71 -84.9 0 0 511.94 189.96
  Z"
/>
<path fill="#1e2446" d="
  M 535.08 191.03
  Q 537.29 191.27 539.75 191.45
  Q 549.40 192.14 551.14 201.27
  Q 552.04 206.01 547.50 210.54
  Q 526.02 231.98 508.59 249.80
  Q 506.20 252.24 503.46 259.05
  C 499.65 268.53 493.51 276.09 485.95 282.92
  C 483.01 285.56 482.07 289.63 480.77 293.20
  Q 479.72 296.05 479.73 299.34
  Q 479.74 305.61 479.85 311.57
  Q 479.97 317.37 478.21 321.11
  C 475.79 326.25 471.54 329.90 466.01 330.91
  Q 464.28 331.23 462.62 331.51
  C 459.80 331.98 456.90 331.68 454.04 331.67
  Q 453.48 331.67 453.06 332.04
  L 451.76 333.18
  A 1.55 1.55 0.0 0 1 449.57 333.03
  C 448.94 332.30 448.33 331.81 447.30 331.79
  Q 443.82 331.70 440.68 332.03
  A 1.00 0.99 87.1 0 0 439.79 333.02
  L 439.93 380.71
  A 1.07 1.07 0.0 0 0 440.89 381.77
  C 445.71 382.27 450.38 381.80 455.12 382.75
  C 457.99 383.32 460.84 383.06 463.80 383.53
  Q 476.49 385.57 488.09 388.20
  Q 489.25 388.46 490.18 388.94
  A 1.96 1.94 -30.7 0 0 491.10 389.17
  Q 493.25 389.21 495.32 390.32
  Q 495.75 390.55 495.77 391.04
  Q 495.85 393.22 495.81 395.48
  Q 495.78 397.23 496.62 398.94
  Q 498.36 402.50 497.17 406.70
  Q 496.50 409.09 494.10 410.19
  Q 491.18 411.53 488.57 409.22
  C 487.36 408.15 487.10 406.72 485.89 405.77
  Q 485.41 405.38 485.49 404.77
  Q 486.08 399.87 490.67 398.20
  Q 491.23 398.00 491.19 397.41
  L 491.02 394.53
  A 0.60 0.60 0.0 0 0 490.35 393.97
  Q 489.78 394.03 489.33 393.65
  Q 488.81 393.22 488.09 393.02
  C 468.33 387.77 447.22 385.04 427.08 386.87
  Q 425.08 387.05 423.08 387.49
  Q 421.28 387.89 419.39 388.19
  Q 412.55 389.29 404.37 392.84
  A 1.39 1.38 88.1 0 0 403.62 393.65
  Q 403.07 395.19 403.34 397.21
  A 1.10 1.10 0.0 0 0 404.19 398.14
  Q 409.92 399.48 410.14 404.60
  Q 410.17 405.11 409.86 405.52
  Q 408.88 406.84 408.02 408.14
  C 405.29 412.29 399.19 411.05 398.41 406.47
  Q 397.93 403.62 398.58 399.99
  Q 398.89 398.29 398.82 396.51
  Q 398.75 394.74 398.81 393.00
  Q 398.80 391.61 399.27 390.50
  Q 399.47 390.00 399.98 389.80
  L 400.97 389.42
  Q 401.67 389.15 400.92 389.09
  Q 399.13 388.93 397.99 389.90
  Q 394.71 390.19 391.51 390.69
  C 387.70 391.27 384.10 392.61 380.26 393.28
  Q 378.58 393.57 378.67 395.27
  C 378.81 397.82 380.20 398.20 382.03 399.42
  C 384.26 400.92 385.89 404.93 383.49 406.95
  Q 383.13 406.72 382.95 406.38
  Q 382.80 406.09 382.81 405.74
  Q 382.90 404.23 382.06 403.01
  Q 381.49 402.18 381.51 403.19
  Q 381.57 405.65 383.26 407.44
  Q 382.30 411.10 384.23 413.86
  Q 384.52 414.27 384.42 414.77
  Q 383.12 420.81 376.75 420.79
  Q 364.79 420.75 350.42 420.86
  Q 346.23 420.89 343.39 419.74
  Q 339.60 418.20 336.13 415.73
  C 332.56 413.20 333.78 408.76 338.12 408.16
  Q 341.25 407.73 344.34 407.31
  C 351.25 406.36 354.67 401.86 357.34 395.92
  Q 357.58 395.38 358.04 395.02
  C 360.01 393.46 358.77 391.99 358.24 390.22
  Q 356.49 384.39 355.03 378.46
  Q 355.54 378.66 355.76 378.51
  L 358.75 389.73
  Q 358.92 390.36 359.55 390.20
  L 363.77 389.09
  Q 364.35 388.94 364.19 388.36
  L 352.06 343.26
  Q 353.30 340.31 352.19 338.02
  L 351.33 330.01
  L 351.14 318.95
  Q 351.11 317.19 349.82 318.38
  L 347.88 320.17
  Q 346.71 321.24 347.17 322.76
  L 349.18 329.46
  Q 348.71 329.28 348.17 329.47
  L 332.34 270.79
  Q 332.17 270.14 331.50 270.14
  L 321.33 270.16
  A 0.88 0.88 0.0 0 0 320.48 270.82
  L 288.94 387.85
  Q 288.70 388.75 289.59 389.04
  L 293.48 390.27
  Q 294.76 390.13 294.69 390.50
  Q 291.62 391.35 288.99 389.78
  Q 287.77 389.05 288.13 387.67
  L 292.95 369.72
  Q 293.26 368.57 292.20 368.05
  Q 286.86 365.40 280.82 362.75
  Q 276.74 360.97 274.49 358.56
  C 272.43 356.36 268.69 352.20 268.71 349.23
  C 268.72 347.14 270.81 344.97 272.97 345.61
  Q 277.37 346.94 281.97 348.02
  Q 285.03 348.75 289.26 347.66
  C 292.55 346.81 296.05 343.62 298.99 341.54
  C 300.48 340.49 301.82 336.76 302.38 334.73
  Q 310.50 304.98 319.40 271.38
  A 1.26 1.26 0.0 0 0 318.31 269.80
  L 317.86 269.76
  Q 317.28 269.70 317.27 269.11
  L 317.11 258.96
  A 0.97 0.97 0.0 0 0 316.14 258.01
  L 206.46 257.72
  Q 205.97 257.68 205.73 257.58
  Q 204.83 257.18 206.00 257.19
  Q 215.64 257.23 225.27 257.14
  L 338.13 257.15
  Q 338.92 257.60 336.64 257.61
  Q 336.62 257.61 336.62 257.62
  Q 336.62 257.62 336.62 257.63
  Q 336.62 257.65 336.65 257.65
  Q 337.58 257.63 338.32 257.93
  L 336.78 257.99
  A 1.09 1.09 0.0 0 0 335.74 259.08
  L 335.77 269.24
  Q 335.77 269.83 335.18 269.80
  Q 334.41 269.75 333.84 270.20
  Q 333.32 270.61 333.49 271.24
  L 337.33 285.37
  A 0.75 0.75 0.0 0 0 338.62 285.66
  Q 345.56 277.54 351.74 270.20
  C 355.14 266.18 359.54 264.77 364.77 265.90
  Q 383.37 269.91 400.03 273.78
  Q 403.94 274.69 407.95 275.38
  A 1.89 1.87 24.9 0 0 409.70 274.75
  L 431.47 249.13
  Q 431.65 249.62 432.48 249.22
  L 410.79 274.51
  A 0.82 0.82 0.0 0 0 411.08 275.79
  Q 425.47 282.21 440.10 288.80
  C 448.81 292.72 453.68 299.58 456.91 308.39
  A 0.36 0.36 0.0 0 0 457.50 308.53
  Q 471.22 295.50 487.27 280.33
  Q 492.59 275.30 495.09 272.04
  C 499.38 266.43 501.93 260.48 504.70 254.06
  Q 505.70 251.73 507.61 249.81
  Q 527.60 229.69 547.49 209.24
  C 550.13 206.52 551.07 201.79 549.19 198.39
  Q 547.95 196.15 545.75 194.27
  Q 544.18 192.93 540.57 192.47
  Q 537.15 192.04 533.66 191.69
  L 535.08 191.03
  Z
  M 457.04 319.19
  Q 456.38 319.80 456.32 320.65
  Q 456.28 321.18 456.81 321.31
  Q 458.19 321.63 459.27 320.86
  Q 462.89 321.56 465.04 320.82
  Q 469.59 319.27 469.62 313.37
  Q 469.65 306.66 469.81 299.39
  A 0.35 0.35 0.0 0 0 469.26 299.10
  Q 465.91 301.49 462.70 304.75
  Q 461.14 306.34 459.83 310.35
  Q 458.38 314.78 457.04 319.19
  Z
  M 414.17 382.86
  Q 414.67 383.82 411.78 383.88
  Q 395.83 385.76 380.25 389.71
  Q 378.28 390.22 378.55 392.17
  A 0.59 0.59 0.0 0 0 379.30 392.65
  Q 389.69 389.66 401.65 387.94
  C 406.12 387.30 410.23 385.68 414.59 384.40
  Q 417.84 383.91 419.86 382.37
  L 430.33 381.20
  Q 431.06 381.12 431.06 380.39
  L 431.12 332.72
  A 0.73 0.73 0.0 0 0 430.47 331.99
  C 428.30 331.76 422.90 331.06 421.38 332.93
  A 1.58 1.57 39.0 0 1 419.16 333.16
  L 417.94 332.16
  Q 417.50 331.80 416.94 331.79
  Q 406.35 331.69 394.05 331.78
  C 389.49 331.82 386.18 328.82 387.91 323.92
  Q 388.63 323.56 388.93 322.95
  Q 389.18 322.46 388.69 322.19
  Q 388.03 321.82 387.14 322.27
  L 381.92 322.00
  A 0.85 0.85 0.0 0 0 381.03 322.88
  C 381.32 332.39 382.08 341.92 381.41 351.35
  Q 380.43 365.27 379.29 378.70
  Q 378.88 383.63 379.07 388.29
  Q 379.09 388.88 379.67 388.73
  Q 386.78 386.80 395.23 385.47
  Q 397.32 385.14 399.25 384.54
  Q 402.94 383.41 414.17 382.86
  Z"
/>
<g stroke-width="2.00" fill="none" stroke-linecap="butt">
<path stroke="#8a8d9c" vector-effect="non-scaling-stroke" d="
  M 457.04 319.19
  Q 456.38 319.80 456.32 320.65
  Q 456.28 321.18 456.81 321.31
  Q 458.19 321.63 459.27 320.86"
/>
<path stroke="#393d53" vector-effect="non-scaling-stroke" d="
  M 414.17 382.86
  Q 414.67 383.82 411.78 383.88"
/>
<path stroke="#8a8d9c" vector-effect="non-scaling-stroke" d="
  M 411.78 383.88
  Q 395.83 385.76 380.25 389.71
  Q 378.28 390.22 378.55 392.17
  A 0.59 0.59 0.0 0 0 379.30 392.65
  Q 389.69 389.66 401.65 387.94
  C 406.12 387.30 410.23 385.68 414.59 384.40"
/>
<path stroke="#393d53" vector-effect="non-scaling-stroke" d="
  M 414.59 384.40
  Q 417.84 383.91 419.86 382.37"
/>
<path stroke="#8a8d9c" vector-effect="non-scaling-stroke" d="
  M 387.91 323.92
  Q 388.63 323.56 388.93 322.95
  Q 389.18 322.46 388.69 322.19
  Q 388.03 321.82 387.14 322.27"
/>
<path stroke="#a5a6a9" vector-effect="non-scaling-stroke" d="
  M 414.59 384.40
  Q 414.41 383.61 411.78 383.88"
/>
</g>
<path fill="#f6f5f1" d="
  M 487.81 202.85
  A 0.49 0.48 -28.0 0 0 487.57 203.61
  C 488.92 205.35 490.63 207.03 492.76 207.79
  Q 494.74 208.51 496.64 209.27
  A 0.86 0.86 0.0 0 1 497.13 210.37
  L 493.67 219.75
  A 2.17 2.12 88.2 0 1 492.55 220.97
  Q 481.96 225.85 471.25 230.77
  Q 470.82 230.96 470.73 230.95
  Q 470.05 230.82 470.29 230.18
  Q 473.42 221.52 476.82 212.72
  Q 477.01 212.22 477.54 212.21
  Q 481.53 212.10 482.75 208.63
  Q 484.94 202.38 487.29 196.39
  Q 488.36 193.68 491.24 194.13
  Q 491.56 194.18 491.84 194.33
  Q 494.24 195.63 492.97 198.04
  Q 491.03 201.76 487.81 202.85
  Z"
/>
<path fill="#f6f5f1" d="
  M 474.31 207.76
  C 478.99 207.14 481.63 203.95 482.90 199.67
  Q 483.20 198.65 483.90 197.85
  Q 484.42 197.25 485.16 197.11
  A 0.32 0.32 0.0 0 1 485.52 197.53
  L 481.33 209.01
  A 2.76 2.76 0.0 0 1 478.78 210.83
  L 469.12 211.03
  Q 467.13 211.07 466.43 209.20
  Q 466.27 208.78 466.08 208.29
  Q 465.38 206.42 467.36 206.68
  Q 471.53 207.24 471.55 205.01
  Q 471.57 202.62 468.69 201.89
  Q 468.27 201.79 468.43 201.39
  L 468.55 201.06
  Q 468.64 200.84 468.87 200.89
  Q 474.30 202.06 473.71 207.17
  Q 473.63 207.85 474.31 207.76
  Z"
/>
<path fill="#545760" fill-opacity="0.996" d="
  M 359.21 241.02
  Q 358.75 241.79 358.64 242.64
  Q 358.56 243.16 359.09 243.22
  Q 360.61 243.37 362.00 242.84
  Q 363.37 242.91 364.61 243.45
  Q 365.06 243.65 365.06 244.15
  L 365.03 256.17
  Q 365.02 257.96 363.24 257.96
  L 338.32 257.93
  Q 337.58 257.63 336.65 257.65
  Q 336.62 257.65 336.62 257.63
  Q 336.62 257.62 336.62 257.62
  Q 336.62 257.61 336.64 257.61
  Q 338.92 257.60 338.13 257.15
  L 362.87 257.16
  A 1.33 1.33 0.0 0 0 364.20 255.82
  L 364.15 245.43
  Q 364.15 244.21 362.93 244.21
  L 174.09 244.23
  Q 173.79 244.23 173.52 244.09
  Q 173.27 243.96 173.04 244.00
  Q 172.66 243.46 173.29 243.15
  L 229.00 243.05
  L 243.54 243.12
  L 246.21 242.96
  L 274.66 243.18
  A 0.56 0.55 -0.5 0 0 275.22 242.62
  C 275.21 240.81 275.48 239.12 274.82 237.37
  Q 268.68 221.04 262.44 204.54
  A 1.66 1.66 0.0 0 1 263.99 202.29
  L 307.17 202.24
  A 3.04 3.04 0.0 0 1 310.02 204.23
  L 322.26 237.52
  A 1.31 1.30 -9.1 0 0 323.46 238.38
  Q 340.11 238.63 356.26 238.25
  Q 359.02 238.19 359.21 241.02
  Z
  M 275.72 236.67
  Q 275.25 237.15 276.07 237.93
  Q 276.61 238.45 277.11 237.74
  Q 277.21 237.93 277.41 237.94
  Q 277.75 237.95 277.63 237.63
  L 265.63 205.55
  A 0.64 0.64 0.0 0 1 266.23 204.68
  L 306.23 204.71
  A 1.58 1.58 0.0 0 1 307.71 205.74
  L 319.03 236.22
  Q 319.18 236.65 319.01 237.06
  Q 318.78 237.63 319.26 237.93
  Q 319.69 238.20 319.95 237.73
  Q 320.56 238.14 321.08 237.78
  Q 321.57 237.44 321.22 236.96
  Q 321.08 236.77 320.84 236.61
  L 309.15 205.17
  A 3.61 3.61 0.0 0 0 305.75 202.82
  L 264.75 203.12
  Q 263.61 203.13 263.49 204.44
  Q 263.45 204.85 263.90 206.03
  Q 269.31 220.24 274.73 234.44
  Q 275.17 235.61 275.72 236.67
  Z
  M 310.53 240.47
  A 1.04 1.04 0.0 0 0 309.49 239.43
  L 276.85 239.43
  A 1.04 1.04 0.0 0 0 275.81 240.47
  L 275.81 242.07
  A 1.04 1.04 0.0 0 0 276.85 243.11
  L 309.49 243.11
  A 1.04 1.04 0.0 0 0 310.53 242.07
  L 310.53 240.47
  Z
  M 312.04 242.99
  L 356.41 243.05
  Q 357.34 243.05 357.62 242.16
  Q 357.98 241.02 357.59 240.09
  A 1.05 1.05 0.0 0 0 356.62 239.44
  Q 335.74 239.55 315.00 239.48
  Q 314.17 239.48 313.54 239.92
  Q 311.13 238.61 312.04 242.99
  Z"
/>
<g stroke-width="2.00" fill="none" stroke-linecap="butt">
<path stroke="#a5a6a9" vector-effect="non-scaling-stroke" d="
  M 277.11 237.74
  Q 277.21 237.93 277.41 237.94
  Q 277.75 237.95 277.63 237.63
  L 265.63 205.55
  A 0.64 0.64 0.0 0 1 266.23 204.68
  L 306.23 204.71
  A 1.58 1.58 0.0 0 1 307.71 205.74
  L 319.03 236.22
  Q 319.18 236.65 319.01 237.06
  Q 318.78 237.63 319.26 237.93
  Q 319.69 238.20 319.95 237.73"
/>
<path stroke="#a5a6a9" vector-effect="non-scaling-stroke" d="
  M 320.84 236.61
  L 309.15 205.17
  A 3.61 3.61 0.0 0 0 305.75 202.82
  L 264.75 203.12
  Q 263.61 203.13 263.49 204.44
  Q 263.45 204.85 263.90 206.03
  Q 269.31 220.24 274.73 234.44
  Q 275.17 235.61 275.72 236.67"
/>
<path stroke="#a5a6a9" vector-effect="non-scaling-stroke" d="
  M 312.04 242.99
  L 356.41 243.05
  Q 357.34 243.05 357.62 242.16
  Q 357.98 241.02 357.59 240.09
  A 1.05 1.05 0.0 0 0 356.62 239.44
  Q 335.74 239.55 315.00 239.48
  Q 314.17 239.48 313.54 239.92"
/>
</g>
<path fill="#f6f5f1" d="
  M 320.84 236.61
  Q 319.61 236.84 319.95 237.73
  Q 319.69 238.20 319.26 237.93
  Q 318.78 237.63 319.01 237.06
  Q 319.18 236.65 319.03 236.22
  L 307.71 205.74
  A 1.58 1.58 0.0 0 0 306.23 204.71
  L 266.23 204.68
  A 0.64 0.64 0.0 0 0 265.63 205.55
  L 277.63 237.63
  Q 277.75 237.95 277.41 237.94
  Q 277.21 237.93 277.11 237.74
  Q 276.85 237.06 275.72 236.67
  Q 275.17 235.61 274.73 234.44
  Q 269.31 220.24 263.90 206.03
  Q 263.45 204.85 263.49 204.44
  Q 263.61 203.13 264.75 203.12
  L 305.75 202.82
  A 3.61 3.61 0.0 0 1 309.15 205.17
  L 320.84 236.61
  Z"
/>
<path fill="#f6f5f1" d="
  M 467.68 203.05
  A 0.51 0.51 0.0 0 1 468.35 202.79
  L 468.69 202.94
  A 2.42 1.24 23.8 0 1 470.40 205.05
  L 470.30 205.28
  A 2.42 1.24 23.8 0 1 467.58 205.44
  L 467.24 205.29
  A 0.51 0.51 0.0 0 1 466.98 204.62
  L 467.68 203.05
  Z"
/>
<path fill="#f6f5f1" d="
  M 306.50 205.97
  L 317.73 235.84
  A 0.31 0.31 0.0 0 1 317.44 236.26
  L 278.53 236.30
  A 0.31 0.31 0.0 0 1 278.23 236.10
  L 267.07 206.22
  A 0.31 0.31 0.0 0 1 267.36 205.80
  L 306.21 205.77
  A 0.31 0.31 0.0 0 1 306.50 205.97
  Z"
/>
<path fill="#f6f5f1" d="
  M 57.11 209.36
  Q 57.97 220.91 57.40 230.50
  Q 57.33 231.68 56.49 232.86
  Q 55.98 234.10 55.57 235.03
  Q 55.40 235.42 54.33 234.35
  Q 53.48 221.94 54.15 209.15
  L 57.11 209.36
  Z"
/>
<path fill="#1e2446" d="
  M 49.84 218.70
  A 6.13 6.13 0.0 0 1 43.71 224.83
  A 6.13 6.13 0.0 0 1 37.58 218.70
  A 6.13 6.13 0.0 0 1 43.71 212.57
  A 6.13 6.13 0.0 0 1 49.84 218.70
  Z"
/>
<path fill="#1e2446" d="
  M 73.97 218.68
  A 6.12 6.12 0.0 0 1 67.85 224.80
  A 6.12 6.12 0.0 0 1 61.73 218.68
  A 6.12 6.12 0.0 0 1 67.85 212.56
  A 6.12 6.12 0.0 0 1 73.97 218.68
  Z"
/>
<path fill="#1e2446" d="
  M 100.69 219.50
  A 6.12 6.12 0.0 0 1 94.57 225.62
  A 6.12 6.12 0.0 0 1 88.45 219.50
  A 6.12 6.12 0.0 0 1 94.57 213.38
  A 6.12 6.12 0.0 0 1 100.69 219.50
  Z"
/>
<path fill="#f6f5f1" d="
  M 500.04 217.07
  Q 498.30 219.37 495.66 218.97
  Q 495.13 218.89 495.35 218.41
  L 496.05 216.86
  A 0.49 0.49 0.0 0 1 496.68 216.60
  Q 498.13 217.16 499.70 216.61
  Q 500.63 216.29 500.04 217.07
  Z"
/>
<ellipse fill="#f6f5f1" cx="0.00" cy="0.00" transform="translate(43.20,220.29) rotate(16.5)" rx="4.75" ry="3.36"/>
<ellipse fill="#f6f5f1" cx="0.00" cy="0.00" transform="translate(67.36,220.29) rotate(16.0)" rx="4.76" ry="3.38"/>
<path fill="#f6f5f1" d="
  M 175.00 217.59
  Q 172.58 222.45 174.86 226.52
  Q 174.81 226.62 174.70 226.74
  Q 174.49 226.99 174.17 226.99
  Q 150.95 227.02 126.12 226.93
  Q 121.58 226.92 121.66 222.38
  Q 121.66 222.33 121.66 222.19
  Q 121.73 217.66 126.27 217.63
  Q 151.43 217.50 175.00 217.59
  Z"
/>
<ellipse fill="#f6f5f1" cx="0.00" cy="0.00" transform="translate(94.35,221.13) rotate(6.8)" rx="4.76" ry="3.36"/>
<path fill="#545760" fill-opacity="0.996" d="
  M 175.00 217.59
  Q 175.02 217.85 175.98 218.07
  Q 174.08 221.94 176.06 226.33
  Q 175.09 226.29 174.86 226.52
  Q 172.58 222.45 175.00 217.59
  Z"
/>
<path fill="#336aff" d="
  M 244.18 240.58
  Q 243.03 242.49 243.54 243.12
  L 229.00 243.05
  Q 227.31 232.36 227.06 221.20
  A 1.01 1.01 0.0 0 1 228.07 220.17
  L 244.20 220.17
  Q 244.93 220.17 245.22 220.85
  Q 245.71 222.00 245.44 223.45
  Q 245.12 225.12 246.82 225.12
  C 250.63 225.12 251.84 228.38 251.11 231.73
  Q 250.30 235.46 249.44 237.26
  Q 248.18 239.91 244.18 240.58
  Z
  M 245.48 237.61
  L 245.89 237.62
  Q 247.29 237.67 247.66 236.33
  L 249.39 230.12
  Q 250.04 227.75 247.68 227.11
  L 247.23 226.99
  Q 245.25 226.45 245.25 228.50
  Q 245.26 232.33 244.56 236.48
  Q 244.37 237.57 245.48 237.61
  Z"
/>
<path fill="#545760" fill-opacity="0.996" d="
  M 120.02 227.49
  Q 120.53 227.34 120.74 227.72
  A 0.71 0.71 0.0 0 1 120.59 228.58
  Q 119.87 229.22 118.67 228.61
  Q 119.65 228.12 120.02 227.49
  Z"
/>
<path fill="#f6f5f1" d="
  M 168.65 240.81
  A 0.21 0.21 0.0 0 1 168.44 241.02
  L 120.85 241.02
  A 4.90 4.60 -0.0 0 1 115.95 236.42
  L 115.95 236.10
  A 4.90 4.60 -0.0 0 1 120.85 231.50
  L 168.44 231.50
  A 0.21 0.21 0.0 0 1 168.65 231.71
  L 168.65 240.81
  Z"
/>
<path fill="#f6f5f1" d="
  M 56.84 239.32
  Q 58.00 240.98 57.29 243.21
  L 54.58 243.20
  Q 54.05 243.20 53.96 242.67
  Q 53.80 241.78 54.26 240.57
  Q 54.73 240.30 54.98 239.77
  Q 55.28 239.14 55.58 239.76
  Q 55.65 239.89 55.76 239.99
  Q 56.11 240.30 56.46 240.06
  Q 56.72 239.87 56.84 239.32
  Z"
/>
<path fill="#f6f5f1" d="
  M 312.04 242.99
  Q 313.54 240.62 313.54 239.92
  Q 314.17 239.48 315.00 239.48
  Q 335.74 239.55 356.62 239.44
  A 1.05 1.05 0.0 0 1 357.59 240.09
  Q 357.98 241.02 357.62 242.16
  Q 357.34 243.05 356.41 243.05
  L 312.04 242.99
  Z"
/>
<path fill="#f6f5f1" d="
  M 113.82 240.93
  L 116.01 242.63
  Q 116.47 242.99 115.90 243.13
  Q 114.35 243.51 112.77 243.02
  Q 113.55 242.09 113.82 240.93
  Z"
/>
<path fill="#f6f5f1" d="
  M 244.18 240.58
  Q 244.88 243.13 246.21 242.96
  L 243.54 243.12
  Q 243.03 242.49 244.18 240.58
  Z"
/>
<path fill="#f6f5f1" d="
  M 359.21 241.02
  Q 361.16 240.58 362.00 242.84
  Q 360.61 243.37 359.09 243.22
  Q 358.56 243.16 358.64 242.64
  Q 358.75 241.79 359.21 241.02
  Z"
/>
<path fill="#f6f5f1" d="
  M 173.04 244.00
  Q 173.27 243.96 173.52 244.09
  Q 173.79 244.23 174.09 244.23
  L 362.93 244.21
  Q 364.15 244.21 364.15 245.43
  L 364.20 255.82
  A 1.33 1.33 0.0 0 1 362.87 257.16
  L 338.13 257.15
  L 225.27 257.14
  L 168.54 257.06
  L 139.22 257.20
  L 50.33 257.03
  L 29.64 257.14
  A 0.86 0.85 0.3 0 1 28.78 256.28
  L 28.84 245.48
  A 1.32 1.31 -0.0 0 1 30.15 244.18
  L 173.04 244.00
  Z"
/>
<path fill="#545760" fill-opacity="0.996" d="
  M 50.33 257.03
  L 139.22 257.20
  L 124.40 257.63
  L 77.96 258.09
  A 0.96 0.95 -0.0 0 0 77.01 259.03
  Q 76.95 263.61 76.79 268.95
  Q 76.77 269.84 75.91 270.03
  A 1.25 1.25 0.0 0 0 74.95 271.50
  Q 75.84 275.69 76.89 279.59
  Q 81.96 298.47 87.00 317.29
  Q 87.18 317.97 87.88 318.05
  Q 90.92 318.40 94.44 318.04
  Q 95.18 317.97 95.23 317.23
  Q 95.29 316.53 95.55 315.90
  Q 95.75 315.44 96.25 315.34
  C 99.21 314.79 102.18 315.70 105.20 315.17
  A 1.19 1.19 0.0 0 0 106.19 314.05
  C 106.28 311.92 106.15 309.96 106.74 307.85
  Q 108.70 300.83 114.74 297.81
  Q 119.86 295.25 124.87 296.90
  Q 130.75 298.84 133.59 304.08
  C 135.11 306.87 135.54 310.50 135.88 313.69
  A 0.74 0.74 0.0 0 0 136.59 314.35
  L 145.50 314.63
  Q 146.76 314.67 146.68 315.93
  Q 146.53 318.19 148.66 318.20
  Q 158.21 318.26 169.10 318.25
  Q 170.25 318.25 170.61 319.34
  Q 170.91 320.25 170.91 321.20
  Q 170.91 355.77 170.93 388.69
  Q 170.93 390.39 170.69 392.21
  Q 170.61 392.87 169.94 392.87
  L 73.22 392.91
  A 1.48 1.48 0.0 0 1 71.74 391.43
  Q 71.71 358.09 71.72 323.66
  Q 71.72 321.49 72.50 319.04
  Q 72.67 318.49 73.25 318.46
  L 78.49 318.20
  A 0.73 0.73 0.0 0 0 79.19 317.40
  Q 79.09 316.29 78.84 315.27
  Q 74.38 296.75 68.95 278.50
  Q 68.75 276.33 67.76 274.67
  Q 67.47 274.18 67.30 274.73
  L 66.06 278.70
  L 36.25 389.37
  Q 35.81 391.03 34.10 390.83
  Q 32.27 390.62 30.37 389.95
  Q 28.88 389.43 29.29 387.90
  Q 44.91 329.49 59.99 273.25
  Q 60.65 270.77 58.96 269.52
  Q 58.43 269.12 58.41 268.46
  L 58.19 259.19
  A 1.22 1.22 0.0 0 0 57.01 258.00
  L 48.92 257.70
  Q 50.14 257.35 50.33 257.03
  Z
  M 106.11 316.18
  Q 104.70 315.58 103.11 316.38
  Q 100.32 315.49 97.21 316.07
  A 0.93 0.92 85.1 0 0 96.46 316.97
  Q 96.45 317.45 96.71 317.74
  Q 96.91 317.97 97.38 317.99
  Q 101.42 318.17 105.23 317.62
  Q 108.33 318.26 108.97 316.02
  Q 109.86 314.64 109.78 313.98
  Q 108.91 306.68 113.39 302.70
  C 119.59 297.20 128.54 299.84 131.43 307.45
  C 132.71 310.84 130.42 316.02 134.90 317.57
  Q 140.26 318.62 145.56 317.64
  Q 146.11 317.53 146.07 316.97
  L 146.00 316.08
  Q 145.96 315.51 145.40 315.41
  Q 140.24 314.53 135.29 315.65
  C 134.74 314.84 134.23 313.91 134.28 312.85
  C 134.61 305.96 131.84 300.29 125.02 297.84
  Q 120.08 296.06 114.88 298.60
  Q 108.30 301.82 107.62 309.52
  Q 107.40 312.06 107.40 314.63
  Q 107.40 315.71 106.11 316.18
  Z
  M 131.17 314.80
  C 131.01 309.86 131.01 305.70 126.46 302.62
  C 120.21 298.41 110.38 302.64 110.74 310.83
  Q 110.85 313.30 110.55 315.37
  Q 110.44 316.14 109.82 316.63
  Q 109.38 316.99 109.60 317.52
  Q 109.88 318.19 110.62 318.20
  Q 120.26 318.33 130.98 318.19
  Q 133.50 318.15 131.79 316.32
  Q 131.20 315.69 131.17 314.80
  Z"
/>
<g stroke-width="2.00" fill="none" stroke-linecap="butt">
<path stroke="#a5a6a9" vector-effect="non-scaling-stroke" d="
  M 103.11 316.38
  Q 100.32 315.49 97.21 316.07
  A 0.93 0.92 85.1 0 0 96.46 316.97
  Q 96.45 317.45 96.71 317.74
  Q 96.91 317.97 97.38 317.99
  Q 101.42 318.17 105.23 317.62"
/>
<path stroke="#a5a6a9" vector-effect="non-scaling-stroke" d="
  M 108.97 316.02
  Q 109.86 314.64 109.78 313.98
  Q 108.91 306.68 113.39 302.70
  C 119.59 297.20 128.54 299.84 131.43 307.45
  C 132.71 310.84 130.42 316.02 134.90 317.57"
/>
<path stroke="#a5a6a9" vector-effect="non-scaling-stroke" d="
  M 135.29 315.65
  C 134.74 314.84 134.23 313.91 134.28 312.85
  C 134.61 305.96 131.84 300.29 125.02 297.84
  Q 120.08 296.06 114.88 298.60
  Q 108.30 301.82 107.62 309.52
  Q 107.40 312.06 107.40 314.63
  Q 107.40 315.71 106.11 316.18"
/>
</g>
<path fill="#1e2446" d="
  M 168.54 257.06
  Q 169.35 257.29 169.04 257.71
  L 124.40 257.63
  L 139.22 257.20
  L 168.54 257.06
  Z"
/>
<path fill="#545760" fill-opacity="0.996" d="
  M 168.54 257.06
  L 225.27 257.14
  Q 215.64 257.23 206.00 257.19
  Q 204.83 257.18 205.73 257.58
  Q 205.97 257.68 206.46 257.72
  L 169.04 257.71
  Q 169.35 257.29 168.54 257.06
  Z"
/>
<rect fill="#f6f5f1" x="-8.56" y="-3.96" transform="translate(67.58,265.21) rotate(0.1)" width="17.12" height="7.92" rx="0.80"/>
<rect fill="#f6f5f1" x="-8.57" y="-4.00" transform="translate(326.46,265.25) rotate(0.1)" width="17.14" height="8.00" rx="0.90"/>
<path fill="#f6f5f1" d="
  M 54.09 318.77
  Q 53.38 321.83 52.56 324.88
  Q 43.96 357.02 35.39 389.15
  Q 35.03 390.49 33.70 390.09
  L 31.19 389.33
  Q 29.96 388.96 30.29 387.72
  L 61.60 270.96
  A 1.02 1.01 7.4 0 1 62.58 270.21
  L 72.49 270.13
  A 1.20 1.20 0.0 0 1 73.65 271.02
  L 85.99 317.32
  Q 86.17 318.00 85.47 318.00
  L 81.54 318.04
  Q 80.72 318.05 80.51 317.25
  Q 74.49 294.73 68.28 272.25
  Q 68.13 271.70 67.83 271.39
  A 0.47 0.47 0.0 0 0 67.04 271.60
  Q 61.92 290.25 56.91 308.99
  Q 55.43 314.52 54.42 318.86
  Q 54.29 319.39 54.31 318.84
  Q 54.32 318.76 54.26 318.71
  Q 54.13 318.60 54.09 318.77
  Z"
/>
<path fill="#f6f5f1" d="
  M 348.17 329.47
  L 352.06 343.26
  L 364.19 388.36
  Q 364.35 388.94 363.77 389.09
  L 359.55 390.20
  Q 358.92 390.36 358.75 389.73
  L 355.76 378.51
  L 349.04 353.28
  Q 339.59 318.84 330.42 284.33
  C 329.31 280.15 328.87 276.06 327.03 272.05
  Q 326.26 270.36 325.77 272.15
  Q 319.17 296.32 312.77 320.37
  Q 303.75 354.29 294.19 389.50
  Q 294.08 389.89 293.48 390.27
  L 289.59 389.04
  Q 288.70 388.75 288.94 387.85
  L 320.48 270.82
  A 0.88 0.88 0.0 0 1 321.33 270.16
  L 331.50 270.14
  Q 332.17 270.14 332.34 270.79
  L 348.17 329.47
  Z"
/>
<path fill="#1e2446" d="
  M 349.04 353.28
  L 348.90 355.72
  L 341.43 328.62
  Q 341.00 327.04 339.75 328.12
  C 332.12 334.77 325.55 342.27 318.50 350.18
  Q 317.34 351.48 316.42 352.83
  Q 316.14 353.24 316.32 353.70
  Q 316.93 355.24 316.42 357.44
  Q 315.20 362.60 314.00 367.28
  C 313.62 368.78 314.25 370.57 313.33 371.81
  C 309.96 376.34 305.56 374.04 301.35 372.43
  Q 299.94 371.90 299.52 373.35
  L 294.69 390.50
  Q 294.76 390.13 293.48 390.27
  Q 294.08 389.89 294.19 389.50
  Q 303.75 354.29 312.77 320.37
  Q 319.17 296.32 325.77 272.15
  Q 326.26 270.36 327.03 272.05
  C 328.87 276.06 329.31 280.15 330.42 284.33
  Q 339.59 318.84 349.04 353.28
  Z
  M 315.17 316.88
  Q 314.22 317.08 314.04 317.99
  Q 313.93 318.54 314.49 318.47
  Q 315.84 318.30 315.82 316.99
  L 331.86 294.14
  Q 332.22 293.63 332.05 293.02
  L 326.93 274.77
  Q 326.61 273.62 326.23 274.75
  Q 324.10 281.28 322.21 288.44
  Q 318.58 302.15 315.08 315.76
  Q 314.89 316.50 315.17 316.88
  Z"
/>
<path stroke="#393d53" stroke-width="2.00" fill="none" stroke-linecap="butt" vector-effect="non-scaling-stroke" d="
  M 315.17 316.88
  Q 314.22 317.08 314.04 317.99
  Q 313.93 318.54 314.49 318.47
  Q 315.84 318.30 315.82 316.99"
/>
<path fill="#f6f5f1" d="
  M 68.95 278.50
  Q 67.65 279.41 66.06 278.70
  L 67.30 274.73
  Q 67.47 274.18 67.76 274.67
  Q 68.75 276.33 68.95 278.50
  Z"
/>
<path fill="#f6f5f1" d="
  M 464.51 322.12
  C 468.64 321.09 470.79 317.39 470.76 313.18
  Q 470.70 305.85 470.78 298.32
  A 1.82 1.82 0.0 0 1 471.35 297.02
  L 480.81 288.06
  Q 482.23 286.72 481.51 288.54
  C 480.26 291.68 478.80 294.46 478.80 297.99
  Q 478.81 305.05 478.88 311.81
  C 478.98 320.22 475.54 327.01 467.45 329.73
  C 463.50 331.06 458.29 330.67 453.93 330.60
  Q 452.74 330.58 453.16 329.47
  L 455.40 323.43
  A 1.63 1.63 0.0 0 1 457.08 322.38
  Q 461.56 322.85 464.51 322.12
  Z"
/>
<path fill="#f6f5f1" d="
  M 135.29 315.65
  Q 135.34 316.52 134.90 317.57
  C 130.42 316.02 132.71 310.84 131.43 307.45
  C 128.54 299.84 119.59 297.20 113.39 302.70
  Q 108.91 306.68 109.78 313.98
  Q 109.86 314.64 108.97 316.02
  L 105.23 317.62
  Q 101.42 318.17 97.38 317.99
  Q 96.91 317.97 96.71 317.74
  Q 96.45 317.45 96.46 316.97
  A 0.93 0.92 85.1 0 1 97.21 316.07
  Q 100.32 315.49 103.11 316.38
  Q 104.52 317.12 106.11 316.18
  Q 107.40 315.71 107.40 314.63
  Q 107.40 312.06 107.62 309.52
  Q 108.30 301.82 114.88 298.60
  Q 120.08 296.06 125.02 297.84
  C 131.84 300.29 134.61 305.96 134.28 312.85
  C 134.23 313.91 134.74 314.84 135.29 315.65
  Z"
/>
<path fill="#f6f5f1" d="
  M 375.18 301.84
  C 373.52 300.89 370.01 301.09 367.99 301.21
  C 364.04 301.44 362.40 304.49 359.97 307.09
  Q 359.34 307.76 359.29 306.84
  Q 359.25 306.19 359.89 305.64
  Q 360.53 305.08 361.00 304.43
  C 363.92 300.44 367.15 299.87 372.06 300.23
  Q 374.73 300.43 378.12 302.37
  Q 385.44 306.55 391.86 310.32
  A 0.46 0.46 0.0 0 1 392.03 310.95
  L 391.88 311.20
  Q 391.79 311.36 391.62 311.27
  Q 383.70 306.70 375.18 301.84
  Z"
/>
<path fill="#f6f5f1" d="
  M 449.35 330.39
  Q 449.43 330.01 449.41 329.62
  Q 449.40 329.23 449.54 328.87
  Q 451.17 324.52 452.58 320.05
  C 453.58 316.86 455.94 314.60 456.78 311.27
  C 457.00 310.39 457.65 309.50 458.46 309.07
  Q 459.69 308.43 459.21 309.73
  Q 455.89 318.76 452.25 328.93
  C 451.96 329.75 452.03 330.34 452.03 331.17
  A 1.18 1.18 0.0 0 1 450.41 332.26
  Q 449.09 331.74 449.35 330.39
  Z"
/>
<path fill="#545760" fill-opacity="0.996" d="
  M 315.17 316.88
  Q 315.45 317.07 315.82 316.99
  Q 315.84 318.30 314.49 318.47
  Q 313.93 318.54 314.04 317.99
  Q 314.22 317.08 315.17 316.88
  Z"
/>
<path fill="#f6f5f1" d="
  M 73.64 319.27
  L 168.91 319.28
  A 0.89 0.89 0.0 0 1 169.80 320.17
  L 169.91 391.12
  A 0.89 0.89 0.0 0 1 169.02 392.01
  L 73.48 392.04
  A 0.89 0.89 0.0 0 1 72.59 391.15
  L 72.75 320.16
  A 0.89 0.89 0.0 0 1 73.64 319.27
  Z"
/>
<path fill="#f6f5f1" d="
  M 451.69 319.97
  L 451.00 321.08
  Q 450.79 321.43 450.38 321.42
  L 447.84 321.37
  A 0.16 0.16 0.0 0 1 447.78 321.06
  L 451.24 319.46
  Q 452.32 318.97 451.69 319.97
  Z"
/>
<path fill="#f6f5f1" d="
  M 457.04 319.19
  Q 457.49 319.92 458.38 319.89
  Q 459.00 319.87 459.27 320.86
  Q 458.19 321.63 456.81 321.31
  Q 456.28 321.18 456.32 320.65
  Q 456.38 319.80 457.04 319.19
  Z"
/>
<path fill="#f6f5f1" d="
  M 387.91 323.92
  Q 388.37 322.68 387.14 322.27
  Q 388.03 321.82 388.69 322.19
  Q 389.18 322.46 388.93 322.95
  Q 388.63 323.56 387.91 323.92
  Z"
/>
<rect fill="#f6f5f1" x="-1.28" y="-5.19" transform="translate(419.48,327.26) rotate(-13.0)" width="2.56" height="10.38" rx="0.62"/>
<path fill="#f6f5f1" d="
  M 392.70 330.57
  C 386.82 330.50 387.28 322.54 392.50 322.51
  Q 404.45 322.44 415.50 322.50
  Q 415.78 322.50 415.85 322.76
  L 417.88 330.23
  Q 417.96 330.52 417.66 330.53
  Q 406.17 330.73 392.70 330.57
  Z"
/>
<path fill="#f6f5f1" d="
  M 422.87 330.39
  L 420.83 322.97
  A 0.38 0.38 0.0 0 1 421.20 322.49
  L 450.00 322.47
  A 0.38 0.38 0.0 0 1 450.36 322.97
  L 447.86 330.42
  A 0.38 0.38 0.0 0 1 447.50 330.68
  L 423.24 330.67
  A 0.38 0.38 0.0 0 1 422.87 330.39
  Z"
/>
<path fill="#545760" fill-opacity="0.996" d="
  M 348.17 329.47
  Q 348.71 329.28 349.18 329.46
  L 350.35 332.42
  Q 350.41 335.93 352.19 338.02
  Q 353.30 340.31 352.06 343.26
  L 348.17 329.47
  Z"
/>
<path fill="#f6f5f1" d="
  M 351.33 330.01
  L 352.19 338.02
  Q 350.41 335.93 350.35 332.42
  Q 351.43 332.56 351.33 330.01
  Z"
/>
<path fill="#f6f5f1" d="
  M 432.11 380.55
  L 432.11 335.49
  A 0.69 0.69 0.0 0 1 432.80 334.80
  L 438.17 334.79
  A 0.69 0.69 0.0 0 1 438.86 335.48
  L 438.90 380.85
  A 0.69 0.69 0.0 0 1 438.17 381.54
  L 432.76 381.24
  A 0.69 0.69 0.0 0 1 432.11 380.55
  Z"
/>
<path fill="#f6f5f1" d="
  M 288.59 348.87
  Q 292.69 347.82 297.31 343.78
  A 1.22 1.22 0.0 0 1 298.96 343.81
  Q 299.69 344.51 299.36 345.55
  Q 299.14 346.23 298.96 346.91
  Q 296.88 354.90 294.67 362.71
  A 0.64 0.63 -10.5 0 1 294.43 363.05
  Q 294.03 363.35 293.71 363.20
  Q 283.38 358.44 272.40 353.39
  Q 270.16 352.36 269.52 349.72
  Q 269.41 349.27 269.54 348.85
  Q 270.61 345.45 274.32 346.87
  Q 283.15 350.26 288.59 348.87
  Z"
/>
<path fill="#545760" fill-opacity="0.996" d="
  M 349.04 353.28
  L 355.76 378.51
  Q 355.54 378.66 355.03 378.46
  L 348.90 355.72
  L 349.04 353.28
  Z"
/>
<path fill="#f6f5f1" d="
  M 315.90 355.28
  L 312.85 368.04
  Q 312.71 368.61 312.17 368.37
  L 303.01 364.20
  Q 302.16 363.81 302.39 362.90
  L 304.11 356.24
  Q 304.44 354.98 305.57 355.63
  C 308.28 357.17 312.07 355.64 314.74 354.46
  Q 315.11 354.30 315.47 354.45
  Q 316.04 354.68 315.90 355.28
  Z"
/>
<rect fill="#1e2446" x="114.56" y="361.61" width="13.54" height="8.22" rx="0.81"/>
<rect fill="#1e2446" x="114.59" y="372.55" width="13.46" height="3.28" rx="0.27"/>
<path fill="#545760" fill-opacity="0.996" d="
  M 419.86 382.37
  Q 417.84 383.91 414.59 384.40
  Q 414.41 383.61 411.78 383.88
  Q 414.67 383.82 414.17 382.86
  Q 416.86 382.03 419.86 382.37
  Z"
/>
<path fill="#f6f5f1" d="
  M 492.17 393.29
  A 0.56 0.56 0.0 0 0 491.79 392.90
  Q 463.52 385.15 435.14 385.21
  Q 419.04 385.25 402.96 392.51
  Q 402.36 392.78 402.37 393.44
  L 402.44 397.10
  Q 402.46 398.16 401.40 398.19
  L 400.96 398.20
  Q 399.70 398.23 399.73 396.96
  L 399.85 391.83
  A 1.12 1.10 -12.9 0 1 400.46 390.88
  Q 416.80 382.74 435.44 382.76
  Q 465.11 382.78 494.18 390.84
  A 1.16 1.16 0.0 0 1 495.03 391.93
  L 495.11 397.13
  Q 495.12 398.13 494.12 398.11
  L 493.18 398.09
  Q 492.29 398.08 492.40 397.20
  Q 492.65 395.20 492.17 393.29
  Z"
/>
<path fill="#f6f5f1" d="
  M 411.78 383.88
  Q 414.41 383.61 414.59 384.40
  C 410.23 385.68 406.12 387.30 401.65 387.94
  Q 389.69 389.66 379.30 392.65
  A 0.59 0.59 0.0 0 1 378.55 392.17
  Q 378.28 390.22 380.25 389.71
  Q 395.83 385.76 411.78 383.88
  Z"
/>
<path fill="#f6f5f1" d="
  M 398.81 393.00
  L 397.99 389.90
  Q 399.13 388.93 400.92 389.09
  Q 401.67 389.15 400.97 389.42
  L 399.98 389.80
  Q 399.47 390.00 399.27 390.50
  Q 398.80 391.61 398.81 393.00
  Z"
/>
<path fill="#f6f5f1" d="
  M 362.02 401.77
  C 369.35 404.77 372.76 405.72 378.27 399.04
  A 0.87 0.87 0.0 0 1 379.79 399.43
  L 382.28 412.17
  A 0.59 0.58 84.8 0 1 381.70 412.87
  Q 376.28 412.78 370.45 412.83
  Q 366.66 412.85 363.65 415.44
  A 1.27 1.26 -65.7 0 1 362.81 415.76
  Q 348.64 415.76 339.21 415.75
  C 334.89 415.75 332.40 409.67 338.22 409.07
  Q 342.06 408.67 345.70 407.93
  C 351.74 406.71 355.54 402.25 357.81 396.74
  Q 358.37 395.38 359.66 396.09
  L 361.15 396.92
  Q 362.67 397.77 362.05 399.38
  L 361.55 400.69
  Q 361.26 401.46 362.02 401.77
  Z"
/>
<circle fill="#f6f5f1" cx="403.63" cy="405.32" r="4.47"/>
<path fill="#f6f5f1" d="
  M 495.10 407.67
  C 494.21 411.28 489.83 409.80 488.26 407.53
  C 485.94 404.18 489.57 399.94 493.15 400.93
  C 495.41 401.56 498.16 405.03 495.54 407.01
  Q 495.20 407.26 495.10 407.67
  Z"
/>
<path fill="#f6f5f1" d="
  M 383.49 406.95
  Q 383.23 407.34 383.26 407.44
  Q 381.57 405.65 381.51 403.19
  Q 381.49 402.18 382.06 403.01
  Q 382.90 404.23 382.81 405.74
  Q 382.80 406.09 382.95 406.38
  Q 383.13 406.72 383.49 406.95
  Z"
/>
</svg>
