<svg width="309.3" height="101.1" viewBox="0 0 309.3 101.1" xmlns="http://www.w3.org/2000/svg"><g id="svgGroup" stroke-linecap="round" fill-rule="evenodd" font-size="9pt" stroke="#000" stroke-width="0.25mm" fill="#000" style="stroke:#000;stroke-width:0.25mm;fill:#000"><path d="M 304.3 39 L 304.3 73.4 L 309.3 73.4 L 309.3 75 L 280.3 75 L 280.3 73.4 L 284.3 73.4 L 284.3 43.3 Q 284.3 37.7 282.85 35.3 A 4.717 4.717 0 0 0 279.448 32.992 A 6.897 6.897 0 0 0 278.3 32.9 A 11.57 11.57 0 0 0 275.683 33.219 Q 274.079 33.591 272.3 34.4 L 272.3 73.4 L 276.3 73.4 L 276.3 75 L 247.3 75 L 247.3 73.4 L 252.3 73.4 L 252.3 13.9 L 246.6 9 L 272.3 0 L 272.3 33 A 85.458 85.458 0 0 1 275.935 30.006 Q 280.338 26.594 283.5 25.3 Q 287.9 23.5 291.4 23.5 A 15.997 15.997 0 0 1 295.294 23.946 A 10.569 10.569 0 0 1 301 27.45 Q 304.3 31.4 304.3 39 Z M 126.3 30.9 L 118.6 26 L 138 26 L 131.3 30.9 L 109.6 75 L 97.7 101.1 L 78.7 87.8 L 107.8 74.5 L 84.2 30.9 L 77.4 26 L 112.5 26 L 105.8 30.9 L 116.9 57.2 L 126.3 30.9 Z M 41.1 1 L 72.8 73.4 L 77.4 73.4 L 77.4 75 L 40.6 75 L 40.6 73.4 L 48.8 73.4 L 40.9 54.6 L 17.9 54.6 L 11.8 73.4 L 22.1 73.4 L 22.1 75 L 0 75 L 0 73.4 L 4.1 73.4 L 35.9 1 L 41.1 1 Z M 193.5 23.1 L 193.5 73.4 L 198.5 73.4 L 198.5 75 L 173.5 75 L 173.5 67.3 A 168.669 168.669 0 0 1 169.944 69.809 Q 166.683 72.043 164.367 73.343 A 26.789 26.789 0 0 1 162.2 74.45 Q 159.378 75.708 157.021 76.007 A 11.308 11.308 0 0 1 155.6 76.1 A 17.237 17.237 0 0 1 151.851 75.719 Q 149.508 75.197 147.794 73.957 A 9.387 9.387 0 0 1 145.8 72 Q 142.7 67.9 142.7 59 L 142.7 37.5 L 137 32.6 L 162.7 23.6 L 162.7 55 A 62.532 62.532 0 0 0 162.767 58.003 Q 162.97 62.204 163.791 64.129 A 5.933 5.933 0 0 0 163.8 64.15 Q 164.9 66.7 168.4 66.7 A 12.47 12.47 0 0 0 170.666 66.48 Q 171.76 66.278 172.947 65.889 A 21.946 21.946 0 0 0 173.5 65.7 L 173.5 37 L 167.8 32.1 L 193.5 23.1 Z M 202.8 73.4 L 205.9 57.1 L 206 57.1 L 218.4 73.7 Q 220.2 74.2 221.7 74.2 A 10.459 10.459 0 0 0 223.999 73.961 Q 225.769 73.563 227.05 72.5 A 5.554 5.554 0 0 0 229.05 68.706 A 7.959 7.959 0 0 0 229.1 67.8 A 5.497 5.497 0 0 0 228.669 65.7 A 7.319 7.319 0 0 0 228.1 64.6 A 4.782 4.782 0 0 0 227.357 63.715 Q 226.038 62.442 223.1 60.9 L 216.5 57.4 A 39.619 39.619 0 0 1 212.559 55.054 Q 209.169 52.742 207.2 50.15 A 14.71 14.71 0 0 1 204.281 42.463 A 18.867 18.867 0 0 1 204.2 40.7 A 16.032 16.032 0 0 1 205.3 34.658 A 14.687 14.687 0 0 1 210 28.55 A 20.007 20.007 0 0 1 217.071 25.068 Q 220.905 24 225.7 24 Q 234.4 24 242.3 26.9 L 238.4 42.7 L 238.3 42.7 L 226.7 26.2 A 3.47 3.47 0 0 0 225.978 25.985 Q 225.629 25.919 225.228 25.904 A 6.327 6.327 0 0 0 225 25.9 A 10.006 10.006 0 0 0 223.07 26.075 Q 221.923 26.3 221.03 26.817 A 5.4 5.4 0 0 0 220.15 27.45 A 5.386 5.386 0 0 0 218.954 28.931 A 4.723 4.723 0 0 0 218.4 31.2 Q 218.4 33.9 220.05 36 Q 221.54 37.897 225.112 39.876 A 38.248 38.248 0 0 0 225.9 40.3 L 233.4 44.3 A 26.642 26.642 0 0 1 237.403 46.873 Q 239.681 48.662 241.2 50.8 Q 243.9 54.6 243.9 59.2 Q 243.9 62.9 242.1 66.05 A 16.799 16.799 0 0 1 237.562 71.147 A 19.47 19.47 0 0 1 237.15 71.45 A 21.809 21.809 0 0 1 232.079 74.116 A 26.49 26.49 0 0 1 229.8 74.85 Q 225.6 76 221.1 76 A 63.803 63.803 0 0 1 203.618 73.638 A 60.05 60.05 0 0 1 202.8 73.4 Z M 27.8 23.8 L 18.4 52.8 L 40.1 52.8 L 27.8 23.8 Z" vector-effect="non-scaling-stroke"/></g></svg>