<?xml version="1.0" encoding="UTF-8" standalone="no"?>
<!DOCTYPE svg PUBLIC "-//W3C//DTD SVG 1.1//EN" "http://www.w3.org/Graphics/SVG/1.1/DTD/svg11.dtd">
<svg xmlns="http://www.w3.org/2000/svg" version="1.1" viewBox="0.00 0.00 540.00 462.00">
<path fill="#ebe5ff" d="
  M 357.03 204.14
  Q 357.51 204.47 357.75 204.43
  Q 360.64 211.41 366.40 216.14
  C 367.07 216.69 367.13 217.19 367.33 217.97
  L 367.29 221.12
  L 367.19 225.98
  Q 366.62 226.41 365.50 226.38
  A 1.18 1.17 -88.1 0 0 364.29 227.52
  L 363.97 236.58
  A 2.13 2.13 0.0 0 1 361.92 238.63
  C 351.01 238.98 339.10 238.55 332.94 249.49
  Q 330.86 253.18 329.09 256.83
  Q 315.81 284.19 306.40 311.66
  Q 299.18 308.68 293.50 308.27
  Q 289.57 307.98 286.00 309.17
  Q 282.64 305.71 282.57 303.75
  Q 282.38 298.67 282.11 293.40
  L 282.27 288.93
  Q 282.63 288.81 282.95 288.05
  A 1.87 1.85 -7.7 0 1 283.53 287.30
  Q 291.32 281.38 292.32 271.41
  A 1.48 1.47 0.9 0 1 293.70 270.08
  C 299.72 269.70 305.76 263.55 301.85 257.44
  Q 300.32 255.06 296.20 255.60
  C 300.12 251.12 298.34 248.77 297.04 244.26
  Q 296.91 243.81 297.17 243.42
  Q 300.05 239.20 300.32 234.00
  C 300.70 226.97 294.91 225.23 289.23 224.86
  Q 275.58 223.96 265.14 227.57
  A 0.44 0.43 -16.2 0 1 264.57 227.26
  L 264.04 225.06
  A 1.52 1.51 71.4 0 0 261.96 224.02
  C 257.64 225.91 254.24 231.10 251.42 234.91
  Q 250.35 236.35 245.38 240.41
  Q 237.71 216.42 230.14 200.68
  Q 229.49 199.34 226.72 195.53
  Q 224.88 193.00 223.62 190.22
  Q 220.75 183.93 217.61 177.81
  Q 217.60 174.74 213.30 174.10
  C 210.51 158.98 199.08 149.94 183.89 150.41
  Q 170.82 150.81 162.28 161.76
  Q 157.03 168.51 156.52 178.96
  C 153.91 181.67 153.37 184.65 155.09 187.94
  Q 155.94 189.58 156.65 190.86
  Q 157.35 198.15 159.89 204.29
  Q 160.13 204.87 159.98 205.48
  C 159.03 209.54 157.41 214.67 159.10 219.04
  Q 159.53 220.14 159.29 221.01
  Q 157.78 226.41 158.63 231.91
  Q 148.14 233.68 139.44 240.44
  Q 130.00 247.76 100.67 269.33
  Q 97.61 266.18 97.07 265.18
  Q 90.68 253.40 86.50 243.25
  Q 82.63 233.86 81.33 225.97
  Q 80.84 222.99 80.43 220.37
  C 79.98 217.43 79.74 214.10 80.21 211.28
  C 80.70 208.38 81.03 205.52 81.64 202.66
  Q 85.37 185.21 97.47 168.70
  C 113.47 146.87 133.31 127.82 157.10 116.40
  Q 179.09 105.85 201.93 109.33
  C 221.62 112.32 240.45 125.19 254.94 138.79
  Q 271.69 154.51 287.59 170.13
  Q 293.43 175.87 302.40 182.60
  Q 311.06 189.09 318.43 192.82
  Q 332.99 200.20 348.13 203.04
  Q 349.83 203.36 351.56 203.93
  C 353.31 204.49 355.83 205.62 357.03 204.14
  Z"
/>
<path fill="#7249fd" d="
  M 286.97 148.54
  Q 288.42 147.82 289.44 146.68
  Q 295.36 140.13 301.49 133.67
  Q 301.91 133.23 302.37 133.61
  L 309.30 139.31
  A 1.81 1.81 0.0 0 0 311.61 139.30
  L 318.47 133.57
  A 0.76 0.76 0.0 0 1 319.52 133.64
  L 332.60 147.81
  A 0.49 0.48 -42.9 0 0 333.29 147.83
  L 333.52 147.62
  Q 333.68 147.46 333.53 147.30
  L 320.36 132.89
  Q 319.22 131.64 317.93 132.73
  L 311.49 138.13
  A 1.39 1.37 -45.3 0 1 309.73 138.15
  L 288.39 120.72
  Q 288.20 120.57 288.04 120.75
  L 287.85 120.96
  A 0.56 0.56 0.0 0 0 287.91 121.77
  L 300.40 131.85
  A 0.99 0.98 -49.1 0 1 300.50 133.28
  L 286.59 148.18
  L 286.62 120.57
  A 1.73 1.72 -89.8 0 1 288.34 118.85
  L 331.83 118.86
  Q 334.56 118.86 334.56 121.58
  L 334.55 147.65
  A 2.08 2.08 0.0 0 1 332.47 149.73
  Q 311.19 149.76 289.75 150.09
  Q 287.71 150.12 286.97 148.54
  Z"
/>
<rect fill="#ebe5ff" x="-8.46" y="-0.49" transform="translate(326.77,126.05) rotate(-39.8)" width="16.92" height="0.98" rx="0.45"/>
<path fill="#ebe5ff" d="
  M 286.97 148.54
  Q 286.56 147.07 286.59 148.18
  L 300.50 133.28
  A 0.99 0.98 -49.1 0 0 300.40 131.85
  L 287.91 121.77
  A 0.56 0.56 0.0 0 1 287.85 120.96
  L 288.04 120.75
  Q 288.20 120.57 288.39 120.72
  L 309.73 138.15
  A 1.39 1.37 -45.3 0 0 311.49 138.13
  L 317.93 132.73
  Q 319.22 131.64 320.36 132.89
  L 333.53 147.30
  Q 333.68 147.46 333.52 147.62
  L 333.29 147.83
  A 0.49 0.48 -42.9 0 1 332.60 147.81
  L 319.52 133.64
  A 0.76 0.76 0.0 0 0 318.47 133.57
  L 311.61 139.30
  A 1.81 1.81 0.0 0 1 309.30 139.31
  L 302.37 133.61
  Q 301.91 133.23 301.49 133.67
  Q 295.36 140.13 289.44 146.68
  Q 288.42 147.82 286.97 148.54
  Z"
/>
<path fill="#f8b039" d="
  M 404.13 204.94
  Q 403.83 204.70 402.19 205.34
  Q 404.89 194.44 403.46 184.63
  C 401.76 171.72 391.53 162.85 379.46 159.73
  C 378.22 159.41 376.30 158.50 375.16 159.18
  Q 362.29 166.83 358.01 180.97
  Q 357.39 183.02 356.96 186.98
  Q 355.85 195.64 357.75 204.43
  Q 357.51 204.47 357.03 204.14
  C 356.74 203.62 356.46 203.03 355.98 202.64
  Q 351.47 198.89 347.42 194.21
  C 343.95 190.20 342.60 185.85 343.39 180.50
  C 345.65 165.26 354.80 152.95 368.22 145.33
  C 374.78 141.61 382.79 143.41 388.72 147.31
  Q 392.68 149.91 396.99 152.14
  Q 401.56 154.49 405.71 160.00
  Q 412.49 169.01 414.81 179.52
  Q 416.25 186.05 415.08 190.43
  Q 413.40 196.72 408.51 200.99
  Q 406.38 202.85 404.13 204.94
  Z"
/>
<path fill="#0b324b" d="
  M 213.30 174.10
  L 211.05 177.63
  Q 207.43 181.34 206.02 185.09
  Q 205.40 186.73 204.71 185.11
  L 203.65 182.64
  A 2.90 2.90 0.0 0 0 200.59 180.91
  Q 199.78 181.02 198.98 180.83
  Q 198.36 180.69 197.96 180.20
  C 196.31 178.21 194.05 178.73 191.79 178.80
  Q 191.25 178.82 191.23 178.27
  L 191.22 177.74
  A 1.15 1.15 0.0 0 1 192.34 176.57
  L 195.06 176.48
  A 0.44 0.44 0.0 0 0 195.39 175.77
  Q 192.10 171.55 189.63 166.67
  A 0.40 0.40 0.0 0 0 188.90 166.72
  Q 186.99 172.61 181.19 175.84
  Q 180.48 176.24 180.80 176.99
  L 181.22 177.96
  Q 181.83 179.38 180.34 178.97
  Q 176.19 177.83 174.18 180.64
  Q 173.92 181.02 173.46 180.97
  Q 173.11 180.93 172.81 180.73
  C 170.87 179.48 167.65 180.85 166.92 182.99
  Q 166.63 183.84 166.33 184.67
  Q 165.74 186.35 164.99 184.74
  L 162.39 179.16
  A 2.17 2.17 0.0 0 0 159.80 177.99
  L 156.52 178.96
  Q 157.03 168.51 162.28 161.76
  Q 170.82 150.81 183.89 150.41
  C 199.08 149.94 210.51 158.98 213.30 174.10
  Z"
/>
<path fill="#7249fd" d="
  M 82.21 156.18
  Q 84.03 160.41 80.32 163.95
  Q 80.01 164.25 79.98 164.69
  C 79.86 166.41 80.07 167.94 79.30 169.57
  C 76.28 176.03 65.87 173.79 67.00 165.86
  C 67.35 163.35 69.61 162.09 69.19 159.44
  Q 68.92 157.75 69.65 156.00
  C 72.04 150.24 79.91 150.85 82.21 156.18
  Z
  M 72.52 160.23
  C 74.46 159.53 77.32 161.53 78.68 162.76
  A 0.83 0.83 0.0 0 0 79.85 162.69
  C 82.50 159.64 81.84 155.17 78.14 153.29
  C 74.27 151.32 70.76 154.72 69.68 158.20
  A 1.76 1.75 -86.0 0 0 71.64 160.46
  Q 72.08 160.39 72.52 160.23
  Z"
/>
<path fill="#605c32" d="
  M 406.11 169.98
  Q 401.47 160.62 391.32 155.54
  A 0.56 0.56 0.0 0 1 391.02 155.10
  L 390.98 154.66
  A 0.26 0.26 0.0 0 1 391.34 154.40
  C 398.90 157.69 406.27 164.49 408.31 172.70
  Q 408.39 172.99 408.22 173.24
  Q 408.15 173.35 408.01 173.40
  Q 407.80 173.47 407.70 173.26
  Q 406.93 171.62 406.11 169.98
  Z"
/>
<path fill="#0b324b" d="
  M 403.46 184.63
  Q 403.39 186.48 399.78 187.30
  A 0.87 0.87 0.0 0 1 398.72 186.41
  C 398.94 182.22 399.96 176.12 395.55 173.83
  Q 393.25 172.64 390.89 174.05
  C 386.14 176.89 381.70 177.72 376.60 174.47
  Q 373.79 172.68 370.94 170.75
  C 367.78 168.59 365.33 171.34 364.06 173.97
  Q 361.38 179.48 360.91 186.19
  A 1.54 1.54 0.0 0 1 358.94 187.56
  L 356.96 186.98
  Q 357.39 183.02 358.01 180.97
  Q 362.29 166.83 375.16 159.18
  C 376.30 158.50 378.22 159.41 379.46 159.73
  C 391.53 162.85 401.76 171.72 403.46 184.63
  Z"
/>
<path fill="#7249fd" d="
  M 450.80 183.21
  C 450.49 188.47 446.57 192.59 441.12 191.83
  C 433.23 190.74 431.77 181.23 437.53 176.53
  Q 438.01 176.14 437.88 175.54
  Q 436.49 169.07 440.78 165.18
  Q 445.42 160.97 451.24 163.11
  C 455.78 164.78 458.61 169.79 457.49 174.57
  C 456.66 178.08 454.53 179.98 451.55 181.91
  A 1.68 1.67 75.1 0 0 450.80 183.21
  Z
  M 447.54 163.63
  C 441.79 163.84 437.23 168.93 439.05 174.79
  A 0.76 0.76 0.0 0 0 439.90 175.32
  Q 446.55 174.19 450.13 180.26
  Q 450.84 181.46 451.98 180.66
  Q 456.84 177.23 456.51 171.83
  C 456.22 167.03 452.34 163.46 447.54 163.63
  Z"
/>
<path fill="#ee8d5c" d="
  M 211.05 177.63
  L 207.38 199.06
  Q 203.93 206.18 198.81 210.32
  Q 198.43 210.62 198.41 211.12
  L 198.41 211.47
  L 198.10 211.40
  A 0.77 0.77 0.0 0 0 197.52 211.50
  C 191.58 215.25 186.52 217.90 179.67 214.26
  C 171.25 209.79 165.63 203.92 164.53 193.89
  Q 164.48 193.40 164.01 193.25
  L 156.65 190.86
  Q 155.94 189.58 155.09 187.94
  C 153.37 184.65 153.91 181.67 156.52 178.96
  L 159.80 177.99
  A 2.17 2.17 0.0 0 1 162.39 179.16
  L 164.99 184.74
  Q 165.74 186.35 166.33 184.67
  Q 166.63 183.84 166.92 182.99
  C 167.65 180.85 170.87 179.48 172.81 180.73
  Q 173.11 180.93 173.46 180.97
  Q 173.92 181.02 174.18 180.64
  Q 176.19 177.83 180.34 178.97
  Q 181.83 179.38 181.22 177.96
  L 180.80 176.99
  Q 180.48 176.24 181.19 175.84
  Q 186.99 172.61 188.90 166.72
  A 0.40 0.40 0.0 0 1 189.63 166.67
  Q 192.10 171.55 195.39 175.77
  A 0.44 0.44 0.0 0 1 195.06 176.48
  L 192.34 176.57
  A 1.15 1.15 0.0 0 0 191.22 177.74
  L 191.23 178.27
  Q 191.25 178.82 191.79 178.80
  C 194.05 178.73 196.31 178.21 197.96 180.20
  Q 198.36 180.69 198.98 180.83
  Q 199.78 181.02 200.59 180.91
  A 2.90 2.90 0.0 0 1 203.65 182.64
  L 204.71 185.11
  Q 205.40 186.73 206.02 185.09
  Q 207.43 181.34 211.05 177.63
  Z"
/>
<path stroke="#6d524b" stroke-width="2.00" fill="none" stroke-linecap="butt" vector-effect="non-scaling-stroke" d="
  M 177.73 193.02
  Q 178.49 198.84 182.10 199.16"
/>
<path fill="#605c32" d="
  M 355.33 193.81
  A 0.37 0.36 0.6 0 1 354.90 194.23
  L 354.58 194.18
  Q 354.19 194.10 354.13 193.71
  Q 351.80 177.62 363.01 166.51
  Q 363.09 166.43 363.19 166.47
  L 363.52 166.58
  Q 364.00 166.74 363.67 167.12
  C 356.91 174.94 353.57 183.65 355.33 193.81
  Z"
/>
<path fill="#cf724b" d="
  M 403.46 184.63
  Q 404.89 194.44 402.19 205.34
  Q 400.35 209.49 396.87 213.38
  Q 394.67 215.84 392.97 216.90
  Q 383.76 224.42 374.78 221.22
  Q 372.97 220.58 368.53 217.67
  Q 367.92 217.27 367.33 217.97
  C 367.13 217.19 367.07 216.69 366.40 216.14
  Q 360.64 211.41 357.75 204.43
  Q 355.85 195.64 356.96 186.98
  L 358.94 187.56
  A 1.54 1.54 0.0 0 0 360.91 186.19
  Q 361.38 179.48 364.06 173.97
  C 365.33 171.34 367.78 168.59 370.94 170.75
  Q 373.79 172.68 376.60 174.47
  C 381.70 177.72 386.14 176.89 390.89 174.05
  Q 393.25 172.64 395.55 173.83
  C 399.96 176.12 398.94 182.22 398.72 186.41
  A 0.87 0.87 0.0 0 0 399.78 187.30
  Q 403.39 186.48 403.46 184.63
  Z"
/>
<path fill="#665ba7" d="
  M 213.30 174.10
  Q 217.60 174.74 217.61 177.81
  L 215.59 189.15
  Q 214.51 191.35 214.47 193.91
  L 212.15 205.14
  Q 211.09 205.63 209.80 205.74
  C 207.89 205.92 206.94 204.85 207.11 203.00
  Q 207.25 201.56 207.38 199.06
  L 211.05 177.63
  L 213.30 174.10
  Z"
/>
<path fill="#ee8d5c" d="
  M 217.61 177.81
  Q 220.75 183.93 223.62 190.22
  Q 224.88 193.00 226.72 195.53
  Q 229.49 199.34 230.14 200.68
  Q 237.71 216.42 245.38 240.41
  Q 240.55 246.04 244.86 253.21
  Q 243.15 254.32 241.57 255.33
  C 238.42 257.34 236.16 260.13 238.01 263.99
  C 239.95 268.03 242.99 269.36 247.06 270.19
  A 1.68 1.66 -89.0 0 1 248.36 271.55
  Q 250.14 282.11 258.03 288.49
  Q 258.53 290.85 257.99 292.70
  Q 258.34 298.20 257.83 303.50
  Q 257.44 307.48 252.34 309.21
  Q 249.20 307.48 244.87 308.63
  Q 233.37 311.71 222.84 319.32
  L 219.03 312.16
  L 231.08 293.36
  Q 232.08 291.79 232.11 293.65
  Q 232.17 298.45 231.99 303.50
  Q 231.92 305.44 233.18 307.19
  A 2.05 1.96 -68.1 0 1 233.54 308.09
  Q 233.72 309.39 233.82 309.57
  Q 235.43 312.52 235.16 309.18
  Q 234.57 301.69 234.04 294.50
  C 233.86 292.11 232.76 288.66 232.39 285.81
  Q 229.04 260.17 223.28 234.96
  Q 223.16 234.45 222.73 234.10
  Q 222.86 234.15 222.99 234.10
  A 0.28 0.28 0.0 0 0 223.17 233.77
  Q 220.36 222.97 217.62 210.40
  C 217.02 207.63 214.63 206.19 212.15 205.14
  L 214.47 193.91
  Q 218.85 190.44 215.59 189.15
  L 217.61 177.81
  Z"
/>
<path fill="#0b324b" d="
  M 374.11 182.54
  C 371.36 181.84 368.94 182.22 367.17 184.46
  Q 366.32 185.53 365.42 184.51
  Q 365.32 184.40 365.31 184.24
  Q 365.24 182.82 366.28 181.90
  Q 369.74 178.87 374.20 180.37
  Q 375.20 180.70 374.99 181.74
  L 374.94 182.01
  A 0.68 0.68 0.0 0 1 374.11 182.54
  Z"
/>
<path fill="#0b324b" d="
  M 393.57 184.61
  C 391.59 182.32 389.18 181.75 386.14 182.53
  Q 385.42 182.72 385.31 181.98
  L 385.26 181.67
  Q 385.12 180.74 386.01 180.41
  Q 390.86 178.59 394.38 182.32
  Q 395.04 183.02 395.12 183.94
  A 0.89 0.88 -68.2 0 1 393.57 184.61
  Z"
/>
<path fill="#0b324b" d="
  M 186.05 190.82
  Q 185.01 186.95 184.98 183.53
  Q 184.97 182.79 185.71 182.66
  L 186.20 182.58
  Q 187.13 182.43 187.21 183.37
  Q 187.53 187.06 188.35 191.16
  C 188.72 193.02 187.61 195.81 185.52 195.81
  Q 182.98 195.80 184.87 194.10
  C 185.87 193.20 186.41 192.16 186.05 190.82
  Z"
/>
<ellipse fill="#0b324b" cx="0.00" cy="0.00" transform="translate(194.68,186.73) rotate(91.1)" rx="3.33" ry="2.04"/>
<ellipse fill="#0b324b" cx="0.00" cy="0.00" transform="translate(177.85,186.76) rotate(89.9)" rx="3.34" ry="2.05"/>
<path fill="#0b324b" d="
  M 380.50 195.15
  C 379.95 197.42 381.05 198.04 382.37 199.45
  Q 383.15 200.28 382.12 200.77
  Q 381.13 201.24 379.48 199.86
  Q 378.86 199.35 378.46 198.65
  Q 377.52 197.01 377.91 195.32
  Q 378.77 191.58 379.36 187.19
  A 0.85 0.83 -83.3 0 1 380.27 186.46
  L 380.74 186.51
  A 1.01 1.00 4.3 0 1 381.64 187.55
  Q 381.47 191.19 380.50 195.15
  Z"
/>
<ellipse fill="#0b324b" cx="0.00" cy="0.00" transform="translate(371.22,190.93) rotate(89.1)" rx="3.61" ry="2.21"/>
<ellipse fill="#0b324b" cx="0.00" cy="0.00" transform="translate(389.23,190.93) rotate(89.0)" rx="3.61" ry="2.19"/>
<path fill="#ebe5ff" d="
  M 215.59 189.15
  Q 218.85 190.44 214.47 193.91
  Q 214.51 191.35 215.59 189.15
  Z"
/>
<path fill="#0b324b" d="
  M 198.41 211.47
  L 198.24 215.36
  Q 196.59 216.72 193.34 218.58
  C 186.94 222.23 182.68 220.53 176.92 217.36
  A 0.40 0.40 0.0 0 0 176.32 217.68
  C 175.90 223.29 177.81 228.26 174.64 233.45
  A 2.60 2.58 53.8 0 0 174.34 235.42
  L 176.29 243.25
  C 174.44 246.22 173.71 249.57 174.72 252.97
  Q 176.96 260.50 172.16 265.79
  A 1.28 1.25 -28.6 0 0 171.84 266.83
  L 173.52 278.14
  Q 171.80 279.52 170.21 279.34
  Q 163.58 278.07 160.98 278.00
  Q 157.07 277.89 157.30 274.88
  A 0.96 0.95 7.3 0 0 156.51 273.87
  Q 155.88 273.76 155.51 274.27
  Q 152.79 278.03 149.55 279.70
  L 148.76 277.13
  Q 152.46 274.57 156.24 271.72
  Q 157.59 270.70 159.60 266.40
  Q 159.88 265.79 159.48 265.24
  C 156.15 260.69 157.29 255.59 158.75 250.61
  A 2.04 2.00 -47.4 0 0 158.71 249.37
  Q 156.57 243.58 159.33 235.03
  Q 159.88 233.34 158.63 231.91
  Q 157.78 226.41 159.29 221.01
  Q 159.53 220.14 159.10 219.04
  C 157.41 214.67 159.03 209.54 159.98 205.48
  Q 160.13 204.87 159.89 204.29
  Q 157.35 198.15 156.65 190.86
  L 164.01 193.25
  Q 164.48 193.40 164.53 193.89
  C 165.63 203.92 171.25 209.79 179.67 214.26
  C 186.52 217.90 191.58 215.25 197.52 211.50
  A 0.77 0.77 0.0 0 1 198.10 211.40
  L 198.41 211.47
  Z"
/>
<circle fill="#cf724b" cx="199.24" cy="196.33" r="5.40"/>
<path fill="#cf724b" d="
  M 177.73 193.02
  Q 178.49 198.84 182.10 199.16
  L 179.10 199.46
  Q 178.57 199.51 178.11 199.79
  Q 176.89 200.53 175.56 201.14
  C 172.03 202.74 168.79 200.49 168.08 196.86
  C 167.40 193.37 170.61 190.26 174.18 191.22
  Q 176.01 191.71 177.73 193.02
  Z"
/>
<path fill="#0b324b" d="
  M 177.73 193.02
  Q 181.03 198.17 185.43 197.40
  Q 185.77 197.34 186.10 197.44
  Q 186.41 197.53 186.61 197.77
  A 0.49 0.49 0.0 0 1 186.30 198.56
  L 182.10 199.16
  Q 178.49 198.84 177.73 193.02
  Z"
/>
<path fill="#7249fd" d="
  M 125.89 214.07
  A 18.12 18.12 0.0 0 1 107.77 232.19
  A 18.12 18.12 0.0 0 1 89.65 214.07
  A 18.12 18.12 0.0 0 1 107.77 195.95
  A 18.12 18.12 0.0 0 1 125.89 214.07
  Z"
/>
<path fill="#ebe5ff" d="
  M 100.31 207.25
  L 102.74 198.33
  A 0.65 0.65 0.0 0 1 103.22 197.86
  L 106.39 197.15
  A 0.65 0.65 0.0 0 1 107.19 197.80
  L 107.04 207.45
  A 0.65 0.65 0.0 0 1 106.39 208.09
  L 100.94 208.07
  A 0.65 0.65 0.0 0 1 100.31 207.25
  Z"
/>
<path fill="#ebe5ff" d="
  M 108.68 206.94
  L 108.55 198.35
  A 1.11 1.11 0.0 0 1 109.93 197.25
  L 112.25 197.83
  A 1.11 1.11 0.0 0 1 113.05 198.60
  L 115.44 206.85
  A 1.11 1.11 0.0 0 1 114.32 208.27
  L 109.74 208.03
  A 1.11 1.11 0.0 0 1 108.68 206.94
  Z"
/>
<path fill="#0b324b" d="
  M 389.07 198.94
  L 387.25 203.77
  Q 387.10 204.15 386.70 204.11
  L 380.12 203.46
  A 0.60 0.60 0.0 0 1 379.57 202.86
  L 379.57 202.59
  A 0.34 0.34 0.0 0 1 379.94 202.25
  C 383.37 202.60 386.30 202.87 387.88 198.96
  A 0.64 0.64 0.0 0 1 388.47 198.56
  L 388.81 198.57
  A 0.28 0.27 10.2 0 1 389.07 198.94
  Z"
/>
<path fill="#ebe5ff" d="
  M 98.70 207.28
  Q 98.44 208.22 97.46 208.22
  L 92.81 208.23
  Q 91.86 208.23 92.32 207.40
  Q 95.38 201.86 99.87 199.26
  Q 101.16 198.52 100.76 199.95
  L 98.70 207.28
  Z"
/>
<path fill="#ebe5ff" d="
  M 121.22 203.66
  L 123.19 207.09
  A 0.82 0.82 0.0 0 1 122.43 208.32
  L 117.90 208.10
  A 0.82 0.82 0.0 0 1 117.15 207.52
  L 114.89 200.08
  A 0.82 0.82 0.0 0 1 116.21 199.23
  L 121.05 203.45
  A 0.82 0.82 0.0 0 1 121.22 203.66
  Z"
/>
<path fill="#ebe5ff" d="
  M 207.38 199.06
  Q 207.25 201.56 207.11 203.00
  C 206.94 204.85 207.89 205.92 209.80 205.74
  Q 211.09 205.63 212.15 205.14
  C 214.63 206.19 217.02 207.63 217.62 210.40
  Q 220.36 222.97 223.17 233.77
  A 0.28 0.28 0.0 0 1 222.99 234.10
  Q 222.86 234.15 222.73 234.10
  Q 214.01 229.85 203.52 231.44
  Q 200.62 230.86 199.35 228.27
  Q 198.64 226.81 198.55 223.48
  Q 198.45 219.36 198.24 215.36
  L 198.41 211.47
  L 198.41 211.12
  Q 198.43 210.62 198.81 210.32
  Q 203.93 206.18 207.38 199.06
  Z"
/>
<path fill="#ebe5ff" d="
  M 404.13 204.94
  C 406.93 205.92 409.98 205.41 412.27 205.67
  Q 417.17 206.24 422.25 206.76
  Q 428.83 207.42 432.20 208.14
  Q 442.30 210.30 451.86 215.28
  Q 455.27 217.07 458.12 219.22
  C 459.80 220.49 460.63 222.09 462.14 223.60
  Q 456.73 223.89 451.48 224.04
  Q 446.98 224.17 446.91 228.97
  Q 446.76 240.08 446.84 258.58
  C 446.86 262.12 449.19 263.59 452.45 263.57
  Q 464.27 263.52 475.29 263.54
  Q 475.51 263.54 475.66 263.71
  Q 475.96 264.05 475.58 264.03
  Q 476.24 267.29 475.96 268.15
  Q 474.06 274.10 470.81 281.77
  Q 469.25 285.44 466.29 287.59
  A 2.00 1.98 -6.3 0 0 465.68 288.34
  L 465.30 289.15
  Q 465.02 289.18 464.83 288.95
  Q 445.70 265.93 424.36 244.65
  Q 419.47 239.77 413.43 239.05
  Q 407.33 238.31 399.89 238.19
  Q 398.12 238.16 397.98 236.39
  L 397.36 228.20
  A 1.19 1.19 0.0 0 0 396.09 227.10
  L 392.99 227.31
  L 392.65 222.22
  L 392.97 216.90
  Q 394.67 215.84 396.87 213.38
  Q 400.35 209.49 402.19 205.34
  Q 403.83 204.70 404.13 204.94
  Z"
/>
<path fill="#0b324b" d="
  M 384.23 212.27
  C 383.83 214.75 382.61 217.27 380.82 219.06
  A 0.73 0.73 0.0 0 1 379.74 219.00
  C 377.68 216.48 375.22 211.26 378.55 208.63
  C 381.11 206.61 384.70 209.27 384.23 212.27
  Z"
/>
<rect fill="#ebe5ff" x="-3.53" y="-5.15" transform="translate(94.70,214.48) rotate(1.1)" width="7.06" height="10.30" rx="0.92"/>
<rect fill="#ebe5ff" x="-3.74" y="-5.11" transform="translate(103.38,214.49) rotate(1.1)" width="7.48" height="10.22" rx="0.96"/>
<rect fill="#ebe5ff" x="-3.71" y="-5.08" transform="translate(112.32,214.48) rotate(-0.2)" width="7.42" height="10.16" rx="0.99"/>
<rect fill="#ebe5ff" x="-3.60" y="-5.12" transform="translate(120.85,214.49) rotate(0.1)" width="7.20" height="10.24" rx="1.70"/>
<path fill="#ee8d5c" d="
  M 198.24 215.36
  Q 198.45 219.36 198.55 223.48
  Q 198.64 226.81 199.35 228.27
  Q 200.62 230.86 203.52 231.44
  Q 207.15 233.82 206.49 235.56
  Q 206.27 236.13 206.29 236.74
  Q 206.89 256.24 203.49 274.64
  C 202.23 281.49 199.28 291.05 193.42 294.97
  Q 187.56 298.89 181.48 295.53
  C 175.84 292.40 172.32 285.53 170.21 279.34
  Q 171.80 279.52 173.52 278.14
  C 175.58 285.19 182.85 299.52 192.55 291.26
  C 195.80 288.50 197.49 283.92 198.71 279.95
  C 201.58 270.64 202.23 261.41 202.82 251.77
  C 202.95 249.79 202.49 247.74 203.04 245.88
  Q 203.28 245.08 202.92 244.33
  Q 202.33 243.11 203.06 241.94
  Q 203.48 241.27 203.16 240.54
  Q 202.34 238.68 203.49 236.83
  A 0.77 0.76 47.6 0 0 203.52 236.09
  Q 203.24 235.52 202.77 235.53
  Q 201.58 235.56 200.94 236.49
  Q 196.61 242.70 189.20 244.87
  C 184.28 246.31 181.19 245.15 176.29 243.25
  L 174.34 235.42
  A 2.60 2.58 53.8 0 1 174.64 233.45
  C 177.81 228.26 175.90 223.29 176.32 217.68
  A 0.40 0.40 0.0 0 1 176.92 217.36
  C 182.68 220.53 186.94 222.23 193.34 218.58
  Q 196.59 216.72 198.24 215.36
  Z"
/>
<path fill="#0b324b" d="
  M 392.97 216.90
  L 392.65 222.22
  Q 386.32 226.47 382.52 227.05
  C 377.12 227.87 370.92 224.80 367.29 221.12
  L 367.33 217.97
  Q 367.92 217.27 368.53 217.67
  Q 372.97 220.58 374.78 221.22
  Q 383.76 224.42 392.97 216.90
  Z"
/>
<path fill="#ebe5ff" d="
  M 98.45 221.80
  L 100.32 227.73
  A 1.04 1.04 0.0 0 1 98.57 228.75
  L 92.89 222.67
  A 1.04 1.04 0.0 0 1 93.70 220.92
  L 97.50 221.07
  A 1.04 1.04 0.0 0 1 98.45 221.80
  Z"
/>
<path fill="#ebe5ff" d="
  M 107.16 221.70
  L 107.10 230.30
  A 0.65 0.65 0.0 0 1 106.33 230.94
  L 103.03 230.32
  A 0.65 0.65 0.0 0 1 102.53 229.88
  L 99.91 221.89
  A 0.65 0.65 0.0 0 1 100.53 221.04
  L 106.51 221.05
  A 0.65 0.65 0.0 0 1 107.16 221.70
  Z"
/>
<path fill="#ebe5ff" d="
  M 115.78 222.41
  L 113.40 229.52
  A 1.12 1.12 0.0 0 1 112.55 230.26
  L 109.87 230.78
  A 1.12 1.12 0.0 0 1 108.53 229.67
  L 108.61 222.19
  A 1.12 1.12 0.0 0 1 109.69 221.09
  L 114.68 220.93
  A 1.12 1.12 0.0 0 1 115.78 222.41
  Z"
/>
<path fill="#ebe5ff" d="
  M 117.19 221.80
  Q 117.44 221.04 118.24 221.03
  L 121.84 220.99
  Q 123.46 220.97 122.58 222.33
  Q 119.87 226.54 116.47 228.69
  Q 114.60 229.87 115.28 227.76
  L 117.19 221.80
  Z"
/>
<path fill="#cf724b" d="
  M 367.29 221.12
  C 370.92 224.80 377.12 227.87 382.52 227.05
  Q 386.32 226.47 392.65 222.22
  L 392.99 227.31
  C 389.91 228.16 386.88 229.43 383.78 230.23
  Q 381.32 230.86 381.49 233.69
  Q 381.49 233.83 381.35 233.84
  L 381.06 233.84
  Q 380.70 233.85 380.66 233.50
  Q 380.38 230.90 378.27 230.28
  Q 371.44 228.27 367.19 225.98
  L 367.29 221.12
  Z"
/>
<path fill="#7249fd" d="
  M 462.14 223.60
  Q 470.79 224.17 479.61 224.11
  C 483.39 224.09 486.30 224.64 486.33 228.98
  Q 486.43 243.36 486.35 258.64
  C 486.32 264.99 479.77 262.77 475.58 264.03
  Q 475.96 264.05 475.66 263.71
  Q 475.51 263.54 475.29 263.54
  Q 464.27 263.52 452.45 263.57
  C 449.19 263.59 446.86 262.12 446.84 258.58
  Q 446.76 240.08 446.91 228.97
  Q 446.98 224.17 451.48 224.04
  Q 456.73 223.89 462.14 223.60
  Z
  M 461.51 240.43
  L 463.47 238.05
  Q 464.32 237.03 463.51 235.98
  Q 462.28 234.38 460.73 232.84
  Q 459.41 231.54 458.05 232.39
  C 455.68 233.88 454.25 236.70 455.28 239.40
  Q 459.60 250.75 471.03 254.92
  C 474.27 256.11 477.09 254.97 478.37 251.60
  A 1.22 1.21 33.7 0 0 478.11 250.32
  L 475.35 247.45
  A 2.40 2.39 47.9 0 0 472.08 247.28
  L 470.35 248.76
  Q 469.91 249.14 469.42 248.81
  Q 465.08 245.93 461.49 241.26
  Q 461.17 240.84 461.51 240.43
  Z"
/>
<path fill="#0b324b" d="
  M 296.20 255.60
  L 290.30 261.77
  A 0.96 0.96 0.0 0 1 288.87 261.73
  Q 288.33 261.10 288.25 259.75
  Q 287.99 255.22 287.77 250.87
  Q 287.73 250.19 287.05 250.27
  Q 281.26 250.99 275.15 250.08
  Q 264.48 248.49 255.42 245.51
  Q 254.77 245.29 254.75 245.98
  Q 254.51 254.48 252.62 262.14
  Q 252.34 263.29 251.28 262.74
  C 249.04 261.56 246.11 255.55 244.86 253.21
  Q 240.55 246.04 245.38 240.41
  Q 250.35 236.35 251.42 234.91
  C 254.24 231.10 257.64 225.91 261.96 224.02
  A 1.52 1.51 71.4 0 1 264.04 225.06
  L 264.57 227.26
  A 0.44 0.43 -16.2 0 0 265.14 227.57
  Q 275.58 223.96 289.23 224.86
  C 294.91 225.23 300.70 226.97 300.32 234.00
  Q 300.05 239.20 297.17 243.42
  Q 296.91 243.81 297.04 244.26
  C 298.34 248.77 300.12 251.12 296.20 255.60
  Z"
/>
<path fill="#f8b039" d="
  M 367.19 225.98
  Q 371.44 228.27 378.27 230.28
  Q 380.38 230.90 380.66 233.50
  Q 380.70 233.85 381.06 233.84
  L 381.35 233.84
  Q 381.49 233.83 381.49 233.69
  Q 381.32 230.86 383.78 230.23
  C 386.88 229.43 389.91 228.16 392.99 227.31
  L 396.09 227.10
  A 1.19 1.19 0.0 0 1 397.36 228.20
  L 397.98 236.39
  Q 398.12 238.16 399.89 238.19
  Q 407.33 238.31 413.43 239.05
  Q 419.47 239.77 424.36 244.65
  Q 445.70 265.93 464.83 288.95
  Q 465.02 289.18 465.30 289.15
  Q 470.57 296.62 476.08 304.00
  Q 477.51 305.93 478.42 309.82
  Q 479.17 313.04 478.81 315.86
  Q 477.23 328.38 465.85 332.44
  Q 459.07 334.85 450.25 335.03
  Q 449.72 335.04 449.06 335.46
  Q 449.02 335.35 448.90 335.23
  Q 448.80 335.13 448.66 335.14
  L 438.42 335.71
  A 1.32 1.32 0.0 0 0 437.19 337.21
  Q 439.75 354.89 441.95 372.25
  Q 442.22 374.39 441.84 376.46
  L 393.97 378.01
  A 2.85 2.83 -20.8 0 1 391.72 377.01
  Q 390.34 375.37 389.18 373.53
  Q 385.54 367.78 381.70 363.00
  A 2.48 2.46 25.7 0 1 381.15 361.45
  L 381.18 338.25
  Q 381.18 336.98 382.45 336.99
  Q 409.22 337.15 433.36 336.37
  Q 433.87 336.35 433.88 335.84
  L 433.88 335.56
  Q 433.88 335.27 433.59 335.28
  Q 404.21 336.03 374.75 335.67
  Q 373.40 335.65 373.30 334.04
  L 372.23 317.94
  A 1.28 1.28 0.0 0 0 370.93 316.74
  L 367.71 316.78
  A 1.72 1.72 0.0 0 1 366.58 316.38
  Q 361.90 312.42 358.99 306.99
  Q 357.84 304.82 356.65 306.97
  L 356.27 307.66
  Q 355.15 309.68 356.13 311.78
  L 358.46 316.78
  A 0.51 0.51 0.0 0 1 357.87 317.49
  C 355.70 316.94 349.08 316.22 349.00 319.94
  Q 348.96 322.04 348.05 323.85
  Q 347.72 324.49 348.06 325.13
  Q 349.11 327.11 347.91 328.83
  Q 347.57 329.31 347.77 329.88
  C 348.69 332.45 349.18 336.09 352.78 335.86
  C 356.08 335.65 359.07 334.43 362.33 334.27
  Q 366.49 334.06 370.68 333.63
  Q 371.21 333.58 371.66 333.88
  L 372.29 334.30
  C 372.22 335.76 372.61 337.30 374.34 337.21
  Q 377.02 337.06 379.48 337.22
  Q 380.06 337.25 380.07 337.83
  Q 380.32 349.08 380.40 360.00
  Q 380.42 362.75 379.71 363.92
  Q 376.22 369.64 374.04 375.92
  Q 373.35 376.01 372.72 375.29
  Q 355.45 355.27 339.26 338.79
  Q 338.64 338.16 339.15 337.47
  L 349.11 273.47
  A 0.42 0.41 -83.6 0 0 348.73 272.99
  L 348.44 272.97
  Q 347.74 272.92 347.63 273.61
  L 337.74 336.52
  Q 337.26 337.01 336.76 336.49
  Q 322.50 321.65 306.40 311.66
  Q 315.81 284.19 329.09 256.83
  Q 330.86 253.18 332.94 249.49
  C 339.10 238.55 351.01 238.98 361.92 238.63
  A 2.13 2.13 0.0 0 0 363.97 236.58
  L 364.29 227.52
  A 1.18 1.17 -88.1 0 1 365.50 226.38
  Q 366.62 226.41 367.19 225.98
  Z"
/>
<path fill="#1b5b98" d="
  M 222.73 234.10
  Q 223.16 234.45 223.28 234.96
  Q 229.04 260.17 232.39 285.81
  C 232.76 288.66 233.86 292.11 234.04 294.50
  Q 234.57 301.69 235.16 309.18
  Q 235.43 312.52 233.82 309.57
  Q 233.72 309.39 233.54 308.09
  A 2.05 1.96 -68.1 0 0 233.18 307.19
  Q 231.92 305.44 231.99 303.50
  Q 232.17 298.45 232.11 293.65
  Q 232.08 291.79 231.08 293.36
  L 219.03 312.16
  Q 217.27 311.24 216.62 309.35
  Q 215.44 305.90 214.87 309.50
  Q 214.75 310.25 215.60 312.45
  Q 217.35 316.99 219.58 322.10
  L 210.85 329.85
  L 161.42 330.02
  A 1.27 1.27 0.0 0 0 160.15 331.26
  Q 159.99 336.22 158.18 341.73
  Q 158.14 341.88 157.99 341.84
  L 157.74 341.78
  Q 157.67 341.76 157.69 341.70
  Q 159.08 336.14 159.32 330.62
  A 0.51 0.51 0.0 0 0 158.80 330.08
  L 148.11 330.14
  L 157.06 310.13
  A 4.90 4.87 -41.1 0 0 157.30 306.79
  L 149.55 279.70
  Q 152.79 278.03 155.51 274.27
  Q 155.88 273.76 156.51 273.87
  A 0.96 0.95 7.3 0 1 157.30 274.88
  Q 157.07 277.89 160.98 278.00
  Q 163.58 278.07 170.21 279.34
  C 172.32 285.53 175.84 292.40 181.48 295.53
  Q 187.56 298.89 193.42 294.97
  C 199.28 291.05 202.23 281.49 203.49 274.64
  Q 206.89 256.24 206.29 236.74
  Q 206.27 236.13 206.49 235.56
  Q 207.15 233.82 203.52 231.44
  Q 214.01 229.85 222.73 234.10
  Z"
/>
<path fill="#1b5b98" d="
  M 158.63 231.91
  Q 159.88 233.34 159.33 235.03
  Q 156.57 243.58 158.71 249.37
  A 2.04 2.00 -47.4 0 1 158.75 250.61
  C 157.29 255.59 156.15 260.69 159.48 265.24
  Q 159.88 265.79 159.60 266.40
  Q 157.59 270.70 156.24 271.72
  Q 152.46 274.57 148.76 277.13
  Q 136.74 285.49 125.20 294.45
  Q 124.49 295.00 123.04 294.41
  Q 122.32 292.89 121.15 291.59
  Q 112.11 281.63 103.06 271.69
  Q 102.25 270.79 101.81 270.65
  L 100.67 269.33
  Q 130.00 247.76 139.44 240.44
  Q 148.14 233.68 158.63 231.91
  Z"
/>
<path fill="#1b5b98" d="
  M 173.52 278.14
  L 171.84 266.83
  A 1.28 1.25 -28.6 0 1 172.16 265.79
  Q 176.96 260.50 174.72 252.97
  C 173.71 249.57 174.44 246.22 176.29 243.25
  C 181.19 245.15 184.28 246.31 189.20 244.87
  Q 196.61 242.70 200.94 236.49
  Q 201.58 235.56 202.77 235.53
  Q 203.24 235.52 203.52 236.09
  A 0.77 0.76 47.6 0 1 203.49 236.83
  Q 202.34 238.68 203.16 240.54
  Q 203.48 241.27 203.06 241.94
  Q 202.33 243.11 202.92 244.33
  Q 203.28 245.08 203.04 245.88
  C 202.49 247.74 202.95 249.79 202.82 251.77
  C 202.23 261.41 201.58 270.64 198.71 279.95
  C 197.49 283.92 195.80 288.50 192.55 291.26
  C 182.85 299.52 175.58 285.19 173.52 278.14
  Z"
/>
<path fill="#605c32" d="
  M 432.25 308.31
  L 439.59 308.70
  A 0.26 0.25 2.2 0 1 439.84 308.96
  L 439.84 309.31
  A 0.43 0.42 -88.7 0 1 439.40 309.74
  C 434.79 309.58 430.10 309.00 425.51 309.53
  Q 402.61 312.16 379.91 314.94
  Q 376.18 315.40 372.49 315.68
  Q 372.16 315.71 372.22 315.38
  L 372.28 314.99
  Q 372.32 314.81 372.50 314.78
  L 379.35 313.61
  Q 380.06 313.49 380.06 312.77
  L 380.15 241.74
  Q 380.15 241.31 380.58 241.32
  L 380.92 241.33
  Q 381.09 241.33 381.09 241.50
  L 381.29 312.77
  A 0.66 0.66 0.0 0 0 382.03 313.42
  L 424.46 308.35
  Q 425.82 308.18 424.97 307.11
  L 400.52 276.34
  A 0.30 0.30 0.0 0 1 400.57 275.91
  L 400.78 275.76
  A 0.60 0.60 0.0 0 1 401.61 275.86
  L 426.36 306.73
  A 1.74 1.74 0.0 0 0 428.40 307.24
  L 435.89 303.98
  A 0.39 0.39 0.0 0 1 436.43 304.24
  Q 436.51 304.59 436.26 304.77
  Q 434.35 306.15 432.04 307.07
  Q 429.35 308.15 432.25 308.31
  Z"
/>
<path fill="#f9a38b" d="
  M 296.20 255.60
  Q 300.32 255.06 301.85 257.44
  C 305.76 263.55 299.72 269.70 293.70 270.08
  A 1.48 1.47 0.9 0 0 292.32 271.41
  Q 291.32 281.38 283.53 287.30
  A 1.87 1.85 -7.7 0 0 282.95 288.05
  Q 282.63 288.81 282.27 288.93
  Q 280.92 289.41 276.78 291.83
  Q 270.75 295.37 263.66 291.27
  Q 260.94 289.70 258.03 288.49
  Q 250.14 282.11 248.36 271.55
  A 1.68 1.66 -89.0 0 0 247.06 270.19
  C 242.99 269.36 239.95 268.03 238.01 263.99
  C 236.16 260.13 238.42 257.34 241.57 255.33
  Q 243.15 254.32 244.86 253.21
  C 246.11 255.55 249.04 261.56 251.28 262.74
  Q 252.34 263.29 252.62 262.14
  Q 254.51 254.48 254.75 245.98
  Q 254.77 245.29 255.42 245.51
  Q 264.48 248.49 275.15 250.08
  Q 281.26 250.99 287.05 250.27
  Q 287.73 250.19 287.77 250.87
  Q 287.99 255.22 288.25 259.75
  Q 288.33 261.10 288.87 261.73
  A 0.96 0.96 0.0 0 0 290.30 261.77
  L 296.20 255.60
  Z"
/>
<path fill="#0b324b" d="
  M 260.48 255.77
  C 259.29 256.08 258.57 257.15 257.66 257.92
  A 0.78 0.78 0.0 0 1 256.45 257.66
  Q 256.25 257.26 256.28 256.82
  Q 256.30 256.34 256.61 255.95
  Q 259.75 252.04 264.76 253.72
  Q 265.53 253.98 265.51 254.79
  L 265.50 255.18
  A 0.69 0.69 0.0 0 1 264.63 255.82
  Q 262.49 255.23 260.48 255.77
  Z"
/>
<path fill="#0b324b" d="
  M 279.71 255.67
  Q 277.75 255.35 275.86 255.71
  A 0.63 0.63 0.0 0 1 275.11 255.13
  L 275.10 254.83
  Q 275.05 253.93 275.92 253.66
  Q 280.95 252.09 284.12 255.98
  Q 284.70 256.69 284.40 257.54
  A 0.73 0.72 -65.4 0 1 283.36 257.93
  C 281.98 257.13 281.46 255.94 279.71 255.67
  Z"
/>
<path fill="#0b324b" d="
  M 271.37 264.02
  C 270.72 267.00 269.85 269.14 272.19 271.59
  Q 272.56 271.98 272.36 272.48
  Q 272.18 272.92 271.75 273.09
  Q 271.24 273.31 270.75 273.03
  Q 267.56 271.18 268.26 267.68
  Q 268.95 264.26 269.42 260.38
  Q 269.52 259.51 270.39 259.52
  Q 270.54 259.52 270.69 259.53
  A 0.97 0.97 0.0 0 1 271.64 260.59
  C 271.53 261.72 271.61 262.93 271.37 264.02
  Z"
/>
<ellipse fill="#0b324b" cx="0.00" cy="0.00" transform="translate(261.83,263.67) rotate(89.7)" rx="3.35" ry="2.16"/>
<ellipse fill="#0b324b" cx="0.00" cy="0.00" transform="translate(278.88,263.69) rotate(89.9)" rx="3.35" ry="2.12"/>
<path fill="#ee8d5c" d="
  M 101.81 270.65
  Q 102.25 270.79 103.06 271.69
  Q 112.11 281.63 121.15 291.59
  Q 122.32 292.89 123.04 294.41
  Q 120.14 295.44 121.15 297.51
  Q 125.44 306.34 139.80 331.72
  Q 132.28 331.57 128.83 335.34
  Q 125.53 338.96 123.46 340.65
  Q 121.57 338.02 119.91 337.32
  L 118.41 324.39
  A 1.04 1.04 0.0 0 0 116.96 323.55
  L 112.47 325.47
  A 0.80 0.80 0.0 0 1 111.36 324.80
  C 111.19 322.85 113.74 320.49 114.84 319.06
  A 2.78 2.77 51.8 0 0 115.17 316.26
  Q 112.24 309.59 106.97 304.10
  C 104.48 301.49 102.91 300.18 99.96 303.35
  Q 98.97 304.42 97.86 305.16
  Q 93.20 298.67 91.43 294.53
  Q 88.00 286.53 93.36 279.12
  Q 94.92 276.96 101.81 270.65
  Z"
/>
<path fill="#0b324b" d="
  M 277.20 275.25
  L 277.28 275.95
  Q 277.36 276.66 276.68 276.42
  Q 273.82 275.37 270.69 275.76
  A 0.83 0.82 -21.8 0 1 269.95 275.45
  Q 269.46 274.81 269.94 274.43
  Q 270.22 274.21 270.55 274.31
  Q 275.47 275.84 277.79 271.02
  Q 277.93 270.73 278.26 270.76
  L 278.68 270.81
  A 0.34 0.33 -73.5 0 1 278.94 271.30
  L 277.39 274.25
  Q 277.15 274.72 277.20 275.25
  Z"
/>
<path fill="#605c32" d="
  M 339.15 337.47
  L 338.65 337.58
  Q 338.12 337.70 337.95 337.18
  L 337.74 336.52
  L 347.63 273.61
  Q 347.74 272.92 348.44 272.97
  L 348.73 272.99
  A 0.42 0.41 -83.6 0 1 349.11 273.47
  L 339.15 337.47
  Z"
/>
<path fill="#ebe5ff" d="
  M 148.76 277.13
  L 149.55 279.70
  L 157.30 306.79
  A 4.90 4.87 -41.1 0 1 157.06 310.13
  L 148.11 330.14
  Q 147.76 331.80 145.91 333.87
  L 139.80 331.72
  Q 125.44 306.34 121.15 297.51
  Q 120.14 295.44 123.04 294.41
  Q 124.49 295.00 125.20 294.45
  Q 136.74 285.49 148.76 277.13
  Z"
/>
<circle fill="#7249fd" cx="56.69" cy="290.75" r="5.40"/>
<path fill="#7249fd" d="
  M 497.48 296.41
  A 9.76 9.76 0.0 0 1 487.72 306.17
  A 9.76 9.76 0.0 0 1 477.96 296.41
  A 9.76 9.76 0.0 0 1 487.72 286.65
  A 9.76 9.76 0.0 0 1 497.48 296.41
  Z
  M 496.30 296.50
  A 8.60 8.60 0.0 0 0 487.70 287.90
  A 8.60 8.60 0.0 0 0 479.10 296.50
  A 8.60 8.60 0.0 0 0 487.70 305.10
  A 8.60 8.60 0.0 0 0 496.30 296.50
  Z"
/>
<path fill="#0b324b" d="
  M 258.03 288.49
  Q 260.94 289.70 263.66 291.27
  Q 270.75 295.37 276.78 291.83
  Q 280.92 289.41 282.27 288.93
  L 282.11 293.40
  Q 280.78 294.06 277.37 296.14
  C 270.59 300.28 263.83 296.90 257.99 292.70
  Q 258.53 290.85 258.03 288.49
  Z"
/>
<path fill="#0b324b" d="
  M 118.08 292.77
  Q 118.55 292.49 119.09 292.46
  Q 119.76 292.42 119.96 293.06
  L 120.86 295.91
  A 0.68 0.68 0.0 0 1 119.75 296.62
  L 115.34 292.70
  A 0.44 0.41 -62.3 0 1 115.22 292.27
  L 115.31 291.95
  Q 115.45 291.47 115.84 291.78
  L 117.02 292.70
  Q 117.53 293.10 118.08 292.77
  Z"
/>
<path fill="#f9a38b" d="
  M 257.99 292.70
  C 263.83 296.90 270.59 300.28 277.37 296.14
  Q 280.78 294.06 282.11 293.40
  Q 282.38 298.67 282.57 303.75
  Q 282.64 305.71 286.00 309.17
  Q 269.26 316.78 252.34 309.21
  Q 257.44 307.48 257.83 303.50
  Q 258.34 298.20 257.99 292.70
  Z"
/>
<path fill="#4cd137" d="
  M 119.91 337.32
  L 118.66 346.35
  Q 118.42 348.08 119.59 346.78
  Q 122.20 343.88 123.46 340.65
  Q 125.53 338.96 128.83 335.34
  Q 132.28 331.57 139.80 331.72
  L 145.91 333.87
  Q 153.85 338.46 157.08 343.49
  Q 159.82 347.77 160.88 352.73
  C 161.47 355.50 159.56 356.16 157.98 357.66
  Q 150.86 356.51 143.49 356.66
  Q 140.99 356.72 140.12 356.54
  Q 135.81 355.68 138.62 359.06
  Q 139.41 360.01 141.06 361.98
  Q 143.78 365.22 143.52 369.06
  Q 141.53 370.04 142.36 369.40
  L 128.04 369.63
  Q 124.53 369.77 121.25 374.07
  L 106.71 374.31
  Q 106.57 373.68 106.87 373.02
  Q 112.59 360.01 118.63 349.29
  A 0.62 0.61 35.2 0 0 118.49 348.53
  L 118.25 348.32
  Q 117.97 348.08 117.80 348.41
  Q 111.93 359.14 106.35 371.38
  A 0.53 0.53 0.0 0 1 105.38 371.38
  Q 101.82 363.44 98.06 356.25
  Q 96.84 353.93 95.32 351.76
  Q 95.22 351.63 95.09 351.72
  L 94.85 351.87
  A 0.29 0.28 -30.2 0 0 94.75 352.23
  L 105.47 374.32
  L 96.54 374.31
  Q 93.78 371.55 90.56 372.07
  C 85.03 371.83 78.57 372.13 73.59 369.91
  C 70.29 368.44 72.67 364.24 74.24 362.34
  Q 77.44 358.46 79.89 354.83
  Q 80.94 353.27 80.05 351.70
  A 1.11 1.10 80.9 0 0 79.30 351.15
  Q 77.23 350.74 75.17 351.19
  Q 69.00 352.53 62.41 354.21
  C 58.61 355.18 55.90 352.95 54.40 349.69
  Q 50.17 340.52 53.68 332.27
  C 54.96 329.26 58.04 327.05 61.29 326.54
  C 75.14 324.38 87.10 339.44 93.19 350.37
  A 1.20 1.19 57.8 0 0 94.92 350.77
  Q 95.06 350.67 94.87 350.02
  Q 93.18 344.39 92.70 338.41
  A 0.46 0.46 0.0 0 1 93.30 337.93
  C 94.73 338.40 97.87 339.54 99.32 338.89
  A 1.34 1.34 0.0 0 0 99.62 336.63
  Q 96.72 334.24 93.16 332.83
  A 1.50 1.50 0.0 0 1 92.22 331.47
  Q 91.92 317.96 98.00 306.25
  Q 98.29 305.70 97.86 305.16
  Q 98.97 304.42 99.96 303.35
  C 102.91 300.18 104.48 301.49 106.97 304.10
  Q 112.24 309.59 115.17 316.26
  A 2.78 2.77 51.8 0 1 114.84 319.06
  C 113.74 320.49 111.19 322.85 111.36 324.80
  A 0.80 0.80 0.0 0 0 112.47 325.47
  L 116.96 323.55
  A 1.04 1.04 0.0 0 1 118.41 324.39
  L 119.91 337.32
  Z"
/>
<path fill="#cf724b" d="
  M 373.30 334.04
  Q 372.30 334.08 372.29 334.30
  L 371.66 333.88
  Q 371.21 333.58 370.68 333.63
  Q 366.49 334.06 362.33 334.27
  C 359.07 334.43 356.08 335.65 352.78 335.86
  C 349.18 336.09 348.69 332.45 347.77 329.88
  Q 347.57 329.31 347.91 328.83
  Q 349.11 327.11 348.06 325.13
  Q 347.72 324.49 348.05 323.85
  Q 348.96 322.04 349.00 319.94
  C 349.08 316.22 355.70 316.94 357.87 317.49
  A 0.51 0.51 0.0 0 0 358.46 316.78
  L 356.13 311.78
  Q 355.15 309.68 356.27 307.66
  L 356.65 306.97
  Q 357.84 304.82 358.99 306.99
  Q 361.90 312.42 366.58 316.38
  A 1.72 1.72 0.0 0 0 367.71 316.78
  L 370.93 316.74
  A 1.28 1.28 0.0 0 1 372.23 317.94
  L 373.30 334.04
  Z"
/>
<rect fill="#605c32" x="-0.59" y="-31.26" transform="translate(104.64,337.55) rotate(-2.2)" width="1.18" height="62.52" rx="0.57"/>
<path fill="#ebe5ff" d="
  M 219.03 312.16
  L 222.84 319.32
  L 219.58 322.10
  Q 217.35 316.99 215.60 312.45
  Q 214.75 310.25 214.87 309.50
  Q 215.44 305.90 216.62 309.35
  Q 217.27 311.24 219.03 312.16
  Z"
/>
<path fill="#ef4454" d="
  M 252.34 309.21
  Q 269.26 316.78 286.00 309.17
  Q 289.57 307.98 293.50 308.27
  Q 299.18 308.68 306.40 311.66
  Q 322.50 321.65 336.76 336.49
  Q 337.26 337.01 337.74 336.52
  L 337.95 337.18
  Q 338.12 337.70 338.65 337.58
  L 339.15 337.47
  Q 338.64 338.16 339.26 338.79
  Q 355.45 355.27 372.72 375.29
  Q 373.35 376.01 374.04 375.92
  C 374.46 376.89 374.69 377.82 375.51 378.56
  Q 378.49 381.23 379.16 384.31
  L 343.44 384.51
  L 338.81 384.87
  Q 337.44 384.35 335.72 383.81
  C 332.91 382.92 332.01 381.45 332.01 378.66
  Q 332.06 359.71 332.00 340.84
  Q 332.00 338.69 329.86 338.52
  Q 326.76 338.27 323.65 338.27
  Q 268.46 338.24 220.61 338.29
  C 218.31 338.29 216.07 338.61 213.77 338.77
  A 1.80 1.80 0.0 0 0 212.10 340.38
  Q 211.73 344.04 211.79 347.25
  Q 212.13 363.31 211.65 377.67
  Q 211.62 378.41 211.00 379.08
  Q 209.41 380.57 207.96 382.20
  Q 206.50 383.84 203.98 384.27
  L 197.13 384.52
  Q 180.21 384.17 163.50 384.32
  Q 162.52 384.33 162.66 384.94
  L 161.81 383.75
  L 162.73 382.30
  Q 164.39 382.08 164.47 379.97
  L 166.75 377.94
  Q 167.13 377.60 167.15 377.09
  L 167.16 376.48
  Q 167.34 376.43 167.45 376.39
  Q 167.59 376.35 167.69 376.22
  Q 188.12 352.01 210.85 329.85
  L 219.58 322.10
  L 222.84 319.32
  Q 233.37 311.71 244.87 308.63
  Q 249.20 307.48 252.34 309.21
  Z"
/>
<path fill="#665ba7" d="
  M 266.50 318.41
  Q 260.37 317.94 258.23 317.27
  Q 253.81 315.89 248.69 312.61
  A 0.75 0.68 4.6 0 1 248.42 312.32
  L 247.77 311.11
  A 0.31 0.31 0.0 0 1 248.18 310.69
  Q 250.93 312.05 253.54 313.57
  Q 256.23 315.15 258.86 315.81
  C 267.42 317.98 275.81 317.71 283.49 313.98
  Q 286.66 312.45 290.23 311.21
  Q 290.76 311.03 290.79 311.58
  Q 290.81 312.06 290.39 312.32
  Q 281.18 318.06 268.63 318.63
  Q 268.02 318.66 267.41 318.54
  Q 266.96 318.45 266.50 318.41
  Z"
/>
<path fill="#17a1d8" d="
  M 210.85 329.85
  Q 188.12 352.01 167.69 376.22
  Q 167.59 376.35 167.45 376.39
  Q 167.34 376.43 167.16 376.48
  L 160.90 367.59
  Q 159.23 365.22 162.13 365.34
  Q 164.03 365.42 165.81 364.66
  A 1.48 1.48 0.0 0 0 165.94 361.99
  L 157.98 357.66
  C 159.56 356.16 161.47 355.50 160.88 352.73
  Q 159.82 347.77 157.08 343.49
  Q 153.85 338.46 145.91 333.87
  Q 147.76 331.80 148.11 330.14
  L 158.80 330.08
  A 0.51 0.51 0.0 0 1 159.32 330.62
  Q 159.08 336.14 157.69 341.70
  Q 157.67 341.76 157.74 341.78
  L 157.99 341.84
  Q 158.14 341.88 158.18 341.73
  Q 159.99 336.22 160.15 331.26
  A 1.27 1.27 0.0 0 1 161.42 330.02
  L 210.85 329.85
  Z"
/>
<path fill="#416b91" d="
  M 373.30 334.04
  Q 373.40 335.65 374.75 335.67
  Q 404.21 336.03 433.59 335.28
  Q 433.88 335.27 433.88 335.56
  L 433.88 335.84
  Q 433.87 336.35 433.36 336.37
  Q 409.22 337.15 382.45 336.99
  Q 381.18 336.98 381.18 338.25
  L 381.15 361.45
  A 2.48 2.46 25.7 0 0 381.70 363.00
  Q 385.54 367.78 389.18 373.53
  Q 390.34 375.37 391.72 377.01
  A 2.85 2.83 -20.8 0 0 393.97 378.01
  L 441.84 376.46
  C 445.69 389.11 448.45 400.30 449.94 413.18
  Q 449.71 413.75 449.00 413.75
  Q 405.91 413.62 362.83 413.75
  C 356.78 413.77 348.54 414.16 341.28 413.51
  Q 350.76 412.89 360.23 412.04
  Q 367.39 411.39 371.00 409.59
  Q 381.60 404.29 381.05 390.49
  Q 381.02 389.74 380.30 389.22
  Q 380.41 389.23 380.54 389.17
  Q 380.63 389.13 380.60 389.04
  L 379.16 384.31
  Q 378.49 381.23 375.51 378.56
  C 374.69 377.82 374.46 376.89 374.04 375.92
  Q 376.22 369.64 379.71 363.92
  Q 380.42 362.75 380.40 360.00
  Q 380.32 349.08 380.07 337.83
  Q 380.06 337.25 379.48 337.22
  Q 377.02 337.06 374.34 337.21
  C 372.61 337.30 372.22 335.76 372.29 334.30
  Q 372.30 334.08 373.30 334.04
  Z"
/>
<path fill="#ebe5ff" d="
  M 449.06 335.46
  Q 448.36 344.77 450.47 353.25
  C 452.82 362.75 456.69 372.02 459.88 381.24
  Q 462.05 387.51 463.81 396.49
  Q 465.23 403.77 463.28 413.62
  Q 456.78 413.86 450.36 413.60
  Q 449.85 413.58 449.94 413.18
  C 448.45 400.30 445.69 389.11 441.84 376.46
  Q 442.22 374.39 441.95 372.25
  Q 439.75 354.89 437.19 337.21
  A 1.32 1.32 0.0 0 1 438.42 335.71
  L 448.66 335.14
  Q 448.80 335.13 448.90 335.23
  Q 449.02 335.35 449.06 335.46
  Z"
/>
<path fill="#665ba7" d="
  M 338.81 384.87
  L 346.27 389.99
  Q 346.91 390.43 346.16 390.63
  Q 345.45 390.83 344.74 390.47
  Q 343.81 390.01 344.08 391.01
  Q 344.31 391.88 344.98 392.63
  Q 345.26 392.95 345.22 393.38
  Q 345.19 393.74 344.82 393.75
  A 0.82 0.82 0.0 0 1 344.08 393.35
  Q 343.45 392.27 343.05 391.04
  C 342.15 388.28 339.59 389.05 337.50 389.26
  Q 334.97 389.52 332.71 389.99
  Q 332.06 390.13 332.07 390.79
  L 332.20 413.74
  L 212.07 413.73
  L 211.82 390.19
  Q 212.72 385.44 211.91 380.26
  Q 211.74 379.19 211.00 379.08
  Q 211.62 378.41 211.65 377.67
  Q 212.13 363.31 211.79 347.25
  Q 211.73 344.04 212.10 340.38
  A 1.80 1.80 0.0 0 1 213.77 338.77
  C 216.07 338.61 218.31 338.29 220.61 338.29
  Q 268.46 338.24 323.65 338.27
  Q 326.76 338.27 329.86 338.52
  Q 332.00 338.69 332.00 340.84
  Q 332.06 359.71 332.01 378.66
  C 332.01 381.45 332.91 382.92 335.72 383.81
  Q 337.44 384.35 338.81 384.87
  Z"
/>
<path fill="#605c32" d="
  M 106.71 374.31
  L 105.47 374.32
  L 94.75 352.23
  A 0.29 0.28 -30.2 0 1 94.85 351.87
  L 95.09 351.72
  Q 95.22 351.63 95.32 351.76
  Q 96.84 353.93 98.06 356.25
  Q 101.82 363.44 105.38 371.38
  A 0.53 0.53 0.0 0 0 106.35 371.38
  Q 111.93 359.14 117.80 348.41
  Q 117.97 348.08 118.25 348.32
  L 118.49 348.53
  A 0.62 0.61 35.2 0 1 118.63 349.29
  Q 112.59 360.01 106.87 373.02
  Q 106.57 373.68 106.71 374.31
  Z"
/>
<path fill="#ee8d5c" d="
  M 157.98 357.66
  L 165.94 361.99
  A 1.48 1.48 0.0 0 1 165.81 364.66
  Q 164.03 365.42 162.13 365.34
  Q 159.23 365.22 160.90 367.59
  L 167.16 376.48
  L 167.15 377.09
  Q 167.13 377.60 166.75 377.94
  L 164.47 379.97
  C 164.50 378.41 163.45 377.70 162.72 376.68
  Q 161.59 375.11 160.55 374.34
  Q 159.05 373.23 159.77 374.95
  L 162.53 381.52
  Q 162.58 382.00 162.73 382.30
  L 161.81 383.75
  Q 157.68 379.81 155.29 374.67
  Q 155.19 374.47 155.01 374.34
  Q 154.84 374.21 154.66 374.27
  A 0.65 0.65 0.0 0 0 154.19 374.98
  C 154.48 377.26 155.51 380.76 154.69 382.90
  A 0.97 0.97 0.0 0 1 152.92 383.01
  Q 150.79 378.94 150.02 374.49
  Q 149.94 374.05 149.50 374.11
  L 149.22 374.14
  Q 148.72 374.21 148.79 374.71
  Q 149.07 376.80 148.54 378.80
  Q 148.28 379.77 147.08 379.16
  A 1.27 1.26 -80.5 0 1 146.40 378.20
  Q 145.90 374.40 144.29 371.20
  Q 144.27 370.03 143.52 369.06
  Q 143.78 365.22 141.06 361.98
  Q 139.41 360.01 138.62 359.06
  Q 135.81 355.68 140.12 356.54
  Q 140.99 356.72 143.49 356.66
  Q 150.86 356.51 157.98 357.66
  Z"
/>
<circle fill="#a1c8eb" cx="272.09" cy="376.10" r="8.40"/>
<path fill="#17a1d8" d="
  M 142.36 369.40
  Q 139.99 372.43 136.23 373.61
  Q 132.08 374.91 127.81 374.95
  A 0.30 0.30 0.0 0 0 127.61 375.46
  Q 129.07 376.86 130.22 376.02
  Q 130.56 375.77 130.97 375.71
  Q 136.88 374.83 141.45 371.95
  Q 142.90 371.04 144.29 371.20
  Q 145.90 374.40 146.40 378.20
  A 1.27 1.26 -80.5 0 0 147.08 379.16
  Q 148.28 379.77 148.54 378.80
  Q 149.07 376.80 148.79 374.71
  Q 148.72 374.21 149.22 374.14
  L 149.50 374.11
  Q 149.94 374.05 150.02 374.49
  Q 150.79 378.94 152.92 383.01
  A 0.97 0.97 0.0 0 0 154.69 382.90
  C 155.51 380.76 154.48 377.26 154.19 374.98
  A 0.65 0.65 0.0 0 1 154.66 374.27
  Q 154.84 374.21 155.01 374.34
  Q 155.19 374.47 155.29 374.67
  Q 157.68 379.81 161.81 383.75
  L 162.66 384.94
  Q 161.23 387.56 162.05 388.34
  Q 161.75 388.32 161.43 388.71
  Q 161.20 388.99 161.14 389.36
  Q 159.63 398.52 165.26 405.35
  C 168.22 408.94 173.44 411.45 177.99 411.81
  Q 189.19 412.69 193.29 413.28
  L 120.85 413.64
  L 126.17 375.40
  Q 126.12 372.95 128.04 369.63
  L 142.36 369.40
  Z"
/>
<path fill="#1b5b98" d="
  M 143.52 369.06
  Q 144.27 370.03 144.29 371.20
  Q 142.90 371.04 141.45 371.95
  Q 136.88 374.83 130.97 375.71
  Q 130.56 375.77 130.22 376.02
  Q 129.07 376.86 127.61 375.46
  A 0.30 0.30 0.0 0 1 127.81 374.95
  Q 132.08 374.91 136.23 373.61
  Q 139.99 372.43 142.36 369.40
  Q 141.53 370.04 143.52 369.06
  Z"
/>
<path fill="#ebe5ff" d="
  M 128.04 369.63
  Q 126.12 372.95 126.17 375.40
  Q 124.61 374.47 121.25 374.07
  Q 124.53 369.77 128.04 369.63
  Z"
/>
<path fill="#ebe5ff" d="
  M 96.54 374.31
  L 89.69 374.35
  Q 90.94 372.62 90.56 372.07
  Q 93.78 371.55 96.54 374.31
  Z"
/>
<path fill="#17a1d8" d="
  M 164.47 379.97
  Q 163.67 381.47 162.53 381.52
  L 159.77 374.95
  Q 159.05 373.23 160.55 374.34
  Q 161.59 375.11 162.72 376.68
  C 163.45 377.70 164.50 378.41 164.47 379.97
  Z"
/>
<path fill="#f8b039" d="
  M 121.25 374.07
  Q 124.61 374.47 126.17 375.40
  L 120.85 413.64
  L 92.27 413.64
  C 91.84 412.50 91.35 411.52 91.19 410.34
  Q 89.09 395.20 86.95 380.07
  Q 86.72 378.47 85.83 378.66
  L 86.30 375.96
  Q 86.39 375.45 86.84 375.21
  Q 88.10 374.55 89.69 374.35
  L 96.54 374.31
  L 105.47 374.32
  L 106.71 374.31
  L 121.25 374.07
  Z"
/>
<rect fill="#0b324b" x="167.42" y="378.79" width="39.18" height="0.96" rx="0.27"/>
<path fill="#ebe5ff" d="
  M 85.83 378.66
  Q 86.72 378.47 86.95 380.07
  Q 89.09 395.20 91.19 410.34
  C 91.35 411.52 91.84 412.50 92.27 413.64
  L 72.98 413.67
  Q 72.46 408.94 73.02 404.76
  Q 74.59 392.97 81.30 383.32
  C 82.51 381.59 84.30 380.25 85.83 378.66
  Z"
/>
<rect fill="#605c32" x="-16.95" y="-0.56" transform="translate(105.95,379.48) rotate(0.2)" width="33.90" height="1.12" rx="0.54"/>
<path fill="#17a1d8" d="
  M 211.00 379.08
  Q 211.74 379.19 211.91 380.26
  Q 212.72 385.44 211.82 390.19
  L 200.50 388.49
  Q 200.27 388.13 200.41 387.87
  L 203.98 384.27
  Q 206.50 383.84 207.96 382.20
  Q 209.41 380.57 211.00 379.08
  Z"
/>
<path fill="#665ba7" d="
  M 164.47 379.97
  Q 164.39 382.08 162.73 382.30
  Q 162.58 382.00 162.53 381.52
  Q 163.67 381.47 164.47 379.97
  Z"
/>
<rect fill="#665ba7" x="-19.86" y="-0.78" transform="translate(354.99,381.03) rotate(0.2)" width="39.72" height="1.56" rx="0.68"/>
<path fill="#0b324b" d="
  M 379.16 384.31
  L 380.60 389.04
  Q 380.63 389.13 380.54 389.17
  Q 380.41 389.23 380.30 389.22
  L 343.44 384.51
  L 379.16 384.31
  Z"
/>
<path fill="#0b324b" d="
  M 197.13 384.52
  Q 179.74 387.14 162.05 388.34
  Q 161.23 387.56 162.66 384.94
  Q 162.52 384.33 163.50 384.32
  Q 180.21 384.17 197.13 384.52
  Z"
/>
<path fill="#f9a38b" d="
  M 203.98 384.27
  L 200.41 387.87
  L 187.15 390.42
  A 0.73 0.73 0.0 0 0 186.55 391.13
  L 186.55 391.45
  A 0.25 0.25 0.0 0 0 186.82 391.70
  C 189.89 391.48 192.47 390.62 195.25 389.55
  A 0.42 0.41 15.1 0 1 195.66 390.26
  L 191.96 393.21
  Q 191.91 393.25 191.94 393.31
  L 192.06 393.56
  Q 192.30 394.06 192.77 393.75
  L 200.50 388.49
  L 211.82 390.19
  L 212.07 413.73
  L 193.29 413.28
  Q 189.19 412.69 177.99 411.81
  C 173.44 411.45 168.22 408.94 165.26 405.35
  Q 159.63 398.52 161.14 389.36
  Q 161.20 388.99 161.43 388.71
  Q 161.75 388.32 162.05 388.34
  Q 179.74 387.14 197.13 384.52
  L 203.98 384.27
  Z"
/>
<path fill="#f9a38b" d="
  M 343.44 384.51
  L 380.30 389.22
  Q 381.02 389.74 381.05 390.49
  Q 381.60 404.29 371.00 409.59
  Q 367.39 411.39 360.23 412.04
  Q 350.76 412.89 341.28 413.51
  L 332.20 413.74
  L 332.07 390.79
  Q 332.06 390.13 332.71 389.99
  Q 334.97 389.52 337.50 389.26
  C 339.59 389.05 342.15 388.28 343.05 391.04
  Q 343.45 392.27 344.08 393.35
  A 0.82 0.82 0.0 0 0 344.82 393.75
  Q 345.19 393.74 345.22 393.38
  Q 345.26 392.95 344.98 392.63
  Q 344.31 391.88 344.08 391.01
  Q 343.81 390.01 344.74 390.47
  Q 345.45 390.83 346.16 390.63
  Q 346.91 390.43 346.27 389.99
  L 338.81 384.87
  L 343.44 384.51
  Z"
/>
<path fill="#0b324b" d="
  M 200.41 387.87
  Q 200.27 388.13 200.50 388.49
  L 192.77 393.75
  Q 192.30 394.06 192.06 393.56
  L 191.94 393.31
  Q 191.91 393.25 191.96 393.21
  L 195.66 390.26
  A 0.42 0.41 15.1 0 0 195.25 389.55
  C 192.47 390.62 189.89 391.48 186.82 391.70
  A 0.25 0.25 0.0 0 1 186.55 391.45
  L 186.55 391.13
  A 0.73 0.73 0.0 0 1 187.15 390.42
  L 200.41 387.87
  Z"
/>
<path fill="#baa6ff" d="
  M 193.29 413.28
  L 212.07 413.73
  L 332.20 413.74
  L 341.28 413.51
  C 348.54 414.16 356.78 413.77 362.83 413.75
  Q 405.91 413.62 449.00 413.75
  Q 449.71 413.75 449.94 413.18
  Q 449.85 413.58 450.36 413.60
  Q 456.78 413.86 463.28 413.62
  L 472.34 413.88
  A 1.66 1.66 0.0 0 1 473.96 415.54
  Q 473.98 422.30 473.96 429.00
  Q 473.96 430.25 473.72 431.59
  Q 473.62 432.14 473.10 432.35
  Q 472.11 432.75 471.07 432.75
  Q 271.24 432.75 72.16 432.64
  Q 69.00 432.64 65.13 432.47
  A 1.66 1.66 0.0 0 1 63.54 430.81
  L 63.56 415.46
  A 1.45 1.45 0.0 0 1 64.95 414.01
  L 72.98 413.67
  L 92.27 413.64
  L 120.85 413.64
  L 193.29 413.28
  Z"
/>
</svg>
