<?xml version="1.0" encoding="UTF-8" standalone="no"?>
<!DOCTYPE svg PUBLIC "-//W3C//DTD SVG 1.1//EN" "http://www.w3.org/Graphics/SVG/1.1/DTD/svg11.dtd">
<svg xmlns="http://www.w3.org/2000/svg" version="1.1" viewBox="0.00 0.00 712.00 610.00">
<path fill="#ffffff" d="
  M 0.00 0.00
  L 712.00 0.00
  L 712.00 610.00
  L 0.00 610.00
  L 0.00 0.00
  Z"
/>
<g stroke-width="2.00" fill="none" stroke-linecap="butt">
<path stroke="#deaba4" vector-effect="non-scaling-stroke" d="
  M 471.58 269.54
  Q 473.14 272.70 474.54 275.25
  Q 477.85 281.28 483.34 285.41
  Q 484.49 286.27 484.37 288.21"
/>
<path stroke="#7b8ca5" vector-effect="non-scaling-stroke" d="
  M 484.37 288.21
  L 484.25 291.85"
/>
<path stroke="#deaba4" vector-effect="non-scaling-stroke" d="
  M 484.25 291.85
  L 484.53 298.52"
/>
<path stroke="#f2cb9c" vector-effect="non-scaling-stroke" d="
  M 484.53 298.52
  C 482.90 298.96 480.53 298.61 480.34 300.85
  Q 479.86 306.50 480.04 312.22
  C 480.14 315.39 475.67 315.54 473.56 315.55
  C 458.97 315.55 445.95 316.09 438.28 330.73
  C 424.59 356.86 413.63 383.86 404.23 411.48"
/>
<path stroke="#ed95aa" vector-effect="non-scaling-stroke" d="
  M 404.23 411.48
  Q 396.19 408.44 388.50 407.20
  Q 382.90 406.30 377.84 408.18"
/>
<path stroke="#f2c4c5" vector-effect="non-scaling-stroke" d="
  M 377.84 408.18
  Q 372.11 404.49 372.25 398.75
  Q 372.40 393.03 372.04 387.20"
/>
<path stroke="#7b8ca5" vector-effect="non-scaling-stroke" d="
  M 372.04 387.20
  L 372.20 381.02"
/>
<path stroke="#f2c4c5" vector-effect="non-scaling-stroke" d="
  M 372.20 381.02
  Q 373.52 379.58 375.31 378.04
  Q 384.74 369.91 385.40 357.81
  A 1.19 1.19 0.0 0 1 386.53 356.69
  Q 395.16 356.27 399.00 348.35
  Q 400.20 345.89 399.37 342.97
  Q 397.67 336.95 391.02 336.65"
/>
<path stroke="#7b8ca5" vector-effect="non-scaling-stroke" d="
  M 391.02 336.65
  C 395.22 331.88 393.76 327.88 391.50 322.75
  A 1.16 1.16 0.0 0 1 391.54 321.73
  Q 392.04 320.78 392.63 319.89
  Q 396.33 314.20 395.78 306.66
  C 395.21 298.98 387.40 297.37 381.25 296.97
  C 370.33 296.25 359.32 297.15 349.68 300.53
  Q 348.40 300.98 348.48 299.62
  Q 348.62 297.26 347.08 295.97
  A 1.25 1.23 -31.3 0 0 345.98 295.71
  C 341.09 296.93 335.89 304.48 332.99 308.46
  Q 331.23 310.88 328.57 313.16
  Q 326.01 315.35 323.65 317.50"
/>
<path stroke="#edb9ad" vector-effect="non-scaling-stroke" d="
  M 323.65 317.50
  Q 314.94 291.33 303.91 266.08
  Q 302.80 263.53 297.71 256.82
  C 296.29 254.96 295.01 252.13 294.14 249.95
  Q 291.06 242.21 286.80 234.99"
/>
<path stroke="#a8a0d3" vector-effect="non-scaling-stroke" d="
  M 286.80 234.99
  Q 287.01 230.74 281.29 230.24"
/>
<path stroke="#7b8ca5" vector-effect="non-scaling-stroke" d="
  M 281.29 230.24
  C 277.73 208.28 258.66 195.24 236.83 199.49
  C 218.65 203.03 207.21 218.15 206.44 236.50"
/>
<path stroke="#edb9ad" vector-effect="non-scaling-stroke" d="
  M 206.44 236.50
  Q 202.17 240.59 203.49 246.01
  Q 203.79 247.28 204.82 248.83
  Q 205.85 250.38 206.55 251.48"
/>
<path stroke="#7b8ca5" vector-effect="non-scaling-stroke" d="
  M 206.55 251.48
  Q 207.31 261.21 210.77 269.23
  C 211.24 270.31 211.38 271.22 210.97 272.34
  Q 207.37 282.21 210.21 290.69
  Q 210.38 291.22 210.21 291.74
  Q 207.81 298.88 209.32 306.25"
/>
<path stroke="#83a1cc" vector-effect="non-scaling-stroke" d="
  M 209.32 306.25
  C 206.25 306.87 203.40 307.31 200.44 308.40
  Q 191.51 311.68 185.80 316.07
  Q 168.43 329.46 134.15 354.62
  Q 132.75 355.65 133.66 356.39"
/>
<path stroke="#83a1cc" vector-effect="non-scaling-stroke" d="
  M 196.15 365.68
  Q 180.62 376.94 165.50 388.53
  Q 163.99 389.69 163.19 389.05"
/>
<path stroke="#85747a" vector-effect="non-scaling-stroke" d="
  M 163.19 389.05
  L 134.57 357.31"
/>
<path stroke="#384779" vector-effect="non-scaling-stroke" d="
  M 281.29 230.24
  L 278.59 234.11"
/>
<path stroke="#7c6053" vector-effect="non-scaling-stroke" d="
  M 278.59 234.11
  Q 273.76 239.24 271.58 244.85
  Q 270.74 247.02 269.91 244.84
  C 269.27 243.15 268.64 240.60 267.11 239.60
  C 265.49 238.53 264.03 238.84 262.25 238.97
  A 0.93 0.93 0.0 0 1 261.36 238.49
  C 259.61 235.33 256.04 236.14 253.07 236.26
  Q 252.03 236.30 251.95 235.27
  Q 251.94 235.10 251.97 234.95
  Q 252.21 233.30 253.86 233.11
  Q 255.08 232.96 256.29 233.10
  Q 258.50 233.35 257.14 231.58
  Q 253.09 226.31 249.84 220.03
  Q 249.28 218.95 249.02 220.14
  C 247.83 225.69 243.33 229.65 238.59 232.59
  Q 238.02 232.95 238.36 233.52
  L 239.13 234.83
  Q 239.46 235.38 239.17 235.94
  Q 239.01 236.25 238.65 236.33
  Q 237.87 236.50 237.07 236.30
  Q 231.79 234.96 229.38 238.94
  A 0.73 0.73 0.0 0 1 228.46 239.23
  Q 227.83 238.95 227.35 238.44
  Q 226.83 237.89 226.09 237.99
  Q 223.67 238.33 221.97 239.20
  C 220.13 240.14 219.99 242.89 219.03 244.64
  Q 218.44 245.73 217.85 244.64
  Q 215.74 240.74 214.08 236.54
  C 213.53 235.14 212.17 234.66 210.75 235.03
  Q 208.70 235.58 206.44 236.50"
/>
<path stroke="#f2cb9c" vector-effect="non-scaling-stroke" d="
  M 591.71 442.62
  L 577.60 443.36
  A 1.14 1.14 0.0 0 0 576.53 444.66
  Q 580.12 469.90 583.35 495.32
  Q 583.41 495.82 583.27 496.31
  Q 582.98 497.31 582.31 497.07"
/>
<path stroke="#9d8e65" vector-effect="non-scaling-stroke" d="
  M 582.31 497.07
  L 519.17 499.08
  A 3.52 3.52 0.0 0 1 516.25 497.69
  Q 512.24 492.41 508.66 486.58
  Q 506.34 482.78 502.40 478.73"
/>
<path stroke="#ab893f" vector-effect="non-scaling-stroke" d="
  M 502.40 478.73
  L 502.52 446.22
  A 1.08 1.08 0.0 0 1 503.61 445.15
  Q 536.92 445.27 571.49 444.10
  Q 572.24 444.07 572.24 443.32
  L 572.24 443.00
  Q 572.24 442.64 571.89 442.65
  Q 532.71 443.65 493.79 443.18
  Q 493.30 443.18 493.10 442.73
  L 492.19 440.70"
/>
<path stroke="#e59141" vector-effect="non-scaling-stroke" d="
  M 492.19 440.70
  L 490.81 419.23
  A 0.97 0.96 2.2 0 0 489.98 418.34
  Q 487.96 418.07 485.95 418.42
  C 484.01 418.75 482.82 417.51 481.63 416.26
  C 478.36 412.82 474.55 409.04 472.93 404.65
  A 0.97 0.97 0.0 0 0 471.37 404.27
  Q 467.66 407.64 469.84 411.93
  Q 471.51 415.22 473.01 418.65
  A 0.51 0.51 0.0 0 1 472.45 419.35
  C 468.79 418.67 465.47 417.94 462.01 419.73
  C 459.81 420.87 460.18 422.51 460.54 424.52
  Q 460.67 425.27 460.14 425.83
  L 458.60 427.47
  A 1.19 1.17 -39.8 0 0 458.46 428.93
  L 460.12 431.49
  Q 460.48 432.05 460.03 432.54
  L 458.79 433.87
  A 2.08 2.08 0.0 0 0 458.82 436.74
  Q 460.27 438.23 460.42 440.12
  C 460.82 445.27 469.96 443.15 472.81 441.87
  Q 474.40 441.17 476.41 441.27
  Q 481.09 441.51 486.99 440.47
  Q 490.58 439.85 490.96 441.90"
/>
<path stroke="#ab893f" vector-effect="non-scaling-stroke" d="
  M 490.96 441.90
  C 490.70 443.53 490.87 445.31 492.86 445.26
  Q 496.85 445.18 500.10 445.22
  A 0.95 0.95 0.0 0 1 501.03 446.16
  L 501.49 479.04"
/>
<path stroke="#9d8e65" vector-effect="non-scaling-stroke" d="
  M 501.49 479.04
  Q 496.80 486.90 492.94 496.56"
/>
<path stroke="#f47a46" vector-effect="non-scaling-stroke" d="
  M 492.94 496.56
  Q 492.37 496.73 491.76 496.01
  Q 470.31 470.78 447.16 447.09
  Q 446.73 446.64 446.97 446.27"
/>
<path stroke="#ab893f" vector-effect="non-scaling-stroke" d="
  M 446.97 446.27
  L 460.27 361.16
  A 0.63 0.62 -75.2 0 0 459.89 360.49
  Q 459.19 360.21 458.74 360.79
  A 3.29 2.83 -26.1 0 0 458.08 362.33
  Q 457.22 369.79 456.21 376.04
  Q 451.74 403.67 447.02 432.70
  Q 446.04 438.70 445.48 444.71"
/>
<path stroke="#f47a46" vector-effect="non-scaling-stroke" d="
  M 445.48 444.71
  Q 444.76 444.92 444.05 444.19
  C 434.92 434.76 425.16 426.04 414.34 418.57
  Q 409.29 415.08 404.23 411.48"
/>
<path stroke="#deaba4" vector-effect="non-scaling-stroke" d="
  M 530.21 271.51
  Q 526.37 280.06 519.01 286.03
  Q 518.40 286.52 517.96 287.25"
/>
<path stroke="#6d524a" vector-effect="non-scaling-stroke" d="
  M 517.96 287.25
  Q 517.02 287.15 516.49 287.53
  Q 511.42 291.17 506.70 292.82
  C 498.70 295.62 491.89 291.36 485.25 287.13
  A 0.55 0.55 0.0 0 0 484.41 287.55
  L 484.37 288.21"
/>
<path stroke="#816b6b" vector-effect="non-scaling-stroke" d="
  M 372.04 387.20
  Q 365.36 391.72 361.26 393.02
  C 353.74 395.41 346.78 391.09 340.55 386.94"
/>
<path stroke="#7b8ca5" vector-effect="non-scaling-stroke" d="
  M 261.63 278.96
  L 261.45 284.54"
/>
<path stroke="#7c6053" vector-effect="non-scaling-stroke" d="
  M 261.45 284.54
  C 257.18 287.95 249.41 292.41 243.76 291.43
  Q 238.41 290.50 233.33 286.98
  Q 232.86 286.66 232.76 287.21
  Q 231.93 291.89 232.64 295.75
  C 233.48 300.38 232.83 304.87 230.03 308.72
  Q 229.67 309.20 229.68 309.79
  C 229.70 311.19 230.73 312.54 231.06 313.92
  Q 231.90 317.37 232.31 320.76"
/>
<path stroke="#134872" vector-effect="non-scaling-stroke" d="
  M 232.31 320.76
  L 229.61 329.08
  A 3.02 3.00 42.7 0 0 229.70 331.19
  C 231.98 336.51 232.74 344.81 228.46 349.40
  Q 227.45 350.48 226.58 351.63
  A 1.03 1.02 -40.2 0 0 226.48 352.70
  Q 228.62 356.98 228.49 361.00
  Q 228.36 365.12 228.85 367.23"
/>
<path stroke="#7c6053" vector-effect="non-scaling-stroke" d="
  M 228.85 367.23
  Q 226.36 369.78 224.23 368.66"
/>
<path stroke="#134872" vector-effect="non-scaling-stroke" d="
  M 224.23 368.66
  L 209.49 366.86
  A 2.37 2.35 0.5 0 1 207.43 364.78
  L 207.15 362.25
  A 0.95 0.95 0.0 0 0 205.42 361.82
  Q 201.95 366.98 197.33 369.98"
/>
<path stroke="#7b8ca5" vector-effect="non-scaling-stroke" d="
  M 197.33 369.98
  L 196.15 365.68"
/>
<path stroke="#134872" vector-effect="non-scaling-stroke" d="
  M 196.15 365.68
  Q 200.48 362.70 204.91 359.53
  Q 206.90 358.11 207.61 356.44
  Q 208.72 353.86 210.53 351.63
  Q 211.02 351.03 210.49 350.48
  C 205.58 345.35 207.13 337.17 209.36 331.06
  A 2.81 2.81 0.0 0 0 209.26 328.90
  C 206.60 323.26 207.90 316.16 210.00 310.54
  C 210.50 309.21 210.36 307.22 209.32 306.25"
/>
<path stroke="#f4746f" vector-effect="non-scaling-stroke" d="
  M 377.84 408.18
  Q 358.47 416.95 338.05 410.64
  Q 335.87 409.96 332.98 408.34"
/>
<path stroke="#e59141" vector-effect="non-scaling-stroke" d="
  M 517.96 300.40
  L 505.00 304.41
  A 1.95 1.94 8.5 0 0 503.98 305.16
  Q 503.00 306.60 502.89 308.79
  Q 502.86 309.37 502.35 309.53
  A 0.60 0.59 82.4 0 1 501.58 308.94
  Q 501.69 305.45 499.53 304.64
  Q 492.66 302.05 485.73 299.63
  Q 485.35 299.50 484.53 298.52"
/>
<path stroke="#816b6b" vector-effect="non-scaling-stroke" d="
  M 391.02 336.65
  Q 387.42 341.82 382.23 346.07
  A 0.90 0.90 0.0 0 1 380.86 345.78
  Q 379.93 343.95 379.79 341.71
  Q 379.48 336.57 379.32 331.10
  Q 379.30 330.42 378.64 330.52
  Q 371.10 331.62 361.21 330.07
  Q 348.81 328.12 336.66 324.27
  Q 335.98 324.05 335.97 324.77
  Q 335.74 335.79 333.19 346.23
  A 1.37 1.36 24.8 0 1 331.06 347.01
  Q 329.48 345.86 328.40 344.03
  Q 325.89 339.76 323.33 335.49"
/>
<path stroke="#aa7481" vector-effect="non-scaling-stroke" d="
  M 278.59 234.11
  L 273.79 262.24"
/>
<path stroke="#edb9ad" vector-effect="non-scaling-stroke" d="
  M 273.79 262.24
  Q 272.87 261.88 272.72 262.50
  Q 271.17 268.99 266.52 273.77
  Q 264.49 275.86 262.38 277.86
  Q 261.90 278.33 261.63 278.96"
/>
<path stroke="#7c6053" vector-effect="non-scaling-stroke" d="
  M 261.63 278.96
  Q 260.97 278.94 260.71 279.12
  C 254.22 283.49 247.31 287.51 239.38 284.13
  C 232.12 281.03 224.97 275.81 220.89 269.02
  C 218.36 264.79 217.60 260.37 216.74 255.72
  Q 216.62 255.07 215.96 255.06
  Q 211.26 255.06 206.55 251.48"
/>
<path stroke="#816b6b" vector-effect="non-scaling-stroke" d="
  M 372.20 381.02
  Q 365.48 385.25 363.15 386.18
  Q 355.11 389.38 346.91 384.52
  Q 343.83 382.69 340.49 380.84"
/>
<path stroke="#6d524a" vector-effect="non-scaling-stroke" d="
  M 517.97 293.01
  Q 513.31 296.61 508.41 298.68
  C 501.40 301.63 495.41 299.64 489.24 296.16
  Q 486.09 294.39 484.25 291.85"
/>
<path stroke="#7c6053" vector-effect="non-scaling-stroke" d="
  M 323.65 317.50
  Q 318.19 323.55 321.38 330.92
  Q 322.39 333.23 323.33 335.49"
/>
<path stroke="#f39873" vector-effect="non-scaling-stroke" d="
  M 323.33 335.49
  C 320.79 336.58 317.49 337.05 315.75 339.01
  Q 310.67 344.74 315.66 351.21
  Q 319.76 356.52 326.36 356.71
  A 1.21 1.21 0.0 0 1 327.52 357.83
  Q 328.24 368.32 335.40 376.10
  Q 336.84 377.67 340.49 380.84"
/>
<path stroke="#7c6053" vector-effect="non-scaling-stroke" d="
  M 340.49 380.84
  L 340.55 386.94"
/>
<path stroke="#f39873" vector-effect="non-scaling-stroke" d="
  M 340.55 386.94
  Q 340.30 392.04 340.30 396.93
  Q 340.30 401.99 339.15 403.87
  Q 337.33 406.80 332.98 408.34"
/>
<path stroke="#ef6858" vector-effect="non-scaling-stroke" d="
  M 332.98 408.34
  Q 328.95 406.13 323.50 407.38
  Q 321.13 407.92 318.81 408.70
  Q 305.32 413.21 293.68 422.11"
/>
<path stroke="#edb9ad" vector-effect="non-scaling-stroke" d="
  M 293.68 422.11
  L 288.63 412.37"
/>
<path stroke="#85747a" vector-effect="non-scaling-stroke" d="
  M 288.63 412.37
  Q 289.04 411.02 289.63 410.15
  Q 297.82 398.15 305.05 386.97
  Q 306.05 385.43 306.04 387.27
  L 305.94 403.34
  Q 305.94 403.93 306.37 404.32
  Q 306.78 404.70 307.33 404.92
  A 1.15 1.15 0.0 0 1 308.04 405.83
  L 308.61 409.95
  A 0.77 0.76 85.8 0 0 309.38 410.62
  L 309.78 410.62
  Q 310.27 410.61 310.22 410.13
  Q 309.21 399.00 308.35 387.84
  C 308.15 385.30 307.10 382.96 306.77 380.37
  Q 302.25 344.53 294.16 309.45"
/>
<path stroke="#edb9ad" vector-effect="non-scaling-stroke" d="
  M 294.16 309.45
  L 286.28 275.88
  A 3.01 2.97 -82.0 0 0 284.87 273.98
  L 279.57 270.94"
/>
<path stroke="#edb9ad" vector-effect="non-scaling-stroke" d="
  M 282.74 255.25
  Q 284.50 254.65 285.87 252.76
  A 1.20 1.20 0.0 0 0 284.96 250.86
  L 283.72 250.79"
/>
<path stroke="#aa7481" vector-effect="non-scaling-stroke" d="
  M 286.80 234.99
  L 283.72 250.79"
/>
<path stroke="#a8a0d3" vector-effect="non-scaling-stroke" d="
  M 283.72 250.79
  L 282.74 255.25"
/>
<path stroke="#aa7481" vector-effect="non-scaling-stroke" d="
  M 282.74 255.25
  L 279.57 270.94"
/>
<path stroke="#a8a0d3" vector-effect="non-scaling-stroke" d="
  M 279.57 270.94
  Q 276.92 272.20 275.24 271.76
  C 271.33 270.73 273.21 264.94 273.79 262.24"
/>
<path stroke="#985873" vector-effect="non-scaling-stroke" d="
  M 492.94 496.56
  Q 492.88 497.39 493.20 497.75
  Q 498.35 503.61 499.88 505.60
  Q 501.13 507.22 499.94 508.09"
/>
<path stroke="#7d3c50" vector-effect="non-scaling-stroke" d="
  M 499.94 508.09
  Q 499.29 507.36 498.25 507.36
  Q 475.06 507.44 451.93 507.13
  A 0.64 0.63 -80.9 0 0 451.31 507.59
  Q 451.28 507.70 451.55 507.99"
/>
<path stroke="#f4746f" vector-effect="non-scaling-stroke" d="
  M 451.55 507.99
  L 446.99 507.98"
/>
<path stroke="#985873" vector-effect="non-scaling-stroke" d="
  M 446.99 507.98
  C 443.95 506.85 441.89 508.24 439.25 504.93"
/>
<path stroke="#aa507e" vector-effect="non-scaling-stroke" d="
  M 439.25 504.93
  Q 437.75 503.49 437.75 501.25
  Q 437.79 476.25 437.82 450.49
  Q 437.83 446.79 434.12 446.78
  Q 361.33 446.75 288.37 446.78
  Q 285.31 446.78 282.26 447.24
  Q 279.48 447.66 279.48 450.00
  Q 279.50 473.87 279.45 497.75
  Q 279.45 499.19 278.52 500.13"
/>
<path stroke="#837397" vector-effect="non-scaling-stroke" d="
  M 278.52 500.13
  C 275.18 503.37 272.73 507.34 268.66 507.53"
/>
<path stroke="#f4746f" vector-effect="non-scaling-stroke" d="
  M 268.66 507.53
  L 263.39 507.60"
/>
<path stroke="#7d3c50" vector-effect="non-scaling-stroke" d="
  M 263.39 507.60
  L 214.75 507.52"
/>
<path stroke="#837397" vector-effect="non-scaling-stroke" d="
  M 214.75 507.52
  Q 213.88 508.46 212.85 506.05"
/>
<path stroke="#ef6858" vector-effect="non-scaling-stroke" d="
  M 212.85 506.05
  L 214.03 504.23"
/>
<path stroke="#837397" vector-effect="non-scaling-stroke" d="
  M 214.03 504.23
  Q 216.09 503.26 217.40 500.84"
/>
<path stroke="#ef6858" vector-effect="non-scaling-stroke" d="
  M 217.40 500.84
  L 221.16 496.50"
/>
<path stroke="#837397" vector-effect="non-scaling-stroke" d="
  M 221.16 496.50
  Q 247.50 465.05 277.20 436.12"
/>
<path stroke="#81c3ec" vector-effect="non-scaling-stroke" d="
  M 195.41 436.18
  Q 194.83 438.33 192.61 440.78"
/>
<path stroke="#9cdb9b" vector-effect="non-scaling-stroke" d="
  M 192.61 440.78
  L 183.67 438.14"
/>
<path stroke="#7b8ca5" vector-effect="non-scaling-stroke" d="
  M 159.45 391.66
  Q 159.34 391.29 159.51 390.70"
/>
<path stroke="#edb9ad" vector-effect="non-scaling-stroke" d="
  M 163.19 389.05
  L 159.51 390.70"
/>
<path stroke="#7c6053" vector-effect="non-scaling-stroke" d="
  M 159.51 390.70
  Q 158.68 389.30 157.69 386.32
  Q 157.48 385.72 156.86 385.80
  Q 156.21 385.90 156.19 386.56
  Q 156.17 386.95 156.01 387.28
  Q 155.66 388.02 155.09 387.42
  L 152.85 385.06
  A 0.34 0.33 -41.0 0 0 152.40 385.03
  L 152.09 385.28
  A 0.60 0.60 0.0 0 0 152.06 386.19
  L 157.97 391.69
  A 0.86 0.84 -31.7 0 0 158.81 391.88
  L 159.45 391.66"
/>
<path stroke="#edb9ad" vector-effect="non-scaling-stroke" d="
  M 159.45 391.66
  Q 159.70 392.51 160.05 393.20
  Q 170.99 414.70 183.22 435.49
  Q 184.17 437.11 183.67 438.14"
/>
<path stroke="#9daf49" vector-effect="non-scaling-stroke" d="
  M 183.67 438.14
  Q 175.18 437.51 169.31 443.32
  Q 165.88 446.71 162.47 450.55"
/>
<path stroke="#edb9ad" vector-effect="non-scaling-stroke" d="
  M 162.47 450.55
  L 157.97 445.51"
/>
<path stroke="#9daf49" vector-effect="non-scaling-stroke" d="
  M 157.97 445.51
  Q 158.10 436.75 155.88 427.70
  Q 155.64 426.72 154.73 427.16
  C 152.90 428.05 150.23 429.85 148.19 429.76
  A 1.70 1.70 0.0 0 1 146.80 427.19
  Q 148.78 423.84 151.86 420.51
  A 2.03 2.02 54.0 0 0 152.21 418.27
  Q 147.78 408.72 139.83 400.18
  C 137.25 397.41 133.70 396.92 131.56 400.56
  Q 130.32 402.68 129.26 403.85"
/>
<path stroke="#af97fe" vector-effect="non-scaling-stroke" d="
  M 612.57 295.56
  Q 604.61 295.84 597.25 295.82
  Q 593.55 295.80 592.06 296.68
  Q 589.37 298.27 589.38 301.74
  Q 589.43 320.82 589.36 341.32
  Q 589.34 347.94 596.51 347.96
  Q 612.25 348.01 627.51 348.02"
/>
<path stroke="#f2cb9c" vector-effect="non-scaling-stroke" d="
  M 614.69 383.70
  Q 593.85 358.79 571.92 335.58
  Q 566.53 329.89 560.61 324.01
  C 554.93 318.39 550.14 315.86 542.68 315.36
  Q 535.33 314.86 527.60 314.68
  Q 524.42 314.61 524.46 311.44
  Q 524.52 306.09 523.77 301.40
  Q 523.49 299.66 521.74 299.90
  L 517.96 300.40"
/>
<path stroke="#deaba4" vector-effect="non-scaling-stroke" d="
  M 517.96 300.40
  L 517.97 293.01"
/>
<path stroke="#7b8ca5" vector-effect="non-scaling-stroke" d="
  M 517.97 293.01
  L 517.96 287.25"
/>
<path stroke="#4f666c" vector-effect="non-scaling-stroke" d="
  M 502.40 478.73
  Q 501.95 478.89 501.49 479.04"
/>
<path stroke="#a6534d" vector-effect="non-scaling-stroke" d="
  M 446.97 446.27
  Q 446.09 446.51 445.48 444.71"
/>
<path stroke="#976948" vector-effect="non-scaling-stroke" d="
  M 492.19 440.70
  Q 491.29 440.97 490.96 441.90"
/>
<path stroke="#d3c5ff" vector-effect="non-scaling-stroke" d="
  M 610.57 546.23
  Q 602.55 546.39 594.60 546.41
  C 594.05 546.41 593.75 546.20 593.27 545.97"
/>
<path stroke="#96a8c8" vector-effect="non-scaling-stroke" d="
  M 593.27 545.97
  Q 590.42 521.26 582.31 497.07"
/>
<path stroke="#7e88c8" vector-effect="non-scaling-stroke" d="
  M 593.27 545.97
  Q 592.71 546.39 592.00 546.39
  Q 535.68 546.41 479.35 546.30
  Q 479.26 546.30 464.66 546.54
  Q 455.73 546.68 446.72 546.04"
/>
<path stroke="#9d878e" vector-effect="non-scaling-stroke" d="
  M 446.72 546.04
  Q 463.22 545.17 479.49 543.68
  C 494.42 542.32 504.22 529.68 502.08 514.85
  Q 502.05 514.63 501.69 514.15"
/>
<path stroke="#264f6e" vector-effect="non-scaling-stroke" d="
  M 501.69 514.15
  Q 501.72 514.09 501.77 514.01
  Q 501.87 513.86 501.83 513.71
  Q 501.04 510.81 499.94 508.09"
/>
<path stroke="#f2cb9c" vector-effect="non-scaling-stroke" d="
  M 531.22 271.12
  L 530.21 271.51"
/>
<path stroke="#e59141" vector-effect="non-scaling-stroke" d="
  M 530.21 271.51
  Q 530.40 268.87 531.28 265.26
  Q 532.59 259.84 532.68 253.51
  Q 532.76 248.32 531.80 245.33"
/>
<path stroke="#827242" vector-effect="non-scaling-stroke" d="
  M 531.80 245.33
  Q 531.47 235.84 525.62 227.61
  C 518.40 217.45 507.53 212.44 495.68 209.71
  A 0.66 0.65 -53.9 0 0 495.19 209.79
  Q 474.51 222.33 470.72 245.44"
/>
<path stroke="#e59141" vector-effect="non-scaling-stroke" d="
  M 470.72 245.44
  Q 469.37 257.55 471.86 269.81"
/>
<path stroke="#6d524a" vector-effect="non-scaling-stroke" d="
  M 531.80 245.33
  C 530.29 246.17 528.92 247.31 527.25 247.38
  Q 525.55 247.45 525.57 245.62
  C 525.61 241.72 526.78 236.34 524.83 232.74
  C 523.17 229.68 519.33 227.86 515.97 229.53
  C 514.09 230.47 512.46 231.66 510.45 232.36
  C 501.56 235.46 496.44 230.39 489.79 225.91
  Q 484.80 222.55 481.58 227.33
  C 477.76 233.00 476.56 239.35 475.82 246.11
  A 2.06 2.06 0.0 0 1 473.75 247.95
  Q 472.06 247.94 470.72 245.44"
/>
<path stroke="#85747a" vector-effect="non-scaling-stroke" d="
  M 268.37 305.55
  Q 269.25 307.19 271.15 307.68
  A 2.14 2.13 28.0 0 1 272.22 311.16
  Q 270.89 312.67 272.18 314.10
  C 273.18 315.20 272.80 316.73 271.72 317.60
  Q 270.87 318.29 271.66 319.05
  Q 272.49 319.83 272.81 320.84
  Q 272.97 321.36 272.69 321.83
  L 271.69 323.47
  Q 271.41 323.93 271.58 324.45
  C 271.89 325.39 272.62 325.94 272.50 327.03
  C 272.36 328.29 271.23 329.03 271.64 330.41
  Q 271.88 331.25 271.85 332.10
  Q 271.12 348.39 268.35 362.73
  Q 265.79 376.00 259.84 384.87
  Q 256.95 389.17 250.96 391.49
  C 243.32 394.46 234.94 388.59 230.88 382.38
  Q 227.33 376.95 224.23 368.66"
/>
<path stroke="#85747a" vector-effect="non-scaling-stroke" d="
  M 228.85 367.23
  Q 231.01 375.46 235.96 381.79
  C 243.56 391.52 253.71 388.37 258.57 378.37
  C 262.29 370.72 263.99 363.04 265.39 354.75
  C 266.41 348.71 266.66 342.76 267.26 336.74
  C 267.49 334.37 266.71 331.96 267.85 329.89
  A 1.04 1.04 0.0 0 0 267.76 328.75
  Q 266.25 326.80 267.95 324.73
  A 1.40 1.40 0.0 0 0 267.80 322.80
  C 266.15 321.35 267.36 319.81 268.47 318.62
  A 0.56 0.56 0.0 0 0 268.35 317.75
  C 265.77 316.19 268.10 314.08 268.44 312.30
  Q 268.56 311.68 268.03 311.35
  Q 266.49 310.38 265.51 311.79
  C 258.13 322.42 244.41 328.42 232.31 320.76"
/>
<path stroke="#83a1cc" vector-effect="non-scaling-stroke" d="
  M 294.16 309.45
  Q 292.35 308.43 290.93 307.90
  Q 279.93 303.80 268.37 305.55"
/>
<path stroke="#edb9ad" vector-effect="non-scaling-stroke" d="
  M 268.37 305.55
  Q 261.81 304.37 261.69 296.75
  Q 261.59 290.59 261.45 284.54"
/>
<path stroke="#83a1cc" vector-effect="non-scaling-stroke" d="
  M 288.63 412.37
  Q 286.35 410.80 285.55 408.17
  Q 284.20 403.74 283.57 408.33
  Q 283.46 409.16 283.79 411.25
  Q 284.01 412.59 284.63 414.02
  Q 287.08 419.61 289.63 425.27"
/>
<path stroke="#855076" vector-effect="non-scaling-stroke" d="
  M 289.63 425.27
  L 277.20 436.12"
/>
<path stroke="#197fb9" vector-effect="non-scaling-stroke" d="
  M 277.20 436.12
  Q 276.79 435.44 274.54 435.76
  Q 272.90 435.99 271.92 435.99
  Q 242.06 435.94 212.17 435.92
  Q 211.67 435.92 211.62 436.42
  Q 210.65 445.94 208.16 455.29"
/>
<path stroke="#349768" vector-effect="non-scaling-stroke" d="
  M 208.16 455.29
  Q 206.96 453.86 207.14 453.34"
/>
<path stroke="#197fb9" vector-effect="non-scaling-stroke" d="
  M 207.14 453.34
  Q 209.62 444.58 210.08 436.25
  Q 210.10 435.87 209.72 435.88
  L 195.41 436.18"
/>
<path stroke="#83a1cc" vector-effect="non-scaling-stroke" d="
  M 195.41 436.18
  Q 195.05 434.65 196.35 432.36
  Q 201.86 422.70 206.50 411.01
  Q 207.89 407.50 207.20 404.76
  Q 204.52 394.14 197.33 369.98"
/>
<path stroke="#ed95aa" vector-effect="non-scaling-stroke" d="
  M 293.68 422.11
  L 289.63 425.27"
/>
<path stroke="#9d878e" vector-effect="non-scaling-stroke" d="
  M 446.99 507.98
  C 450.05 512.04 453.29 512.62 456.95 514.92
  Q 458.05 515.62 456.83 516.05
  Q 456.03 516.33 455.24 515.87
  Q 453.34 514.76 454.11 516.82
  Q 454.62 518.17 455.40 519.48
  Q 455.66 519.91 455.22 520.18
  L 454.89 520.38
  A 0.44 0.43 55.2 0 1 454.33 520.27
  Q 452.74 518.18 451.89 515.69
  A 3.24 3.23 76.6 0 0 448.37 513.52
  L 437.90 515.02"
/>
<path stroke="#816b6b" vector-effect="non-scaling-stroke" d="
  M 501.69 514.15
  L 451.55 507.99"
/>
<path stroke="#116a92" vector-effect="non-scaling-stroke" d="
  M 214.75 507.52
  L 212.95 512.82"
/>
<path stroke="#88a2b2" vector-effect="non-scaling-stroke" d="
  M 212.95 512.82
  Q 211.54 519.61 212.48 523.77
  Q 215.55 537.35 228.14 542.23
  C 230.65 543.20 233.68 543.57 236.38 543.83
  Q 254.15 545.53 271.95 545.91"
/>
<path stroke="#69a3ec" vector-effect="non-scaling-stroke" d="
  M 271.95 545.91
  Q 257.24 546.18 242.50 546.22
  Q 201.62 546.32 160.75 546.50
  Q 159.68 546.51 158.93 546.08"
/>
<path stroke="#88a989" vector-effect="non-scaling-stroke" d="
  M 158.93 546.08
  Q 159.22 544.76 159.29 545.51"
/>
<path stroke="#83979a" vector-effect="non-scaling-stroke" d="
  M 221.16 496.50
  Q 219.92 497.74 219.05 496.20
  Q 215.32 489.52 210.83 483.46
  A 0.69 0.69 0.0 0 1 211.36 482.36
  C 213.24 482.32 218.13 482.40 219.38 480.86
  A 1.71 1.70 -55.7 0 0 218.90 478.29
  L 207.41 471.83"
/>
<path stroke="#88a2b2" vector-effect="non-scaling-stroke" d="
  M 279.07 515.08
  L 263.65 513.36"
/>
<path stroke="#116a92" vector-effect="non-scaling-stroke" d="
  M 263.65 513.36
  Q 262.93 512.97 263.30 512.55"
/>
<path stroke="#88a2b2" vector-effect="non-scaling-stroke" d="
  M 263.30 512.55
  L 268.66 507.53"
/>
<path stroke="#d9a4c5" vector-effect="non-scaling-stroke" d="
  M 446.72 546.04
  L 438.35 546.06"
/>
<path stroke="#816b6b" vector-effect="non-scaling-stroke" d="
  M 263.30 512.55
  Q 254.99 513.92 246.98 515.72
  Q 246.22 515.89 245.84 516.41
  A 0.45 0.45 0.0 0 0 246.25 517.12
  Q 252.03 516.49 257.32 514.36
  Q 257.52 514.28 257.76 514.27
  Q 257.98 514.26 258.17 514.34
  A 0.51 0.51 0.0 0 1 258.32 515.18
  Q 255.91 517.44 253.42 518.97
  Q 252.90 519.29 253.31 519.73
  L 253.54 519.99
  A 0.35 0.34 51.3 0 0 253.98 520.04
  L 263.65 513.36"
/>
<path stroke="#d9a4c5" vector-effect="non-scaling-stroke" d="
  M 279.16 545.96
  L 271.95 545.91"
/>
<path stroke="#816b6b" vector-effect="non-scaling-stroke" d="
  M 263.39 507.60
  Q 243.94 510.12 224.76 512.03
  Q 219.20 512.58 212.95 512.82"
/>
<path stroke="#53639c" vector-effect="non-scaling-stroke" d="
  M 439.25 504.93
  Q 438.82 504.81 438.73 504.86
  A 1.05 1.05 0.0 0 0 438.13 505.76
  Q 437.92 510.40 437.90 515.02"
/>
<path stroke="#af7f99" vector-effect="non-scaling-stroke" d="
  M 437.90 515.02
  Q 437.98 529.88 437.95 544.75
  Q 437.95 545.14 438.35 546.06"
/>
<path stroke="#9080d3" vector-effect="non-scaling-stroke" d="
  M 438.35 546.06
  Q 436.56 546.40 433.75 546.39
  Q 401.74 546.35 281.50 546.43
  Q 280.08 546.43 279.16 545.96"
/>
<path stroke="#af7f99" vector-effect="non-scaling-stroke" d="
  M 279.16 545.96
  L 279.36 545.13
  Q 279.48 544.65 279.48 544.16
  L 279.07 515.08"
/>
<path stroke="#3e7ec0" vector-effect="non-scaling-stroke" d="
  M 279.07 515.08
  L 279.26 514.79
  Q 279.48 514.45 279.48 514.04
  L 279.50 500.75
  A 0.63 0.62 -88.1 0 0 278.92 500.12
  Q 278.76 500.10 278.52 500.13"
/>
<path stroke="#83979a" vector-effect="non-scaling-stroke" d="
  M 217.40 500.84
  Q 214.20 496.75 212.09 494.60
  Q 208.23 490.66 210.89 495.49
  Q 212.72 498.81 214.03 504.23"
/>
<path stroke="#83979a" vector-effect="non-scaling-stroke" d="
  M 212.85 506.05
  Q 207.22 500.68 203.98 493.63
  Q 203.88 493.40 203.65 493.49
  L 203.41 493.58
  Q 202.95 493.76 203.09 494.22
  Q 204.60 499.47 204.39 505.02
  A 1.35 1.35 0.0 0 1 203.12 506.31
  Q 201.83 506.37 201.25 505.14
  Q 198.56 499.41 197.73 493.37
  Q 197.70 493.12 197.45 493.12
  L 197.14 493.12
  Q 196.66 493.12 196.67 493.60
  Q 196.77 497.03 196.39 499.55
  Q 196.15 501.16 194.44 500.91
  A 0.89 0.89 0.0 0 1 193.72 500.30
  L 190.11 489.05"
/>
<path stroke="#85747a" vector-effect="non-scaling-stroke" d="
  M 190.11 489.05
  Q 190.15 488.15 189.55 487.63"
/>
<path stroke="#83979a" vector-effect="non-scaling-stroke" d="
  M 189.55 487.63
  Q 188.88 487.08 189.21 486.62"
/>
<path stroke="#9cdb9b" vector-effect="non-scaling-stroke" d="
  M 157.97 445.51
  Q 158.11 452.50 156.54 457.90
  Q 155.99 459.79 157.12 458.18
  L 162.47 450.55"
/>
<path stroke="#32b988" vector-effect="non-scaling-stroke" d="
  M 192.61 440.78
  Q 200.70 445.49 207.14 453.34"
/>
<path stroke="#32b988" vector-effect="non-scaling-stroke" d="
  M 208.16 455.29
  Q 211.11 460.23 212.30 465.83
  C 213.24 470.25 210.24 470.46 207.41 471.83"
/>
<path stroke="#9daf49" vector-effect="non-scaling-stroke" d="
  M 207.41 471.83
  L 181.85 470.75
  A 0.79 0.79 0.0 0 0 181.23 472.07
  C 184.61 475.87 188.79 480.29 189.52 485.49
  Q 189.65 486.44 189.21 486.62"
/>
<path stroke="#32b988" vector-effect="non-scaling-stroke" d="
  M 189.21 486.62
  Q 185.99 488.16 182.75 488.02
  Q 174.59 487.68 168.76 488.21"
/>
<path stroke="#9cdb9b" vector-effect="non-scaling-stroke" d="
  M 168.76 488.21
  Q 165.78 488.37 164.32 489.58
  Q 162.47 491.09 159.52 494.46"
/>
<path stroke="#a3c138" vector-effect="non-scaling-stroke" d="
  M 159.52 494.46
  L 127.06 494.51"
/>
<path stroke="#197fb9" vector-effect="non-scaling-stroke" d="
  M 190.11 489.05
  Q 190.32 489.72 189.58 489.80
  Q 188.96 489.86 188.46 490.22
  Q 181.59 495.33 173.22 496.16
  Q 171.33 496.35 170.96 498.24
  Q 167.20 517.20 161.64 538.49
  Q 160.32 543.54 159.29 545.51"
/>
<path stroke="#8a8668" vector-effect="non-scaling-stroke" d="
  M 159.29 545.51
  L 162.31 523.72"
/>
<path stroke="#daab9c" vector-effect="non-scaling-stroke" d="
  M 158.93 546.08
  Q 158.75 546.21 158.47 546.35
  Q 158.26 546.46 157.98 546.46
  Q 139.99 546.52 122.00 546.30
  Q 121.37 546.29 120.69 545.95"
/>
<path stroke="#f2cb9c" vector-effect="non-scaling-stroke" d="
  M 120.69 545.95
  L 113.86 497.72"
/>
<path stroke="#197fb9" vector-effect="non-scaling-stroke" d="
  M 189.55 487.63
  Q 189.14 487.58 188.84 487.84
  Q 180.09 495.68 168.00 494.77
  A 0.72 0.71 -69.9 0 0 167.39 495.06
  L 167.11 495.46
  Q 166.77 495.92 167.34 495.94
  Q 168.80 495.98 169.73 496.77
  Q 170.14 497.12 170.04 497.66
  Q 167.36 511.03 162.31 523.72"
/>
<path stroke="#88a989" vector-effect="non-scaling-stroke" d="
  M 162.31 523.72
  L 166.29 494.42"
/>
<path stroke="#81c3ec" vector-effect="non-scaling-stroke" d="
  M 166.29 494.42
  Q 166.90 491.29 168.76 488.21"
/>
<path stroke="#f2cb9c" vector-effect="non-scaling-stroke" d="
  M 166.29 494.42
  Q 162.93 495.04 159.52 494.46"
/>
<path stroke="#d3c5ff" vector-effect="non-scaling-stroke" d="
  M 120.69 545.95
  Q 120.25 546.27 119.50 546.29
  Q 107.55 546.67 96.63 546.26"
/>
</g>
<path fill="#7249fc" d="
  M 192.30 97.96
  L 180.03 97.89
  Q 179.37 97.88 179.12 98.49
  L 177.06 103.64
  A 1.58 1.58 0.0 0 1 176.21 104.49
  Q 174.35 105.26 173.48 104.44
  Q 172.21 103.23 172.93 101.63
  Q 177.49 91.40 183.59 78.77
  Q 184.53 76.84 186.53 76.87
  Q 187.02 76.88 187.41 77.20
  Q 188.73 78.29 189.45 79.84
  Q 194.29 90.24 199.52 101.33
  Q 200.46 103.32 198.68 104.63
  Q 198.48 104.78 198.23 104.85
  Q 196.51 105.37 195.73 103.74
  L 193.23 98.55
  Q 192.95 97.96 192.30 97.96
  Z"
/>
<path fill="#7249fc" d="
  M 76.96 100.06
  C 80.87 101.93 84.66 100.80 88.29 98.55
  Q 89.34 97.90 90.11 98.86
  C 92.68 102.10 86.06 104.45 84.04 104.82
  C 75.39 106.41 68.50 101.76 67.99 92.90
  Q 67.70 87.89 68.94 84.60
  C 72.10 76.23 82.69 75.24 89.45 79.58
  Q 91.00 80.58 90.60 82.39
  Q 90.55 82.58 90.47 82.77
  Q 89.64 84.56 87.95 83.54
  C 86.41 82.60 84.88 81.59 83.07 81.29
  C 76.09 80.16 73.10 84.35 73.00 90.47
  C 72.95 93.93 73.39 98.35 76.96 100.06
  Z"
/>
<path fill="#7249fc" d="
  M 106.4051 105.3774
  A 14.32 13.35 91.1 0 1 93.3325 90.8037
  A 14.32 13.35 91.1 0 1 106.9549 76.7426
  A 14.32 13.35 91.1 0 1 120.0275 91.3163
  A 14.32 13.35 91.1 0 1 106.4051 105.3774
  Z"
/>
<path fill="#7249fc" d="
  M 142.44 95.33
  Q 143.40 96.62 143.41 95.01
  L 143.49 79.41
  Q 143.50 77.41 145.45 76.99
  Q 145.81 76.91 146.17 77.05
  Q 148.09 77.77 148.11 79.82
  Q 148.21 91.36 148.18 102.00
  C 148.18 104.62 145.75 106.72 143.67 104.02
  Q 137.00 95.36 130.67 86.97
  Q 129.77 85.78 129.77 87.27
  L 129.79 102.01
  Q 129.79 104.51 127.40 105.25
  Q 126.38 105.56 125.31 104.04
  A 1.95 1.89 -64.2 0 1 124.97 103.01
  Q 124.55 90.08 125.03 78.99
  A 2.09 2.09 0.0 0 1 127.68 77.07
  Q 128.85 77.40 129.66 78.46
  Q 136.29 87.14 142.44 95.33
  Z"
/>
<path fill="#7249fc" d="
  M 211.82 81.75
  C 207.36 83.45 206.80 89.04 207.27 93.20
  Q 208.26 102.00 217.27 100.79
  Q 219.19 100.54 222.78 98.40
  Q 223.91 97.73 224.48 98.91
  L 224.68 99.34
  Q 225.54 101.13 223.93 102.27
  C 216.22 107.76 204.89 105.60 202.49 95.50
  C 200.64 87.69 203.50 78.84 212.29 77.31
  Q 218.93 76.16 224.00 79.90
  Q 225.35 80.89 224.73 82.45
  L 224.53 82.96
  Q 223.84 84.67 222.35 83.59
  Q 217.04 79.77 211.82 81.75
  Z"
/>
<path fill="#7249fc" d="
  M 268.24 94.00
  C 268.23 103.75 281.72 103.45 281.54 93.54
  Q 281.41 86.44 281.58 79.13
  Q 281.64 76.85 283.91 77.05
  L 284.23 77.07
  Q 286.26 77.25 286.32 79.28
  Q 286.73 92.36 286.00 96.97
  Q 285.01 103.27 278.23 104.81
  C 271.96 106.23 264.60 103.98 263.72 96.75
  Q 263.04 91.17 263.50 78.99
  Q 263.58 76.86 265.70 77.07
  L 265.99 77.10
  Q 268.17 77.31 268.18 79.49
  Q 268.24 86.81 268.24 94.00
  Z"
/>
<path fill="#7249fc" d="
  M 298.18 87.75
  C 301.99 89.19 306.59 89.71 309.96 92.05
  C 313.96 94.84 312.95 100.60 309.14 103.09
  C 304.10 106.39 297.18 105.48 292.18 102.58
  Q 290.51 101.61 291.09 99.76
  L 291.28 99.17
  Q 291.78 97.58 293.22 98.44
  Q 299.16 102.02 304.54 100.66
  Q 307.67 99.86 307.64 96.84
  A 1.54 1.50 -70.3 0 0 307.13 95.72
  C 305.08 93.94 300.86 93.27 298.23 92.58
  C 293.17 91.25 289.93 87.96 292.09 82.41
  C 294.78 75.47 305.83 76.09 310.81 79.64
  Q 312.20 80.63 311.98 82.33
  Q 311.95 82.60 311.82 82.85
  Q 310.93 84.63 309.29 83.50
  C 305.92 81.18 298.17 79.15 296.39 84.20
  C 295.87 85.67 296.77 87.21 298.18 87.75
  Z"
/>
<path fill="#7249fc" d="
  M 159.89 81.29
  L 153.16 81.24
  Q 151.34 81.23 151.37 79.41
  L 151.37 79.12
  Q 151.40 77.26 153.25 77.26
  L 172.96 77.24
  Q 174.92 77.24 175.11 79.20
  Q 175.13 79.47 175.08 79.75
  Q 174.79 81.25 173.25 81.25
  L 166.07 81.25
  A 0.44 0.44 0.0 0 0 165.63 81.69
  L 165.69 103.16
  A 1.79 1.76 68.1 0 1 165.16 104.43
  Q 164.18 105.39 163.14 105.28
  Q 160.74 105.02 160.75 102.62
  L 160.75 82.15
  A 0.86 0.86 0.0 0 0 159.89 81.29
  Z"
/>
<path fill="#7249fc" d="
  M 235.02 81.27
  L 227.54 81.24
  Q 226.09 81.23 226.07 79.79
  L 226.06 79.30
  Q 226.03 77.44 227.89 77.38
  Q 237.56 77.06 248.36 77.45
  A 1.69 1.69 0.0 0 1 249.96 79.48
  Q 249.93 79.66 249.88 79.84
  Q 249.56 81.22 248.15 81.23
  L 241.18 81.26
  A 0.80 0.80 0.0 0 0 240.38 82.06
  L 240.37 102.91
  Q 240.37 105.19 238.09 105.22
  L 237.36 105.23
  Q 235.26 105.26 235.26 103.16
  L 235.35 81.61
  A 0.34 0.33 90.0 0 0 235.02 81.27
  Z"
/>
<ellipse fill="#ffffff" cx="0.00" cy="0.00" transform="translate(106.63,91.06) rotate(89.8)" rx="10.18" ry="8.26"/>
<path fill="#ffffff" d="
  M 181.21 94.07
  L 185.98 83.54
  A 0.32 0.32 0.0 0 1 186.56 83.54
  L 191.36 94.05
  A 0.32 0.32 0.0 0 1 191.07 94.50
  L 181.50 94.52
  A 0.32 0.32 0.0 0 1 181.21 94.07
  Z"
/>
<path fill="#ebe5ff" d="
  M 471.58 269.54
  Q 473.14 272.70 474.54 275.25
  Q 477.85 281.28 483.34 285.41
  Q 484.49 286.27 484.37 288.21
  L 484.25 291.85
  L 484.53 298.52
  C 482.90 298.96 480.53 298.61 480.34 300.85
  Q 479.86 306.50 480.04 312.22
  C 480.14 315.39 475.67 315.54 473.56 315.55
  C 458.97 315.55 445.95 316.09 438.28 330.73
  C 424.59 356.86 413.63 383.86 404.23 411.48
  Q 396.19 408.44 388.50 407.20
  Q 382.90 406.30 377.84 408.18
  Q 372.11 404.49 372.25 398.75
  Q 372.40 393.03 372.04 387.20
  L 372.20 381.02
  Q 373.52 379.58 375.31 378.04
  Q 384.74 369.91 385.40 357.81
  A 1.19 1.19 0.0 0 1 386.53 356.69
  Q 395.16 356.27 399.00 348.35
  Q 400.20 345.89 399.37 342.97
  Q 397.67 336.95 391.02 336.65
  C 395.22 331.88 393.76 327.88 391.50 322.75
  A 1.16 1.16 0.0 0 1 391.54 321.73
  Q 392.04 320.78 392.63 319.89
  Q 396.33 314.20 395.78 306.66
  C 395.21 298.98 387.40 297.37 381.25 296.97
  C 370.33 296.25 359.32 297.15 349.68 300.53
  Q 348.40 300.98 348.48 299.62
  Q 348.62 297.26 347.08 295.97
  A 1.25 1.23 -31.3 0 0 345.98 295.71
  C 341.09 296.93 335.89 304.48 332.99 308.46
  Q 331.23 310.88 328.57 313.16
  Q 326.01 315.35 323.65 317.50
  Q 314.94 291.33 303.91 266.08
  Q 302.80 263.53 297.71 256.82
  C 296.29 254.96 295.01 252.13 294.14 249.95
  Q 291.06 242.21 286.80 234.99
  Q 287.01 230.74 281.29 230.24
  C 277.73 208.28 258.66 195.24 236.83 199.49
  C 218.65 203.03 207.21 218.15 206.44 236.50
  Q 202.17 240.59 203.49 246.01
  Q 203.79 247.28 204.82 248.83
  Q 205.85 250.38 206.55 251.48
  Q 207.31 261.21 210.77 269.23
  C 211.24 270.31 211.38 271.22 210.97 272.34
  Q 207.37 282.21 210.21 290.69
  Q 210.38 291.22 210.21 291.74
  Q 207.81 298.88 209.32 306.25
  C 206.25 306.87 203.40 307.31 200.44 308.40
  Q 191.51 311.68 185.80 316.07
  Q 168.43 329.46 134.15 354.62
  Q 132.75 355.65 133.66 356.39
  Q 131.09 356.19 129.80 353.70
  C 123.65 341.86 117.31 330.53 112.42 317.84
  Q 106.65 302.90 105.79 288.70
  C 104.26 263.37 115.81 239.02 130.74 219.10
  Q 141.83 204.30 156.18 190.19
  C 175.02 171.65 197.12 155.74 221.65 147.76
  Q 243.29 140.72 266.21 144.04
  C 277.46 145.67 289.08 150.26 299.44 155.78
  Q 305.89 159.22 311.42 163.06
  Q 329.32 175.49 342.96 188.97
  Q 361.07 206.87 377.81 223.09
  Q 384.49 229.57 393.67 236.90
  Q 402.36 243.85 410.52 248.82
  Q 433.42 262.79 457.42 267.49
  Q 465.15 269.00 470.73 270.93
  Q 471.24 271.10 471.50 270.64
  Q 471.72 270.26 471.58 269.54
  Z"
/>
<path fill="#7249fc" d="
  M 378.87 195.54
  L 379.01 195.78
  Q 379.20 196.10 379.45 195.83
  L 397.54 176.24
  Q 398.02 175.72 398.57 176.17
  L 408.36 184.15
  A 1.62 1.61 44.8 0 0 410.41 184.15
  L 420.64 175.75
  A 0.45 0.44 54.3 0 1 421.30 175.86
  Q 422.38 177.59 423.87 179.17
  Q 431.47 187.26 438.94 195.42
  A 0.52 0.52 0.0 0 0 439.68 195.46
  L 439.92 195.24
  Q 440.14 195.05 439.94 194.83
  L 422.59 175.84
  Q 421.60 174.76 422.74 173.84
  Q 431.70 166.57 439.09 160.33
  Q 439.75 159.77 440.27 158.98
  Q 440.55 158.56 440.90 158.92
  Q 441.40 159.44 441.40 160.17
  Q 441.53 177.69 441.37 194.68
  A 3.31 3.31 0.0 0 1 438.06 197.96
  L 380.95 197.97
  A 3.24 3.24 0.0 0 1 377.71 194.75
  Q 377.61 176.98 377.66 161.85
  Q 377.67 159.56 378.44 157.26
  A 0.93 0.93 0.0 0 1 379.32 156.64
  L 439.56 156.59
  A 0.99 0.98 -6.7 0 1 440.52 157.34
  Q 440.78 158.36 439.86 158.58
  Q 439.29 158.72 438.83 159.09
  L 410.28 182.79
  A 1.24 1.23 -45.2 0 1 408.70 182.80
  L 379.63 159.03
  A 0.34 0.34 0.0 0 0 379.12 159.12
  L 378.97 159.38
  Q 378.69 159.85 379.11 160.19
  L 396.59 174.46
  Q 397.15 174.92 396.66 175.46
  L 378.96 194.70
  A 0.71 0.70 -39.2 0 0 378.87 195.54
  Z"
/>
<path fill="#f9b038" d="
  M 531.22 271.12
  L 530.21 271.51
  Q 530.40 268.87 531.28 265.26
  Q 532.59 259.84 532.68 253.51
  Q 532.76 248.32 531.80 245.33
  Q 531.47 235.84 525.62 227.61
  C 518.40 217.45 507.53 212.44 495.68 209.71
  A 0.66 0.65 -53.9 0 0 495.19 209.79
  Q 474.51 222.33 470.72 245.44
  Q 469.37 257.55 471.86 269.81
  Q 463.42 263.44 456.67 255.07
  Q 451.86 249.09 452.28 242.02
  C 453.56 220.82 466.06 203.49 483.87 192.44
  C 494.73 185.69 507.12 189.60 516.49 196.86
  Q 518.33 198.28 520.37 199.07
  Q 526.45 201.43 531.08 206.47
  Q 544.40 220.93 547.58 239.78
  C 549.12 248.88 547.64 255.76 541.51 262.70
  Q 537.11 267.68 531.22 271.12
  Z"
/>
<path fill="#0a334b" d="
  M 281.29 230.24
  L 278.59 234.11
  Q 273.76 239.24 271.58 244.85
  Q 270.74 247.02 269.91 244.84
  C 269.27 243.15 268.64 240.60 267.11 239.60
  C 265.49 238.53 264.03 238.84 262.25 238.97
  A 0.93 0.93 0.0 0 1 261.36 238.49
  C 259.61 235.33 256.04 236.14 253.07 236.26
  Q 252.03 236.30 251.95 235.27
  Q 251.94 235.10 251.97 234.95
  Q 252.21 233.30 253.86 233.11
  Q 255.08 232.96 256.29 233.10
  Q 258.50 233.35 257.14 231.58
  Q 253.09 226.31 249.84 220.03
  Q 249.28 218.95 249.02 220.14
  C 247.83 225.69 243.33 229.65 238.59 232.59
  Q 238.02 232.95 238.36 233.52
  L 239.13 234.83
  Q 239.46 235.38 239.17 235.94
  Q 239.01 236.25 238.65 236.33
  Q 237.87 236.50 237.07 236.30
  Q 231.79 234.96 229.38 238.94
  A 0.73 0.73 0.0 0 1 228.46 239.23
  Q 227.83 238.95 227.35 238.44
  Q 226.83 237.89 226.09 237.99
  Q 223.67 238.33 221.97 239.20
  C 220.13 240.14 219.99 242.89 219.03 244.64
  Q 218.44 245.73 217.85 244.64
  Q 215.74 240.74 214.08 236.54
  C 213.53 235.14 212.17 234.66 210.75 235.03
  Q 208.70 235.58 206.44 236.50
  C 207.21 218.15 218.65 203.03 236.83 199.49
  C 258.66 195.24 277.73 208.28 281.29 230.24
  Z"
/>
<path fill="#7249fc" d="
  M 105.31 217.53
  C 105.37 219.17 105.70 220.81 105.31 222.44
  C 103.26 231.05 90.92 231.76 88.34 223.13
  Q 86.75 217.79 91.01 213.43
  Q 91.40 213.02 91.26 212.48
  C 89.57 206.07 93.87 199.88 100.67 200.45
  C 107.70 201.04 110.97 207.66 108.16 213.96
  C 107.62 215.15 106.76 215.80 105.77 216.57
  Q 105.29 216.93 105.31 217.53
  Z"
/>
<path fill="#ffffff" d="
  M 104.00 215.05
  C 100.88 211.74 97.96 210.70 93.31 211.91
  Q 92.65 212.08 92.47 211.42
  Q 91.51 207.92 94.22 204.76
  C 99.75 198.29 109.21 203.76 107.35 211.65
  Q 106.88 213.67 105.38 215.09
  A 0.98 0.98 0.0 0 1 104.00 215.05
  Z"
/>
<path fill="#5d6146" d="
  M 516.18 203.73
  C 525.74 208.08 536.70 217.89 538.48 228.75
  A 0.22 0.21 -24.9 0 1 538.40 228.95
  L 538.16 229.13
  A 0.56 0.56 0.0 0 1 537.28 228.87
  Q 532.54 215.58 520.56 208.08
  Q 518.18 206.59 515.88 205.15
  A 0.76 0.75 -64.3 0 1 515.57 204.26
  L 515.68 203.95
  A 0.37 0.37 0.0 0 1 516.18 203.73
  Z"
/>
<path fill="#0a334b" d="
  M 531.80 245.33
  C 530.29 246.17 528.92 247.31 527.25 247.38
  Q 525.55 247.45 525.57 245.62
  C 525.61 241.72 526.78 236.34 524.83 232.74
  C 523.17 229.68 519.33 227.86 515.97 229.53
  C 514.09 230.47 512.46 231.66 510.45 232.36
  C 501.56 235.46 496.44 230.39 489.79 225.91
  Q 484.80 222.55 481.58 227.33
  C 477.76 233.00 476.56 239.35 475.82 246.11
  A 2.06 2.06 0.0 0 1 473.75 247.95
  Q 472.06 247.94 470.72 245.44
  Q 474.51 222.33 495.19 209.79
  A 0.66 0.65 -53.9 0 1 495.68 209.71
  C 507.53 212.44 518.40 217.45 525.62 227.61
  Q 531.47 235.84 531.80 245.33
  Z"
/>
<path fill="#7249fc" d="
  M 577.45 231.55
  C 577.00 230.69 576.53 229.68 576.57 228.68
  Q 576.99 218.30 585.80 215.12
  C 590.62 213.38 596.34 214.74 599.82 218.52
  C 606.30 225.55 604.11 236.37 595.20 240.39
  Q 594.79 240.58 594.69 241.02
  C 594.28 242.80 594.42 244.70 593.66 246.39
  Q 590.19 254.15 581.99 253.57
  C 577.06 253.21 572.88 249.17 572.08 244.26
  Q 571.22 238.94 574.99 234.65
  C 575.70 233.85 576.61 233.31 577.33 232.52
  A 0.84 0.83 52.2 0 0 577.45 231.55
  Z"
/>
<path fill="#ffffff" d="
  M 595.73 217.39
  C 604.75 222.22 603.62 234.20 595.11 238.68
  A 0.96 0.96 0.0 0 1 593.81 238.27
  C 591.24 233.36 587.14 230.49 581.90 231.28
  Q 580.73 231.45 579.48 231.50
  Q 578.86 231.52 578.74 230.92
  Q 577.41 224.25 581.78 219.58
  C 585.28 215.84 591.29 215.01 595.73 217.39
  Z"
/>
<path fill="#ee8c5b" d="
  M 278.59 234.11
  L 273.79 262.24
  Q 272.87 261.88 272.72 262.50
  Q 271.17 268.99 266.52 273.77
  Q 264.49 275.86 262.38 277.86
  Q 261.90 278.33 261.63 278.96
  Q 260.97 278.94 260.71 279.12
  C 254.22 283.49 247.31 287.51 239.38 284.13
  C 232.12 281.03 224.97 275.81 220.89 269.02
  C 218.36 264.79 217.60 260.37 216.74 255.72
  Q 216.62 255.07 215.96 255.06
  Q 211.26 255.06 206.55 251.48
  Q 205.85 250.38 204.82 248.83
  Q 203.79 247.28 203.49 246.01
  Q 202.17 240.59 206.44 236.50
  Q 208.70 235.58 210.75 235.03
  C 212.17 234.66 213.53 235.14 214.08 236.54
  Q 215.74 240.74 217.85 244.64
  Q 218.44 245.73 219.03 244.64
  C 219.99 242.89 220.13 240.14 221.97 239.20
  Q 223.67 238.33 226.09 237.99
  Q 226.83 237.89 227.35 238.44
  Q 227.83 238.95 228.46 239.23
  A 0.73 0.73 0.0 0 0 229.38 238.94
  Q 231.79 234.96 237.07 236.30
  Q 237.87 236.50 238.65 236.33
  Q 239.01 236.25 239.17 235.94
  Q 239.46 235.38 239.13 234.83
  L 238.36 233.52
  Q 238.02 232.95 238.59 232.59
  C 243.33 229.65 247.83 225.69 249.02 220.14
  Q 249.28 218.95 249.84 220.03
  Q 253.09 226.31 257.14 231.58
  Q 258.50 233.35 256.29 233.10
  Q 255.08 232.96 253.86 233.11
  Q 252.21 233.30 251.97 234.95
  Q 251.94 235.10 251.95 235.27
  Q 252.03 236.30 253.07 236.26
  C 256.04 236.14 259.61 235.33 261.36 238.49
  A 0.93 0.93 0.0 0 0 262.25 238.97
  C 264.03 238.84 265.49 238.53 267.11 239.60
  C 268.64 240.60 269.27 243.15 269.91 244.84
  Q 270.74 247.02 271.58 244.85
  Q 273.76 239.24 278.59 234.11
  Z"
/>
<path stroke="#6d524a" stroke-width="2.00" fill="none" stroke-linecap="butt" vector-effect="non-scaling-stroke" d="
  M 234.76 255.23
  Q 234.45 259.03 237.51 261.24
  Q 237.90 261.52 237.63 261.91
  Q 237.19 262.55 237.50 262.97"
/>
<path fill="#0a334b" d="
  M 468.53 255.75
  A 0.55 0.54 -4.9 0 1 467.99 256.38
  L 467.74 256.38
  Q 467.13 256.37 467.04 255.77
  Q 463.89 234.96 478.43 220.03
  A 0.78 0.78 0.0 0 1 479.28 219.84
  L 479.59 219.97
  A 0.30 0.29 32.4 0 1 479.70 220.45
  Q 471.23 229.07 468.49 241.51
  Q 467.11 247.74 468.53 255.75
  Z"
/>
<path fill="#d07149" d="
  M 531.80 245.33
  Q 532.76 248.32 532.68 253.51
  Q 532.59 259.84 531.28 265.26
  Q 530.40 268.87 530.21 271.51
  Q 526.37 280.06 519.01 286.03
  Q 518.40 286.52 517.96 287.25
  Q 517.02 287.15 516.49 287.53
  Q 511.42 291.17 506.70 292.82
  C 498.70 295.62 491.89 291.36 485.25 287.13
  A 0.55 0.55 0.0 0 0 484.41 287.55
  L 484.37 288.21
  Q 484.49 286.27 483.34 285.41
  Q 477.85 281.28 474.54 275.25
  Q 473.14 272.70 471.58 269.54
  Q 471.72 269.68 471.86 269.81
  Q 469.37 257.55 470.72 245.44
  Q 472.06 247.94 473.75 247.95
  A 2.06 2.06 0.0 0 0 475.82 246.11
  C 476.56 239.35 477.76 233.00 481.58 227.33
  Q 484.80 222.55 489.79 225.91
  C 496.44 230.39 501.56 235.46 510.45 232.36
  C 512.46 231.66 514.09 230.47 515.97 229.53
  C 519.33 227.86 523.17 229.68 524.83 232.74
  C 526.78 236.34 525.61 241.72 525.57 245.62
  Q 525.55 247.45 527.25 247.38
  C 528.92 247.31 530.29 246.17 531.80 245.33
  Z"
/>
<path fill="#655ba7" d="
  M 281.29 230.24
  Q 287.01 230.74 286.80 234.99
  L 283.72 250.79
  L 282.74 255.25
  L 279.57 270.94
  Q 276.92 272.20 275.24 271.76
  C 271.33 270.73 273.21 264.94 273.79 262.24
  L 278.59 234.11
  L 281.29 230.24
  Z"
/>
<path fill="#ee8c5b" d="
  M 286.80 234.99
  Q 291.06 242.21 294.14 249.95
  C 295.01 252.13 296.29 254.96 297.71 256.82
  Q 302.80 263.53 303.91 266.08
  Q 314.94 291.33 323.65 317.50
  Q 318.19 323.55 321.38 330.92
  Q 322.39 333.23 323.33 335.49
  C 320.79 336.58 317.49 337.05 315.75 339.01
  Q 310.67 344.74 315.66 351.21
  Q 319.76 356.52 326.36 356.71
  A 1.21 1.21 0.0 0 1 327.52 357.83
  Q 328.24 368.32 335.40 376.10
  Q 336.84 377.67 340.49 380.84
  L 340.55 386.94
  Q 340.30 392.04 340.30 396.93
  Q 340.30 401.99 339.15 403.87
  Q 337.33 406.80 332.98 408.34
  Q 328.95 406.13 323.50 407.38
  Q 321.13 407.92 318.81 408.70
  Q 305.32 413.21 293.68 422.11
  L 288.63 412.37
  Q 289.04 411.02 289.63 410.15
  Q 297.82 398.15 305.05 386.97
  Q 306.05 385.43 306.04 387.27
  L 305.94 403.34
  Q 305.94 403.93 306.37 404.32
  Q 306.78 404.70 307.33 404.92
  A 1.15 1.15 0.0 0 1 308.04 405.83
  L 308.61 409.95
  A 0.77 0.76 85.8 0 0 309.38 410.62
  L 309.78 410.62
  Q 310.27 410.61 310.22 410.13
  Q 309.21 399.00 308.35 387.84
  C 308.15 385.30 307.10 382.96 306.77 380.37
  Q 302.25 344.53 294.16 309.45
  L 286.28 275.88
  A 3.01 2.97 -82.0 0 0 284.87 273.98
  L 279.57 270.94
  L 282.74 255.25
  Q 284.50 254.65 285.87 252.76
  A 1.20 1.20 0.0 0 0 284.96 250.86
  L 283.72 250.79
  L 286.80 234.99
  Z"
/>
<path fill="#0a334b" d="
  M 493.15 241.07
  C 489.41 239.88 486.24 240.46 484.08 243.68
  A 1.25 1.24 22.3 0 1 482.80 244.21
  Q 481.48 243.95 481.64 242.76
  C 482.28 238.14 490.00 236.44 493.59 238.24
  A 1.49 1.49 0.0 0 1 494.37 239.89
  L 494.25 240.44
  A 0.86 0.85 -74.6 0 1 493.15 241.07
  Z"
/>
<path fill="#0a334b" d="
  M 517.44 242.42
  C 515.61 240.15 512.11 240.28 509.49 240.94
  Q 508.47 241.20 508.07 240.22
  Q 507.99 240.02 507.99 239.81
  Q 507.95 238.52 509.17 238.10
  Q 515.13 236.09 519.73 240.42
  Q 520.86 241.48 520.87 243.05
  Q 520.87 243.33 520.75 243.58
  Q 520.20 244.73 519.15 244.01
  Q 518.20 243.36 517.44 242.42
  Z"
/>
<path fill="#0a334b" d="
  M 248.41 253.32
  C 248.88 255.87 246.40 258.82 243.81 258.79
  A 1.11 1.10 -71.1 0 1 242.94 257.01
  C 244.20 255.36 245.97 255.18 245.41 252.45
  C 244.71 249.06 243.53 245.49 243.98 242.00
  Q 244.05 241.42 244.61 241.23
  Q 245.51 240.91 246.30 241.35
  Q 246.77 241.61 246.83 242.16
  Q 247.37 247.69 248.41 253.32
  Z"
/>
<ellipse fill="#0a334b" cx="0.00" cy="0.00" transform="translate(234.48,246.57) rotate(90.0)" rx="4.48" ry="2.72"/>
<ellipse fill="#0a334b" cx="0.00" cy="0.00" transform="translate(256.70,246.57) rotate(90.5)" rx="4.42" ry="2.76"/>
<path fill="#0a334b" d="
  M 501.54 258.11
  C 500.96 260.46 502.24 261.87 504.01 263.05
  A 1.14 1.14 0.0 0 1 504.30 264.69
  Q 503.44 265.83 502.32 265.32
  C 498.22 263.44 497.58 259.95 498.75 255.88
  Q 499.97 251.63 500.17 247.29
  A 1.13 1.12 4.2 0 1 501.40 246.23
  L 501.75 246.26
  A 1.64 1.63 4.8 0 1 503.23 248.01
  Q 502.88 252.62 501.54 258.11
  Z"
/>
<ellipse fill="#0a334b" cx="0.00" cy="0.00" transform="translate(489.44,252.10) rotate(89.5)" rx="4.78" ry="2.94"/>
<ellipse fill="#0a334b" cx="0.00" cy="0.00" transform="translate(513.20,252.08) rotate(89.7)" rx="4.75" ry="2.94"/>
<path fill="#ebe5ff" d="
  M 283.72 250.79
  L 284.96 250.86
  A 1.20 1.20 0.0 0 1 285.87 252.76
  Q 284.50 254.65 282.74 255.25
  L 283.72 250.79
  Z"
/>
<path fill="#0a334b" d="
  M 261.63 278.96
  L 261.45 284.54
  C 257.18 287.95 249.41 292.41 243.76 291.43
  Q 238.41 290.50 233.33 286.98
  Q 232.86 286.66 232.76 287.21
  Q 231.93 291.89 232.64 295.75
  C 233.48 300.38 232.83 304.87 230.03 308.72
  Q 229.67 309.20 229.68 309.79
  C 229.70 311.19 230.73 312.54 231.06 313.92
  Q 231.90 317.37 232.31 320.76
  L 229.61 329.08
  A 3.02 3.00 42.7 0 0 229.70 331.19
  C 231.98 336.51 232.74 344.81 228.46 349.40
  Q 227.45 350.48 226.58 351.63
  A 1.03 1.02 -40.2 0 0 226.48 352.70
  Q 228.62 356.98 228.49 361.00
  Q 228.36 365.12 228.85 367.23
  Q 226.36 369.78 224.23 368.66
  L 209.49 366.86
  A 2.37 2.35 0.5 0 1 207.43 364.78
  L 207.15 362.25
  A 0.95 0.95 0.0 0 0 205.42 361.82
  Q 201.95 366.98 197.33 369.98
  L 196.15 365.68
  Q 200.48 362.70 204.91 359.53
  Q 206.90 358.11 207.61 356.44
  Q 208.72 353.86 210.53 351.63
  Q 211.02 351.03 210.49 350.48
  C 205.58 345.35 207.13 337.17 209.36 331.06
  A 2.81 2.81 0.0 0 0 209.26 328.90
  C 206.60 323.26 207.90 316.16 210.00 310.54
  C 210.50 309.21 210.36 307.22 209.32 306.25
  Q 207.81 298.88 210.21 291.74
  Q 210.38 291.22 210.21 290.69
  Q 207.37 282.21 210.97 272.34
  C 211.38 271.22 211.24 270.31 210.77 269.23
  Q 207.31 261.21 206.55 251.48
  Q 211.26 255.06 215.96 255.06
  Q 216.62 255.07 216.74 255.72
  C 217.60 260.37 218.36 264.79 220.89 269.02
  C 224.97 275.81 232.12 281.03 239.38 284.13
  C 247.31 287.51 254.22 283.49 260.71 279.12
  Q 260.97 278.94 261.63 278.96
  Z"
/>
<path fill="#d07149" d="
  M 234.76 255.23
  Q 234.45 259.03 237.51 261.24
  Q 237.90 261.52 237.63 261.91
  Q 237.19 262.55 237.50 262.97
  L 235.85 262.69
  Q 235.33 262.60 234.96 262.98
  Q 234.10 263.86 233.12 264.62
  C 229.74 267.23 225.20 266.89 222.82 263.19
  Q 221.04 260.43 221.74 256.88
  Q 222.25 254.28 225.33 252.79
  Q 230.25 250.42 234.76 255.23
  Z"
/>
<circle fill="#d07149" cx="262.64" cy="259.19" r="7.16"/>
<path fill="#0a334b" d="
  M 234.76 255.23
  Q 236.78 258.41 239.08 259.96
  Q 240.51 260.92 241.98 260.79
  Q 243.64 260.64 245.29 260.51
  Q 246.07 260.44 246.18 261.22
  L 246.23 261.58
  A 0.47 0.46 -7.0 0 1 245.81 262.11
  L 237.50 262.97
  Q 237.19 262.55 237.63 261.91
  Q 237.90 261.52 237.51 261.24
  Q 234.45 259.03 234.76 255.23
  Z"
/>
<path fill="#7249fc" d="
  M 166.08 282.65
  A 23.95 23.95 0.0 0 1 142.13 306.60
  A 23.95 23.95 0.0 0 1 118.18 282.65
  A 23.95 23.95 0.0 0 1 142.13 258.70
  A 23.95 23.95 0.0 0 1 166.08 282.65
  Z"
/>
<path fill="#ebe5ff" d="
  M 141.41 261.13
  L 141.21 274.00
  A 0.84 0.84 0.0 0 1 140.37 274.83
  L 132.99 274.79
  A 0.84 0.84 0.0 0 1 132.18 273.73
  L 135.45 261.83
  A 0.84 0.84 0.0 0 1 136.08 261.23
  L 140.40 260.29
  A 0.84 0.84 0.0 0 1 141.41 261.13
  Z"
/>
<path fill="#ebe5ff" d="
  M 143.28 273.46
  L 143.18 261.60
  A 1.30 1.30 0.0 0 1 144.82 260.34
  L 148.14 261.26
  A 1.30 1.30 0.0 0 1 149.04 262.14
  L 152.36 273.27
  A 1.30 1.30 0.0 0 1 151.07 274.94
  L 144.54 274.75
  A 1.30 1.30 0.0 0 1 143.28 273.46
  Z"
/>
<path fill="#0a334b" d="
  M 508.14 269.05
  L 500.88 268.59
  A 0.42 0.42 0.0 0 1 500.49 268.13
  L 500.55 267.61
  Q 500.62 266.84 501.38 267.01
  C 505.51 267.92 509.56 267.64 511.28 263.01
  Q 511.52 262.34 512.20 262.13
  L 512.47 262.04
  Q 513.17 261.82 513.03 262.54
  Q 512.58 264.85 511.02 266.95
  A 1.07 1.06 -36.0 0 0 510.86 267.93
  L 511.12 268.66
  A 0.77 0.77 0.0 0 1 510.62 269.64
  Q 509.49 269.99 508.75 269.30
  Q 508.49 269.07 508.14 269.05
  Z"
/>
<path fill="#ebe5ff" d="
  M 273.79 262.24
  C 273.21 264.94 271.33 270.73 275.24 271.76
  Q 276.92 272.20 279.57 270.94
  L 284.87 273.98
  A 3.01 2.97 -82.0 0 1 286.28 275.88
  L 294.16 309.45
  Q 292.35 308.43 290.93 307.90
  Q 279.93 303.80 268.37 305.55
  Q 261.81 304.37 261.69 296.75
  Q 261.59 290.59 261.45 284.54
  L 261.63 278.96
  Q 261.90 278.33 262.38 277.86
  Q 264.49 275.86 266.52 273.77
  Q 271.17 268.99 272.72 262.50
  Q 272.87 261.88 273.79 262.24
  Z"
/>
<path fill="#ebe5ff" d="
  M 132.93 264.23
  Q 131.20 269.11 130.29 273.90
  A 1.32 1.31 -84.4 0 1 129.00 274.96
  L 122.41 274.91
  A 0.83 0.83 0.0 0 1 121.69 273.68
  Q 125.57 266.73 131.55 263.11
  Q 133.81 261.73 132.93 264.23
  Z"
/>
<path fill="#ebe5ff" d="
  M 159.38 268.44
  L 162.47 273.50
  A 0.93 0.93 0.0 0 1 161.67 274.91
  L 155.40 274.87
  A 0.93 0.93 0.0 0 1 154.51 274.21
  L 151.39 263.84
  A 0.93 0.93 0.0 0 1 152.88 262.87
  L 159.19 268.21
  A 0.93 0.93 0.0 0 1 159.38 268.44
  Z"
/>
<path fill="#ebe5ff" d="
  M 531.22 271.12
  Q 532.29 272.23 533.63 271.98
  Q 535.58 271.61 535.63 271.61
  Q 548.00 271.34 562.24 273.21
  Q 591.21 277.01 612.57 295.56
  Q 604.61 295.84 597.25 295.82
  Q 593.55 295.80 592.06 296.68
  Q 589.37 298.27 589.38 301.74
  Q 589.43 320.82 589.36 341.32
  Q 589.34 347.94 596.51 347.96
  Q 612.25 348.01 627.51 348.02
  Q 626.90 348.68 628.47 350.86
  Q 628.77 351.27 628.65 351.76
  Q 627.80 355.24 626.58 358.60
  Q 621.90 371.58 614.69 383.70
  Q 593.85 358.79 571.92 335.58
  Q 566.53 329.89 560.61 324.01
  C 554.93 318.39 550.14 315.86 542.68 315.36
  Q 535.33 314.86 527.60 314.68
  Q 524.42 314.61 524.46 311.44
  Q 524.52 306.09 523.77 301.40
  Q 523.49 299.66 521.74 299.90
  L 517.96 300.40
  L 517.97 293.01
  L 517.96 287.25
  Q 518.40 286.52 519.01 286.03
  Q 526.37 280.06 530.21 271.51
  L 531.22 271.12
  Z"
/>
<path fill="#0a334b" d="
  M 505.03 275.82
  C 508.76 279.20 504.92 286.56 502.18 289.27
  A 1.02 1.02 0.0 0 1 500.66 289.18
  Q 497.75 285.46 496.93 280.77
  C 496.13 276.20 501.30 272.45 505.03 275.82
  Z"
/>
<path fill="#ebe5ff" d="
  M 120.28 288.59
  L 120.10 277.62
  A 1.17 1.17 0.0 0 1 121.27 276.43
  L 128.56 276.40
  A 1.17 1.17 0.0 0 1 129.74 277.62
  L 129.34 288.80
  A 1.17 1.17 0.0 0 1 128.14 289.93
  L 121.42 289.74
  A 1.17 1.17 0.0 0 1 120.28 288.59
  Z"
/>
<rect fill="#ebe5ff" x="-4.96" y="-6.66" transform="translate(136.40,283.16) rotate(0.8)" width="9.92" height="13.32" rx="1.04"/>
<rect fill="#ebe5ff" x="-4.90" y="-6.68" transform="translate(148.07,283.17) rotate(-0.2)" width="9.80" height="13.36" rx="1.15"/>
<path fill="#ebe5ff" d="
  M 154.62 277.46
  A 1.03 1.03 0.0 0 1 155.65 276.42
  L 161.20 276.40
  A 3.53 3.08 89.8 0 1 164.29 279.92
  L 164.31 286.36
  A 3.53 3.08 89.8 0 1 161.24 289.90
  L 155.69 289.92
  A 1.03 1.03 0.0 0 1 154.66 288.90
  L 154.62 277.46
  Z"
/>
<path fill="#ee8c5b" d="
  M 261.45 284.54
  Q 261.59 290.59 261.69 296.75
  Q 261.81 304.37 268.37 305.55
  Q 269.25 307.19 271.15 307.68
  A 2.14 2.13 28.0 0 1 272.22 311.16
  Q 270.89 312.67 272.18 314.10
  C 273.18 315.20 272.80 316.73 271.72 317.60
  Q 270.87 318.29 271.66 319.05
  Q 272.49 319.83 272.81 320.84
  Q 272.97 321.36 272.69 321.83
  L 271.69 323.47
  Q 271.41 323.93 271.58 324.45
  C 271.89 325.39 272.62 325.94 272.50 327.03
  C 272.36 328.29 271.23 329.03 271.64 330.41
  Q 271.88 331.25 271.85 332.10
  Q 271.12 348.39 268.35 362.73
  Q 265.79 376.00 259.84 384.87
  Q 256.95 389.17 250.96 391.49
  C 243.32 394.46 234.94 388.59 230.88 382.38
  Q 227.33 376.95 224.23 368.66
  Q 226.36 369.78 228.85 367.23
  Q 231.01 375.46 235.96 381.79
  C 243.56 391.52 253.71 388.37 258.57 378.37
  C 262.29 370.72 263.99 363.04 265.39 354.75
  C 266.41 348.71 266.66 342.76 267.26 336.74
  C 267.49 334.37 266.71 331.96 267.85 329.89
  A 1.04 1.04 0.0 0 0 267.76 328.75
  Q 266.25 326.80 267.95 324.73
  A 1.40 1.40 0.0 0 0 267.80 322.80
  C 266.15 321.35 267.36 319.81 268.47 318.62
  A 0.56 0.56 0.0 0 0 268.35 317.75
  C 265.77 316.19 268.10 314.08 268.44 312.30
  Q 268.56 311.68 268.03 311.35
  Q 266.49 310.38 265.51 311.79
  C 258.13 322.42 244.41 328.42 232.31 320.76
  Q 231.90 317.37 231.06 313.92
  C 230.73 312.54 229.70 311.19 229.68 309.79
  Q 229.67 309.20 230.03 308.72
  C 232.83 304.87 233.48 300.38 232.64 295.75
  Q 231.93 291.89 232.76 287.21
  Q 232.86 286.66 233.33 286.98
  Q 238.41 290.50 243.76 291.43
  C 249.41 292.41 257.18 287.95 261.45 284.54
  Z"
/>
<path fill="#0a334b" d="
  M 517.96 287.25
  L 517.97 293.01
  Q 513.31 296.61 508.41 298.68
  C 501.40 301.63 495.41 299.64 489.24 296.16
  Q 486.09 294.39 484.25 291.85
  L 484.37 288.21
  L 484.41 287.55
  A 0.55 0.55 0.0 0 1 485.25 287.13
  C 491.89 291.36 498.70 295.62 506.70 292.82
  Q 511.42 291.17 516.49 287.53
  Q 517.02 287.15 517.96 287.25
  Z"
/>
<path fill="#ebe5ff" d="
  M 129.74 292.64
  L 132.24 300.84
  A 1.24 1.24 0.0 0 1 130.15 302.05
  L 122.38 293.77
  A 1.24 1.24 0.0 0 1 123.31 291.68
  L 128.58 291.77
  A 1.24 1.24 0.0 0 1 129.74 292.64
  Z"
/>
<path fill="#ebe5ff" d="
  M 152.83 293.43
  L 149.33 303.31
  A 1.32 1.32 0.0 0 1 148.29 304.18
  L 144.72 304.72
  A 1.32 1.32 0.0 0 1 143.20 303.41
  L 143.24 293.04
  A 1.32 1.32 0.0 0 1 144.54 291.73
  L 151.58 291.67
  A 1.32 1.32 0.0 0 1 152.83 293.43
  Z"
/>
<path fill="#ebe5ff" d="
  M 155.34 291.57
  L 161.45 291.68
  A 0.70 0.70 0.0 0 1 162.06 292.71
  Q 159.14 298.13 153.21 302.13
  Q 152.70 302.48 152.08 302.44
  A 0.70 0.69 15.2 0 1 151.50 301.43
  Q 153.76 297.03 154.41 292.36
  A 0.93 0.93 0.0 0 1 155.34 291.57
  Z"
/>
<path fill="#d07149" d="
  M 484.25 291.85
  Q 486.09 294.39 489.24 296.16
  C 495.41 299.64 501.40 301.63 508.41 298.68
  Q 513.31 296.61 517.97 293.01
  L 517.96 300.40
  L 505.00 304.41
  A 1.95 1.94 8.5 0 0 503.98 305.16
  Q 503.00 306.60 502.89 308.79
  Q 502.86 309.37 502.35 309.53
  A 0.60 0.59 82.4 0 1 501.58 308.94
  Q 501.69 305.45 499.53 304.64
  Q 492.66 302.05 485.73 299.63
  Q 485.35 299.50 484.53 298.52
  L 484.25 291.85
  Z"
/>
<path fill="#ebe5ff" d="
  M 141.38 292.66
  L 141.24 303.88
  A 0.94 0.94 0.0 0 1 140.16 304.80
  L 136.02 304.14
  A 0.94 0.94 0.0 0 1 135.28 303.51
  L 131.70 292.99
  A 0.94 0.94 0.0 0 1 132.59 291.74
  L 140.43 291.70
  A 0.94 0.94 0.0 0 1 141.38 292.66
  Z"
/>
<path fill="#0a334b" d="
  M 391.02 336.65
  Q 387.42 341.82 382.23 346.07
  A 0.90 0.90 0.0 0 1 380.86 345.78
  Q 379.93 343.95 379.79 341.71
  Q 379.48 336.57 379.32 331.10
  Q 379.30 330.42 378.64 330.52
  Q 371.10 331.62 361.21 330.07
  Q 348.81 328.12 336.66 324.27
  Q 335.98 324.05 335.97 324.77
  Q 335.74 335.79 333.19 346.23
  A 1.37 1.36 24.8 0 1 331.06 347.01
  Q 329.48 345.86 328.40 344.03
  Q 325.89 339.76 323.33 335.49
  Q 322.39 333.23 321.38 330.92
  Q 318.19 323.55 323.65 317.50
  Q 326.01 315.35 328.57 313.16
  Q 331.23 310.88 332.99 308.46
  C 335.89 304.48 341.09 296.93 345.98 295.71
  A 1.25 1.23 -31.3 0 1 347.08 295.97
  Q 348.62 297.26 348.48 299.62
  Q 348.40 300.98 349.68 300.53
  C 359.32 297.15 370.33 296.25 381.25 296.97
  C 387.40 297.37 395.21 298.98 395.78 306.66
  Q 396.33 314.20 392.63 319.89
  Q 392.04 320.78 391.54 321.73
  A 1.16 1.16 0.0 0 0 391.50 322.75
  C 393.76 327.88 395.22 331.88 391.02 336.65
  Z"
/>
<path fill="#7249fc" d="
  M 612.57 295.56
  Q 623.57 295.89 635.50 295.75
  C 639.71 295.70 641.58 298.95 641.56 302.79
  Q 641.50 321.43 641.55 341.59
  Q 641.56 345.62 638.70 347.10
  C 636.00 348.50 630.94 348.04 627.51 348.02
  Q 612.25 348.01 596.51 347.96
  Q 589.34 347.94 589.36 341.32
  Q 589.43 320.82 589.38 301.74
  Q 589.37 298.27 592.06 296.68
  Q 593.55 295.80 597.25 295.82
  Q 604.61 295.84 612.57 295.56
  Z"
/>
<path fill="#f9b038" d="
  M 484.53 298.52
  Q 485.35 299.50 485.73 299.63
  Q 492.66 302.05 499.53 304.64
  Q 501.69 305.45 501.58 308.94
  A 0.60 0.59 82.4 0 0 502.35 309.53
  Q 502.86 309.37 502.89 308.79
  Q 503.00 306.60 503.98 305.16
  A 1.95 1.94 8.5 0 1 505.00 304.41
  L 517.96 300.40
  L 521.74 299.90
  Q 523.49 299.66 523.77 301.40
  Q 524.52 306.09 524.46 311.44
  Q 524.42 314.61 527.60 314.68
  Q 535.33 314.86 542.68 315.36
  C 550.14 315.86 554.93 318.39 560.61 324.01
  Q 566.53 329.89 571.92 335.58
  Q 593.85 358.79 614.69 383.70
  Q 619.63 389.83 624.77 396.51
  Q 629.07 402.10 630.51 406.55
  C 634.32 418.34 629.42 431.09 618.92 437.26
  C 611.19 441.80 600.46 442.18 591.71 442.62
  L 577.60 443.36
  A 1.14 1.14 0.0 0 0 576.53 444.66
  Q 580.12 469.90 583.35 495.32
  Q 583.41 495.82 583.27 496.31
  Q 582.98 497.31 582.31 497.07
  L 519.17 499.08
  A 3.52 3.52 0.0 0 1 516.25 497.69
  Q 512.24 492.41 508.66 486.58
  Q 506.34 482.78 502.40 478.73
  L 502.52 446.22
  A 1.08 1.08 0.0 0 1 503.61 445.15
  Q 536.92 445.27 571.49 444.10
  Q 572.24 444.07 572.24 443.32
  L 572.24 443.00
  Q 572.24 442.64 571.89 442.65
  Q 532.71 443.65 493.79 443.18
  Q 493.30 443.18 493.10 442.73
  L 492.19 440.70
  L 490.81 419.23
  A 0.97 0.96 2.2 0 0 489.98 418.34
  Q 487.96 418.07 485.95 418.42
  C 484.01 418.75 482.82 417.51 481.63 416.26
  C 478.36 412.82 474.55 409.04 472.93 404.65
  A 0.97 0.97 0.0 0 0 471.37 404.27
  Q 467.66 407.64 469.84 411.93
  Q 471.51 415.22 473.01 418.65
  A 0.51 0.51 0.0 0 1 472.45 419.35
  C 468.79 418.67 465.47 417.94 462.01 419.73
  C 459.81 420.87 460.18 422.51 460.54 424.52
  Q 460.67 425.27 460.14 425.83
  L 458.60 427.47
  A 1.19 1.17 -39.8 0 0 458.46 428.93
  L 460.12 431.49
  Q 460.48 432.05 460.03 432.54
  L 458.79 433.87
  A 2.08 2.08 0.0 0 0 458.82 436.74
  Q 460.27 438.23 460.42 440.12
  C 460.82 445.27 469.96 443.15 472.81 441.87
  Q 474.40 441.17 476.41 441.27
  Q 481.09 441.51 486.99 440.47
  Q 490.58 439.85 490.96 441.90
  C 490.70 443.53 490.87 445.31 492.86 445.26
  Q 496.85 445.18 500.10 445.22
  A 0.95 0.95 0.0 0 1 501.03 446.16
  L 501.49 479.04
  Q 496.80 486.90 492.94 496.56
  Q 492.37 496.73 491.76 496.01
  Q 470.31 470.78 447.16 447.09
  Q 446.73 446.64 446.97 446.27
  L 460.27 361.16
  A 0.63 0.62 -75.2 0 0 459.89 360.49
  Q 459.19 360.21 458.74 360.79
  A 3.29 2.83 -26.1 0 0 458.08 362.33
  Q 457.22 369.79 456.21 376.04
  Q 451.74 403.67 447.02 432.70
  Q 446.04 438.70 445.48 444.71
  Q 444.76 444.92 444.05 444.19
  C 434.92 434.76 425.16 426.04 414.34 418.57
  Q 409.29 415.08 404.23 411.48
  C 413.63 383.86 424.59 356.86 438.28 330.73
  C 445.95 316.09 458.97 315.55 473.56 315.55
  C 475.67 315.54 480.14 315.39 480.04 312.22
  Q 479.86 306.50 480.34 300.85
  C 480.53 298.61 482.90 298.96 484.53 298.52
  Z"
/>
<path fill="#1b5c98" d="
  M 294.16 309.45
  Q 302.25 344.53 306.77 380.37
  C 307.10 382.96 308.15 385.30 308.35 387.84
  Q 309.21 399.00 310.22 410.13
  Q 310.27 410.61 309.78 410.62
  L 309.38 410.62
  A 0.77 0.76 85.8 0 1 308.61 409.95
  L 308.04 405.83
  A 1.15 1.15 0.0 0 0 307.33 404.92
  Q 306.78 404.70 306.37 404.32
  Q 305.94 403.93 305.94 403.34
  L 306.04 387.27
  Q 306.05 385.43 305.05 386.97
  Q 297.82 398.15 289.63 410.15
  Q 289.04 411.02 288.63 412.37
  Q 286.35 410.80 285.55 408.17
  Q 284.20 403.74 283.57 408.33
  Q 283.46 409.16 283.79 411.25
  Q 284.01 412.59 284.63 414.02
  Q 287.08 419.61 289.63 425.27
  L 277.20 436.12
  Q 276.79 435.44 274.54 435.76
  Q 272.90 435.99 271.92 435.99
  Q 242.06 435.94 212.17 435.92
  Q 211.67 435.92 211.62 436.42
  Q 210.65 445.94 208.16 455.29
  Q 206.96 453.86 207.14 453.34
  Q 209.62 444.58 210.08 436.25
  Q 210.10 435.87 209.72 435.88
  L 195.41 436.18
  Q 195.05 434.65 196.35 432.36
  Q 201.86 422.70 206.50 411.01
  Q 207.89 407.50 207.20 404.76
  Q 204.52 394.14 197.33 369.98
  Q 201.95 366.98 205.42 361.82
  A 0.95 0.95 0.0 0 1 207.15 362.25
  L 207.43 364.78
  A 2.37 2.35 0.5 0 0 209.49 366.86
  L 224.23 368.66
  Q 227.33 376.95 230.88 382.38
  C 234.94 388.59 243.32 394.46 250.96 391.49
  Q 256.95 389.17 259.84 384.87
  Q 265.79 376.00 268.35 362.73
  Q 271.12 348.39 271.85 332.10
  Q 271.88 331.25 271.64 330.41
  C 271.23 329.03 272.36 328.29 272.50 327.03
  C 272.62 325.94 271.89 325.39 271.58 324.45
  Q 271.41 323.93 271.69 323.47
  L 272.69 321.83
  Q 272.97 321.36 272.81 320.84
  Q 272.49 319.83 271.66 319.05
  Q 270.87 318.29 271.72 317.60
  C 272.80 316.73 273.18 315.20 272.18 314.10
  Q 270.89 312.67 272.22 311.16
  A 2.14 2.13 28.0 0 0 271.15 307.68
  Q 269.25 307.19 268.37 305.55
  Q 279.93 303.80 290.93 307.90
  Q 292.35 308.43 294.16 309.45
  Z"
/>
<path fill="#1b5c98" d="
  M 209.32 306.25
  C 210.36 307.22 210.50 309.21 210.00 310.54
  C 207.90 316.16 206.60 323.26 209.26 328.90
  A 2.81 2.81 0.0 0 1 209.36 331.06
  C 207.13 337.17 205.58 345.35 210.49 350.48
  Q 211.02 351.03 210.53 351.63
  Q 208.72 353.86 207.61 356.44
  Q 206.90 358.11 204.91 359.53
  Q 200.48 362.70 196.15 365.68
  Q 180.62 376.94 165.50 388.53
  Q 163.99 389.69 163.19 389.05
  L 134.57 357.31
  Q 134.21 357.28 133.66 356.39
  Q 132.75 355.65 134.15 354.62
  Q 168.43 329.46 185.80 316.07
  Q 191.51 311.68 200.44 308.40
  C 203.40 307.31 206.25 306.87 209.32 306.25
  Z"
/>
<path fill="#ffffff" d="
  M 620.35 328.93
  L 623.10 326.31
  A 2.02 2.02 0.0 0 1 625.93 326.36
  L 629.89 330.40
  Q 631.05 331.60 630.19 333.02
  C 628.06 336.54 625.47 337.99 621.45 336.52
  Q 606.93 331.21 601.07 317.48
  C 599.32 313.39 599.94 310.01 603.57 307.22
  C 604.79 306.29 606.14 306.47 607.20 307.52
  Q 609.29 309.61 611.15 311.64
  A 1.79 1.79 0.0 0 1 611.13 314.08
  L 608.40 316.99
  A 1.49 1.47 -40.6 0 0 608.25 318.84
  Q 612.45 324.99 618.94 329.08
  Q 619.70 329.55 620.35 328.93
  Z"
/>
<path fill="#1b5c98" d="
  M 228.85 367.23
  Q 228.36 365.12 228.49 361.00
  Q 228.62 356.98 226.48 352.70
  A 1.03 1.02 -40.2 0 1 226.58 351.63
  Q 227.45 350.48 228.46 349.40
  C 232.74 344.81 231.98 336.51 229.70 331.19
  A 3.02 3.00 42.7 0 1 229.61 329.08
  L 232.31 320.76
  C 244.41 328.42 258.13 322.42 265.51 311.79
  Q 266.49 310.38 268.03 311.35
  Q 268.56 311.68 268.44 312.30
  C 268.10 314.08 265.77 316.19 268.35 317.75
  A 0.56 0.56 0.0 0 1 268.47 318.62
  C 267.36 319.81 266.15 321.35 267.80 322.80
  A 1.40 1.40 0.0 0 1 267.95 324.73
  Q 266.25 326.80 267.76 328.75
  A 1.04 1.04 0.0 0 1 267.85 329.89
  C 266.71 331.96 267.49 334.37 267.26 336.74
  C 266.66 342.76 266.41 348.71 265.39 354.75
  C 263.99 363.04 262.29 370.72 258.57 378.37
  C 253.71 388.37 243.56 391.52 235.96 381.79
  Q 231.01 375.46 228.85 367.23
  Z"
/>
<path fill="#5d6146" d="
  M 568.78 405.89
  Q 566.53 406.82 568.96 406.96
  L 579.72 407.57
  A 0.39 0.39 0.0 0 1 580.05 408.14
  L 579.87 408.50
  A 1.10 1.09 -73.7 0 1 578.79 409.10
  Q 566.86 408.01 561.94 408.59
  Q 546.17 410.45 529.61 412.38
  Q 520.37 413.45 510.44 414.83
  Q 500.75 416.17 491.18 416.90
  A 0.39 0.39 0.0 0 1 490.76 416.51
  L 490.76 416.20
  Q 490.77 415.68 491.29 415.59
  L 500.48 413.95
  A 0.66 0.66 0.0 0 0 501.03 413.30
  L 501.08 319.25
  A 0.67 0.67 0.0 0 1 501.74 318.58
  L 502.04 318.58
  A 0.46 0.46 0.0 0 1 502.51 319.04
  L 502.69 413.02
  A 0.76 0.76 0.0 0 0 503.54 413.77
  Q 515.77 412.24 527.85 410.84
  C 537.74 409.70 547.51 408.32 557.50 407.44
  Q 559.02 407.31 560.56 406.73
  Q 561.10 406.53 560.75 406.08
  L 528.52 365.55
  Q 528.01 364.91 528.47 364.23
  L 528.62 364.01
  A 0.54 0.53 -47.3 0 1 529.48 363.97
  L 562.44 405.34
  A 1.60 1.59 59.2 0 0 564.32 405.82
  L 575.03 401.24
  Q 575.46 401.05 575.50 401.51
  L 575.53 401.78
  Q 575.60 402.56 574.91 402.93
  Q 571.59 404.75 568.78 405.89
  Z"
/>
<path fill="#f8a38a" d="
  M 391.02 336.65
  Q 397.67 336.95 399.37 342.97
  Q 400.20 345.89 399.00 348.35
  Q 395.16 356.27 386.53 356.69
  A 1.19 1.19 0.0 0 0 385.40 357.81
  Q 384.74 369.91 375.31 378.04
  Q 373.52 379.58 372.20 381.02
  Q 365.48 385.25 363.15 386.18
  Q 355.11 389.38 346.91 384.52
  Q 343.83 382.69 340.49 380.84
  Q 336.84 377.67 335.40 376.10
  Q 328.24 368.32 327.52 357.83
  A 1.21 1.21 0.0 0 0 326.36 356.71
  Q 319.76 356.52 315.66 351.21
  Q 310.67 344.74 315.75 339.01
  C 317.49 337.05 320.79 336.58 323.33 335.49
  Q 325.89 339.76 328.40 344.03
  Q 329.48 345.86 331.06 347.01
  A 1.37 1.36 24.8 0 0 333.19 346.23
  Q 335.74 335.79 335.97 324.77
  Q 335.98 324.05 336.66 324.27
  Q 348.81 328.12 361.21 330.07
  Q 371.10 331.62 378.64 330.52
  Q 379.30 330.42 379.32 331.10
  Q 379.48 336.57 379.79 341.71
  Q 379.93 343.95 380.86 345.78
  A 0.90 0.90 0.0 0 0 382.23 346.07
  Q 387.42 341.82 391.02 336.65
  Z"
/>
<path fill="#0a334b" d="
  M 348.94 337.74
  C 345.79 337.15 342.23 336.97 340.51 339.92
  A 1.26 1.21 -86.0 0 1 339.96 340.42
  Q 338.76 340.97 338.26 340.41
  Q 337.34 339.39 338.13 338.27
  Q 341.84 332.98 348.73 334.76
  Q 349.79 335.03 350.01 336.10
  L 350.11 336.55
  A 1.00 1.00 0.0 0 1 348.94 337.74
  Z"
/>
<path fill="#0a334b" d="
  M 368.84 337.47
  Q 366.53 337.30 363.87 337.64
  Q 362.75 337.78 362.75 336.65
  L 362.76 336.18
  Q 362.76 335.12 363.77 334.82
  Q 370.45 332.81 374.73 338.06
  Q 375.53 339.04 374.93 340.15
  Q 374.80 340.39 374.56 340.52
  Q 373.66 341.02 372.94 340.30
  C 371.74 339.11 370.66 337.61 368.84 337.47
  Z"
/>
<path fill="#0a334b" d="
  M 357.79 360.86
  C 353.82 358.95 352.81 356.14 353.94 352.09
  Q 355.08 348.01 355.17 344.14
  Q 355.19 342.81 356.52 342.67
  Q 357.26 342.59 357.92 343.39
  A 1.41 1.39 -62.3 0 1 358.23 344.40
  Q 357.82 349.18 356.82 353.85
  C 356.42 355.69 357.21 357.21 358.68 358.30
  A 1.19 1.15 18.1 0 1 359.15 359.19
  Q 359.19 360.12 358.43 360.77
  A 0.60 0.60 0.0 0 1 357.79 360.86
  Z"
/>
<ellipse fill="#0a334b" cx="0.00" cy="0.00" transform="translate(345.24,348.14) rotate(89.7)" rx="4.45" ry="2.87"/>
<ellipse fill="#0a334b" cx="0.00" cy="0.00" transform="translate(367.73,348.16) rotate(90.1)" rx="4.48" ry="2.83"/>
<path fill="#0a334b" d="
  M 365.27 363.25
  L 365.56 363.40
  A 0.68 0.68 0.0 0 1 365.55 364.60
  Q 364.26 365.29 363.41 364.39
  A 1.06 1.06 0.0 0 0 362.71 364.08
  L 356.20 363.81
  A 0.64 0.64 0.0 0 1 355.62 362.96
  L 355.72 362.64
  Q 355.96 361.94 356.68 362.01
  Q 357.15 362.06 357.51 362.36
  Q 357.98 362.75 358.59 362.77
  Q 364.43 362.94 366.41 357.69
  Q 366.60 357.17 367.13 357.31
  L 367.41 357.39
  Q 367.70 357.46 367.66 357.76
  Q 367.24 360.46 365.16 362.40
  Q 364.63 362.90 365.27 363.25
  Z"
/>
<path fill="#ee8c5b" d="
  M 134.57 357.31
  L 163.19 389.05
  L 159.51 390.70
  Q 158.68 389.30 157.69 386.32
  Q 157.48 385.72 156.86 385.80
  Q 156.21 385.90 156.19 386.56
  Q 156.17 386.95 156.01 387.28
  Q 155.66 388.02 155.09 387.42
  L 152.85 385.06
  A 0.34 0.33 -41.0 0 0 152.40 385.03
  L 152.09 385.28
  A 0.60 0.60 0.0 0 0 152.06 386.19
  L 157.97 391.69
  A 0.86 0.84 -31.7 0 0 158.81 391.88
  L 159.45 391.66
  Q 159.70 392.51 160.05 393.20
  Q 170.99 414.70 183.22 435.49
  Q 184.17 437.11 183.67 438.14
  Q 175.18 437.51 169.31 443.32
  Q 165.88 446.71 162.47 450.55
  L 157.97 445.51
  Q 158.10 436.75 155.88 427.70
  Q 155.64 426.72 154.73 427.16
  C 152.90 428.05 150.23 429.85 148.19 429.76
  A 1.70 1.70 0.0 0 1 146.80 427.19
  Q 148.78 423.84 151.86 420.51
  A 2.03 2.02 54.0 0 0 152.21 418.27
  Q 147.78 408.72 139.83 400.18
  C 137.25 397.41 133.70 396.92 131.56 400.56
  Q 130.32 402.68 129.26 403.85
  Q 125.02 397.75 121.43 391.29
  C 117.02 383.33 118.00 373.29 124.29 366.74
  C 127.45 363.45 130.84 360.13 134.57 357.31
  Z"
/>
<path fill="#5d6146" d="
  M 446.97 446.27
  Q 446.09 446.51 445.48 444.71
  Q 446.04 438.70 447.02 432.70
  Q 451.74 403.67 456.21 376.04
  Q 457.22 369.79 458.08 362.33
  A 3.29 2.83 -26.1 0 1 458.74 360.79
  Q 459.19 360.21 459.89 360.49
  A 0.63 0.62 -75.2 0 1 460.27 361.16
  L 446.97 446.27
  Z"
/>
<path fill="#ebe5ff" d="
  M 196.15 365.68
  L 197.33 369.98
  Q 204.52 394.14 207.20 404.76
  Q 207.89 407.50 206.50 411.01
  Q 201.86 422.70 196.35 432.36
  Q 195.05 434.65 195.41 436.18
  Q 194.83 438.33 192.61 440.78
  L 183.67 438.14
  Q 184.17 437.11 183.22 435.49
  Q 170.99 414.70 160.05 393.20
  Q 159.70 392.51 159.45 391.66
  Q 159.34 391.29 159.51 390.70
  L 163.19 389.05
  Q 163.99 389.69 165.50 388.53
  Q 180.62 376.94 196.15 365.68
  Z"
/>
<circle fill="#7249fc" cx="74.75" cy="383.89" r="7.49"/>
<path fill="#7249fc" d="
  M 656.16 391.42
  A 13.11 13.11 0.0 0 1 643.05 404.53
  A 13.11 13.11 0.0 0 1 629.94 391.42
  A 13.11 13.11 0.0 0 1 643.05 378.31
  A 13.11 13.11 0.0 0 1 656.16 391.42
  Z"
/>
<circle fill="#ffffff" cx="643.04" cy="391.44" r="11.24"/>
<path fill="#0a334b" d="
  M 340.49 380.84
  Q 343.83 382.69 346.91 384.52
  Q 355.11 389.38 363.15 386.18
  Q 365.48 385.25 372.20 381.02
  L 372.04 387.20
  Q 365.36 391.72 361.26 393.02
  C 353.74 395.41 346.78 391.09 340.55 386.94
  L 340.49 380.84
  Z"
/>
<path fill="#0a334b" d="
  M 159.51 390.70
  Q 159.34 391.29 159.45 391.66
  L 158.81 391.88
  A 0.86 0.84 -31.7 0 1 157.97 391.69
  L 152.06 386.19
  A 0.60 0.60 0.0 0 1 152.09 385.28
  L 152.40 385.03
  A 0.34 0.33 -41.0 0 1 152.85 385.06
  L 155.09 387.42
  Q 155.66 388.02 156.01 387.28
  Q 156.17 386.95 156.19 386.56
  Q 156.21 385.90 156.86 385.80
  Q 157.48 385.72 157.69 386.32
  Q 158.68 389.30 159.51 390.70
  Z"
/>
<path fill="#f8a38a" d="
  M 340.55 386.94
  C 346.78 391.09 353.74 395.41 361.26 393.02
  Q 365.36 391.72 372.04 387.20
  Q 372.40 393.03 372.25 398.75
  Q 372.11 404.49 377.84 408.18
  Q 358.47 416.95 338.05 410.64
  Q 335.87 409.96 332.98 408.34
  Q 337.33 406.80 339.15 403.87
  Q 340.30 401.99 340.30 396.93
  Q 340.30 392.04 340.55 386.94
  Z"
/>
<path fill="#4cd137" d="
  M 157.97 445.51
  Q 158.11 452.50 156.54 457.90
  Q 155.99 459.79 157.12 458.18
  L 162.47 450.55
  Q 165.88 446.71 169.31 443.32
  Q 175.18 437.51 183.67 438.14
  L 192.61 440.78
  Q 200.70 445.49 207.14 453.34
  Q 206.96 453.86 208.16 455.29
  Q 211.11 460.23 212.30 465.83
  C 213.24 470.25 210.24 470.46 207.41 471.83
  L 181.85 470.75
  A 0.79 0.79 0.0 0 0 181.23 472.07
  C 184.61 475.87 188.79 480.29 189.52 485.49
  Q 189.65 486.44 189.21 486.62
  Q 185.99 488.16 182.75 488.02
  Q 174.59 487.68 168.76 488.21
  Q 165.78 488.37 164.32 489.58
  Q 162.47 491.09 159.52 494.46
  L 127.06 494.51
  C 125.07 491.51 121.76 491.07 118.39 491.05
  C 111.50 491.03 102.92 491.69 96.74 488.57
  C 92.25 486.30 95.52 480.86 97.77 478.15
  Q 101.65 473.47 104.91 468.92
  Q 106.28 467.01 105.95 464.82
  A 1.15 1.14 1.5 0 0 105.04 463.87
  Q 101.73 463.22 97.96 464.17
  Q 88.80 466.45 80.84 468.26
  C 75.37 469.49 71.62 463.06 70.27 458.84
  Q 67.47 450.06 69.35 442.05
  C 72.45 428.82 86.86 428.55 96.60 433.72
  C 108.00 439.78 117.27 451.71 123.80 463.08
  A 0.61 0.60 -26.8 0 0 124.57 463.33
  L 124.84 463.22
  Q 125.00 463.15 124.95 462.98
  Q 122.36 454.17 121.92 446.11
  Q 121.88 445.32 122.61 445.64
  Q 126.54 447.32 130.74 447.36
  A 1.26 1.26 0.0 0 0 131.77 445.36
  C 129.65 442.44 125.04 440.66 121.83 439.24
  A 0.67 0.66 -78.9 0 1 121.45 438.67
  Q 120.57 419.94 129.26 403.85
  Q 130.32 402.68 131.56 400.56
  C 133.70 396.92 137.25 397.41 139.83 400.18
  Q 147.78 408.72 152.21 418.27
  A 2.03 2.02 54.0 0 1 151.86 420.51
  Q 148.78 423.84 146.80 427.19
  A 1.70 1.70 0.0 0 0 148.19 429.76
  C 150.23 429.85 152.90 428.05 154.73 427.16
  Q 155.64 426.72 155.88 427.70
  Q 158.10 436.75 157.97 445.51
  Z"
/>
<path fill="#d07149" d="
  M 492.19 440.70
  Q 491.29 440.97 490.96 441.90
  Q 490.58 439.85 486.99 440.47
  Q 481.09 441.51 476.41 441.27
  Q 474.40 441.17 472.81 441.87
  C 469.96 443.15 460.82 445.27 460.42 440.12
  Q 460.27 438.23 458.82 436.74
  A 2.08 2.08 0.0 0 1 458.79 433.87
  L 460.03 432.54
  Q 460.48 432.05 460.12 431.49
  L 458.46 428.93
  A 1.19 1.17 -39.8 0 1 458.60 427.47
  L 460.14 425.83
  Q 460.67 425.27 460.54 424.52
  C 460.18 422.51 459.81 420.87 462.01 419.73
  C 465.47 417.94 468.79 418.67 472.45 419.35
  A 0.51 0.51 0.0 0 0 473.01 418.65
  Q 471.51 415.22 469.84 411.93
  Q 467.66 407.64 471.37 404.27
  A 0.97 0.97 0.0 0 1 472.93 404.65
  C 474.55 409.04 478.36 412.82 481.63 416.26
  C 482.82 417.51 484.01 418.75 485.95 418.42
  Q 487.96 418.07 489.98 418.34
  A 0.97 0.96 2.2 0 1 490.81 419.23
  L 492.19 440.70
  Z"
/>
<rect fill="#0a334b" x="-0.64" y="-41.34" transform="translate(137.96,445.62) rotate(-2.2)" width="1.28" height="82.68" rx="0.27"/>
<path fill="#ebe5ff" d="
  M 288.63 412.37
  L 293.68 422.11
  L 289.63 425.27
  Q 287.08 419.61 284.63 414.02
  Q 284.01 412.59 283.79 411.25
  Q 283.46 409.16 283.57 408.33
  Q 284.20 403.74 285.55 408.17
  Q 286.35 410.80 288.63 412.37
  Z"
/>
<path fill="#ef4454" d="
  M 332.98 408.34
  Q 335.87 409.96 338.05 410.64
  Q 358.47 416.95 377.84 408.18
  Q 382.90 406.30 388.50 407.20
  Q 396.19 408.44 404.23 411.48
  Q 409.29 415.08 414.34 418.57
  C 425.16 426.04 434.92 434.76 444.05 444.19
  Q 444.76 444.92 445.48 444.71
  Q 446.09 446.51 446.97 446.27
  Q 446.73 446.64 447.16 447.09
  Q 470.31 470.78 491.76 496.01
  Q 492.37 496.73 492.94 496.56
  Q 492.88 497.39 493.20 497.75
  Q 498.35 503.61 499.88 505.60
  Q 501.13 507.22 499.94 508.09
  Q 499.29 507.36 498.25 507.36
  Q 475.06 507.44 451.93 507.13
  A 0.64 0.63 -80.9 0 0 451.31 507.59
  Q 451.28 507.70 451.55 507.99
  L 446.99 507.98
  C 443.95 506.85 441.89 508.24 439.25 504.93
  Q 437.75 503.49 437.75 501.25
  Q 437.79 476.25 437.82 450.49
  Q 437.83 446.79 434.12 446.78
  Q 361.33 446.75 288.37 446.78
  Q 285.31 446.78 282.26 447.24
  Q 279.48 447.66 279.48 450.00
  Q 279.50 473.87 279.45 497.75
  Q 279.45 499.19 278.52 500.13
  C 275.18 503.37 272.73 507.34 268.66 507.53
  L 263.39 507.60
  L 214.75 507.52
  Q 213.88 508.46 212.85 506.05
  L 214.03 504.23
  Q 216.09 503.26 217.40 500.84
  L 221.16 496.50
  Q 247.50 465.05 277.20 436.12
  L 289.63 425.27
  L 293.68 422.11
  Q 305.32 413.21 318.81 408.70
  Q 321.13 407.92 323.50 407.38
  Q 328.95 406.13 332.98 408.34
  Z"
/>
<path fill="#655ba7" d="
  M 382.01 410.53
  Q 382.48 410.24 382.75 410.71
  L 382.89 410.95
  Q 383.26 411.57 382.65 411.96
  Q 364.07 423.72 344.28 419.69
  Q 335.33 417.87 327.62 412.18
  Q 327.07 411.78 327.11 411.10
  L 327.13 410.83
  A 0.49 0.49 0.0 0 1 327.90 410.46
  Q 333.62 414.41 337.97 416.03
  Q 359.99 424.21 382.01 410.53
  Z"
/>
<path fill="#17a1d9" d="
  M 277.20 436.12
  Q 247.50 465.05 221.16 496.50
  Q 219.92 497.74 219.05 496.20
  Q 215.32 489.52 210.83 483.46
  A 0.69 0.69 0.0 0 1 211.36 482.36
  C 213.24 482.32 218.13 482.40 219.38 480.86
  A 1.71 1.70 -55.7 0 0 218.90 478.29
  L 207.41 471.83
  C 210.24 470.46 213.24 470.25 212.30 465.83
  Q 211.11 460.23 208.16 455.29
  Q 210.65 445.94 211.62 436.42
  Q 211.67 435.92 212.17 435.92
  Q 242.06 435.94 271.92 435.99
  Q 272.90 435.99 274.54 435.76
  Q 276.79 435.44 277.20 436.12
  Z"
/>
<path fill="#17a1d9" d="
  M 207.14 453.34
  Q 200.70 445.49 192.61 440.78
  Q 194.83 438.33 195.41 436.18
  L 209.72 435.88
  Q 210.10 435.87 210.08 436.25
  Q 209.62 444.58 207.14 453.34
  Z"
/>
<path fill="#5d6146" d="
  M 492.19 440.70
  L 493.10 442.73
  Q 493.30 443.18 493.79 443.18
  Q 532.71 443.65 571.89 442.65
  Q 572.24 442.64 572.24 443.00
  L 572.24 443.32
  Q 572.24 444.07 571.49 444.10
  Q 536.92 445.27 503.61 445.15
  A 1.08 1.08 0.0 0 0 502.52 446.22
  L 502.40 478.73
  Q 501.95 478.89 501.49 479.04
  L 501.03 446.16
  A 0.95 0.95 0.0 0 0 500.10 445.22
  Q 496.85 445.18 492.86 445.26
  C 490.87 445.31 490.70 443.53 490.96 441.90
  Q 491.29 440.97 492.19 440.70
  Z"
/>
<path fill="#ebe5ff" d="
  M 591.71 442.62
  Q 591.50 458.89 596.32 473.48
  Q 599.97 484.51 605.00 497.64
  C 607.23 503.46 608.93 509.49 610.45 515.52
  Q 613.80 528.76 611.94 544.19
  A 1.17 1.10 -83.3 0 1 610.72 545.22
  Q 610.44 545.18 610.57 546.23
  Q 602.55 546.39 594.60 546.41
  C 594.05 546.41 593.75 546.20 593.27 545.97
  Q 590.42 521.26 582.31 497.07
  Q 582.98 497.31 583.27 496.31
  Q 583.41 495.82 583.35 495.32
  Q 580.12 469.90 576.53 444.66
  A 1.14 1.14 0.0 0 1 577.60 443.36
  L 591.71 442.62
  Z"
/>
<path fill="#ebe5ff" d="
  M 157.97 445.51
  L 162.47 450.55
  L 157.12 458.18
  Q 155.99 459.79 156.54 457.90
  Q 158.11 452.50 157.97 445.51
  Z"
/>
<path fill="#655ba7" d="
  M 439.25 504.93
  Q 438.82 504.81 438.73 504.86
  A 1.05 1.05 0.0 0 0 438.13 505.76
  Q 437.92 510.40 437.90 515.02
  Q 437.98 529.88 437.95 544.75
  Q 437.95 545.14 438.35 546.06
  Q 436.56 546.40 433.75 546.39
  Q 401.74 546.35 281.50 546.43
  Q 280.08 546.43 279.16 545.96
  L 279.36 545.13
  Q 279.48 544.65 279.48 544.16
  L 279.07 515.08
  L 279.26 514.79
  Q 279.48 514.45 279.48 514.04
  L 279.50 500.75
  A 0.63 0.62 -88.1 0 0 278.92 500.12
  Q 278.76 500.10 278.52 500.13
  Q 279.45 499.19 279.45 497.75
  Q 279.50 473.87 279.48 450.00
  Q 279.48 447.66 282.26 447.24
  Q 285.31 446.78 288.37 446.78
  Q 361.33 446.75 434.12 446.78
  Q 437.83 446.79 437.82 450.49
  Q 437.79 476.25 437.75 501.25
  Q 437.75 503.49 439.25 504.93
  Z"
/>
<path fill="#0a334b" d="
  M 138.76 490.46
  A 1.00 0.99 34.6 0 0 140.36 490.17
  Q 146.15 477.72 151.43 467.41
  Q 153.22 463.91 155.23 460.39
  A 0.61 0.61 0.0 0 1 156.01 460.13
  Q 156.72 460.46 156.39 461.05
  Q 148.17 475.55 140.97 492.18
  Q 140.72 492.75 140.66 493.34
  A 0.71 0.70 3.4 0 1 139.93 493.98
  Q 138.89 493.96 138.53 493.07
  Q 132.78 478.73 125.00 465.11
  Q 124.87 464.88 125.11 464.77
  L 125.38 464.64
  A 0.57 0.57 0.0 0 1 126.10 464.87
  Q 131.68 474.22 136.62 485.66
  Q 137.04 486.62 137.71 487.46
  A 1.81 1.80 -63.7 0 1 138.11 488.65
  Q 138.07 489.78 138.76 490.46
  Z"
/>
<path fill="#ee8c5b" d="
  M 207.41 471.83
  L 218.90 478.29
  A 1.71 1.70 -55.7 0 1 219.38 480.86
  C 218.13 482.40 213.24 482.32 211.36 482.36
  A 0.69 0.69 0.0 0 0 210.83 483.46
  Q 215.32 489.52 219.05 496.20
  Q 219.92 497.74 221.16 496.50
  L 217.40 500.84
  Q 214.20 496.75 212.09 494.60
  Q 208.23 490.66 210.89 495.49
  Q 212.72 498.81 214.03 504.23
  L 212.85 506.05
  Q 207.22 500.68 203.98 493.63
  Q 203.88 493.40 203.65 493.49
  L 203.41 493.58
  Q 202.95 493.76 203.09 494.22
  Q 204.60 499.47 204.39 505.02
  A 1.35 1.35 0.0 0 1 203.12 506.31
  Q 201.83 506.37 201.25 505.14
  Q 198.56 499.41 197.73 493.37
  Q 197.70 493.12 197.45 493.12
  L 197.14 493.12
  Q 196.66 493.12 196.67 493.60
  Q 196.77 497.03 196.39 499.55
  Q 196.15 501.16 194.44 500.91
  A 0.89 0.89 0.0 0 1 193.72 500.30
  L 190.11 489.05
  Q 190.15 488.15 189.55 487.63
  Q 188.88 487.08 189.21 486.62
  Q 189.65 486.44 189.52 485.49
  C 188.79 480.29 184.61 475.87 181.23 472.07
  A 0.79 0.79 0.0 0 1 181.85 470.75
  L 207.41 471.83
  Z"
/>
<path fill="#416b91" d="
  M 501.49 479.04
  Q 501.95 478.89 502.40 478.73
  Q 506.34 482.78 508.66 486.58
  Q 512.24 492.41 516.25 497.69
  A 3.52 3.52 0.0 0 0 519.17 499.08
  L 582.31 497.07
  Q 590.42 521.26 593.27 545.97
  Q 592.71 546.39 592.00 546.39
  Q 535.68 546.41 479.35 546.30
  Q 479.26 546.30 464.66 546.54
  Q 455.73 546.68 446.72 546.04
  Q 463.22 545.17 479.49 543.68
  C 494.42 542.32 504.22 529.68 502.08 514.85
  Q 502.05 514.63 501.69 514.15
  Q 501.72 514.09 501.77 514.01
  Q 501.87 513.86 501.83 513.71
  Q 501.04 510.81 499.94 508.09
  Q 501.13 507.22 499.88 505.60
  Q 498.35 503.61 493.20 497.75
  Q 492.88 497.39 492.94 496.56
  Q 496.80 486.90 501.49 479.04
  Z"
/>
<circle fill="#9fc8eb" cx="358.77" cy="496.58" r="11.13"/>
<path fill="#17a1d9" d="
  M 189.21 486.62
  Q 188.88 487.08 189.55 487.63
  Q 189.14 487.58 188.84 487.84
  Q 180.09 495.68 168.00 494.77
  A 0.72 0.71 -69.9 0 0 167.39 495.06
  L 167.11 495.46
  Q 166.77 495.92 167.34 495.94
  Q 168.80 495.98 169.73 496.77
  Q 170.14 497.12 170.04 497.66
  Q 167.36 511.03 162.31 523.72
  L 166.29 494.42
  Q 166.90 491.29 168.76 488.21
  Q 174.59 487.68 182.75 488.02
  Q 185.99 488.16 189.21 486.62
  Z"
/>
<path fill="#1b5c98" d="
  M 189.55 487.63
  Q 190.15 488.15 190.11 489.05
  Q 190.32 489.72 189.58 489.80
  Q 188.96 489.86 188.46 490.22
  Q 181.59 495.33 173.22 496.16
  Q 171.33 496.35 170.96 498.24
  Q 167.20 517.20 161.64 538.49
  Q 160.32 543.54 159.29 545.51
  L 162.31 523.72
  Q 167.36 511.03 170.04 497.66
  Q 170.14 497.12 169.73 496.77
  Q 168.80 495.98 167.34 495.94
  Q 166.77 495.92 167.11 495.46
  L 167.39 495.06
  A 0.72 0.71 -69.9 0 1 168.00 494.77
  Q 180.09 495.68 188.84 487.84
  Q 189.14 487.58 189.55 487.63
  Z"
/>
<path fill="#ebe5ff" d="
  M 168.76 488.21
  Q 166.90 491.29 166.29 494.42
  Q 162.93 495.04 159.52 494.46
  Q 162.47 491.09 164.32 489.58
  Q 165.78 488.37 168.76 488.21
  Z"
/>
<path fill="#17a1d9" d="
  M 190.11 489.05
  L 193.72 500.30
  A 0.89 0.89 0.0 0 0 194.44 500.91
  Q 196.15 501.16 196.39 499.55
  Q 196.77 497.03 196.67 493.60
  Q 196.66 493.12 197.14 493.12
  L 197.45 493.12
  Q 197.70 493.12 197.73 493.37
  Q 198.56 499.41 201.25 505.14
  Q 201.83 506.37 203.12 506.31
  A 1.35 1.35 0.0 0 0 204.39 505.02
  Q 204.60 499.47 203.09 494.22
  Q 202.95 493.76 203.41 493.58
  L 203.65 493.49
  Q 203.88 493.40 203.98 493.63
  Q 207.22 500.68 212.85 506.05
  Q 213.88 508.46 214.75 507.52
  L 212.95 512.82
  Q 211.54 519.61 212.48 523.77
  Q 215.55 537.35 228.14 542.23
  C 230.65 543.20 233.68 543.57 236.38 543.83
  Q 254.15 545.53 271.95 545.91
  Q 257.24 546.18 242.50 546.22
  Q 201.62 546.32 160.75 546.50
  Q 159.68 546.51 158.93 546.08
  Q 159.22 544.76 159.29 545.51
  Q 160.32 543.54 161.64 538.49
  Q 167.20 517.20 170.96 498.24
  Q 171.33 496.35 173.22 496.16
  Q 181.59 495.33 188.46 490.22
  Q 188.96 489.86 189.58 489.80
  Q 190.32 489.72 190.11 489.05
  Z"
/>
<path fill="#17a1d9" d="
  M 217.40 500.84
  Q 216.09 503.26 214.03 504.23
  Q 212.72 498.81 210.89 495.49
  Q 208.23 490.66 212.09 494.60
  Q 214.20 496.75 217.40 500.84
  Z"
/>
<path fill="#f9b038" d="
  M 127.06 494.51
  L 159.52 494.46
  Q 162.93 495.04 166.29 494.42
  L 162.31 523.72
  L 159.29 545.51
  Q 159.22 544.76 158.93 546.08
  Q 158.75 546.21 158.47 546.35
  Q 158.26 546.46 157.98 546.46
  Q 139.99 546.52 122.00 546.30
  Q 121.37 546.29 120.69 545.95
  L 113.86 497.72
  L 113.75 495.41
  A 0.85 0.85 0.0 0 1 114.60 494.52
  L 127.06 494.51
  Z"
/>
<path fill="#ebe5ff" d="
  M 113.86 497.72
  L 120.69 545.95
  Q 120.25 546.27 119.50 546.29
  Q 107.55 546.67 96.63 546.26
  Q 95.31 543.41 95.31 541.50
  C 95.36 525.95 102.36 510.29 112.14 498.38
  Q 112.44 498.00 112.91 498.10
  Q 113.60 498.24 113.86 497.72
  Z"
/>
<path fill="#0a334b" d="
  M 575.91 520.14
  Q 578.52 530.79 580.02 542.59
  Q 580.09 543.18 579.67 543.60
  L 579.36 543.91
  A 0.27 0.27 0.0 0 1 578.90 543.76
  C 578.24 539.52 578.19 535.60 577.27 531.25
  Q 573.89 515.27 569.48 499.25
  Q 569.43 499.04 569.63 498.98
  L 570.11 498.85
  A 0.26 0.25 74.1 0 1 570.42 499.03
  Q 573.30 509.48 575.91 520.14
  Z"
/>
<rect fill="#0a334b" x="220.43" y="500.05" width="52.18" height="1.22" rx="0.60"/>
<rect fill="#5d6146" x="-22.81" y="-0.86" transform="translate(139.71,501.14) rotate(0.1)" width="45.62" height="1.72" rx="0.85"/>
<path fill="#17a1d9" d="
  M 278.52 500.13
  Q 278.76 500.10 278.92 500.12
  A 0.63 0.62 -88.1 0 1 279.50 500.75
  L 279.48 514.04
  Q 279.48 514.45 279.26 514.79
  L 279.07 515.08
  L 263.65 513.36
  Q 262.93 512.97 263.30 512.55
  L 268.66 507.53
  C 272.73 507.34 275.18 503.37 278.52 500.13
  Z"
/>
<rect fill="#655ba7" x="-27.16" y="-0.82" transform="translate(468.37,503.25) rotate(0.1)" width="54.32" height="1.64" rx="0.79"/>
<path fill="#416b91" d="
  M 439.25 504.93
  C 441.89 508.24 443.95 506.85 446.99 507.98
  C 450.05 512.04 453.29 512.62 456.95 514.92
  Q 458.05 515.62 456.83 516.05
  Q 456.03 516.33 455.24 515.87
  Q 453.34 514.76 454.11 516.82
  Q 454.62 518.17 455.40 519.48
  Q 455.66 519.91 455.22 520.18
  L 454.89 520.38
  A 0.44 0.43 55.2 0 1 454.33 520.27
  Q 452.74 518.18 451.89 515.69
  A 3.24 3.23 76.6 0 0 448.37 513.52
  L 437.90 515.02
  Q 437.92 510.40 438.13 505.76
  A 1.05 1.05 0.0 0 1 438.73 504.86
  Q 438.82 504.81 439.25 504.93
  Z"
/>
<path fill="#0a334b" d="
  M 499.94 508.09
  Q 501.04 510.81 501.83 513.71
  Q 501.87 513.86 501.77 514.01
  Q 501.72 514.09 501.69 514.15
  L 451.55 507.99
  Q 451.28 507.70 451.31 507.59
  A 0.64 0.63 -80.9 0 1 451.93 507.13
  Q 475.06 507.44 498.25 507.36
  Q 499.29 507.36 499.94 508.09
  Z"
/>
<path fill="#0a334b" d="
  M 263.39 507.60
  Q 243.94 510.12 224.76 512.03
  Q 219.20 512.58 212.95 512.82
  L 214.75 507.52
  L 263.39 507.60
  Z"
/>
<path fill="#f8a38a" d="
  M 268.66 507.53
  L 263.30 512.55
  Q 254.99 513.92 246.98 515.72
  Q 246.22 515.89 245.84 516.41
  A 0.45 0.45 0.0 0 0 246.25 517.12
  Q 252.03 516.49 257.32 514.36
  Q 257.52 514.28 257.76 514.27
  Q 257.98 514.26 258.17 514.34
  A 0.51 0.51 0.0 0 1 258.32 515.18
  Q 255.91 517.44 253.42 518.97
  Q 252.90 519.29 253.31 519.73
  L 253.54 519.99
  A 0.35 0.34 51.3 0 0 253.98 520.04
  L 263.65 513.36
  L 279.07 515.08
  L 279.48 544.16
  Q 279.48 544.65 279.36 545.13
  L 279.16 545.96
  L 271.95 545.91
  Q 254.15 545.53 236.38 543.83
  C 233.68 543.57 230.65 543.20 228.14 542.23
  Q 215.55 537.35 212.48 523.77
  Q 211.54 519.61 212.95 512.82
  Q 219.20 512.58 224.76 512.03
  Q 243.94 510.12 263.39 507.60
  L 268.66 507.53
  Z"
/>
<path fill="#f8a38a" d="
  M 446.99 507.98
  L 451.55 507.99
  L 501.69 514.15
  Q 502.05 514.63 502.08 514.85
  C 504.22 529.68 494.42 542.32 479.49 543.68
  Q 463.22 545.17 446.72 546.04
  L 438.35 546.06
  Q 437.95 545.14 437.95 544.75
  Q 437.98 529.88 437.90 515.02
  L 448.37 513.52
  A 3.24 3.23 76.6 0 1 451.89 515.69
  Q 452.74 518.18 454.33 520.27
  A 0.44 0.43 55.2 0 0 454.89 520.38
  L 455.22 520.18
  Q 455.66 519.91 455.40 519.48
  Q 454.62 518.17 454.11 516.82
  Q 453.34 514.76 455.24 515.87
  Q 456.03 516.33 456.83 516.05
  Q 458.05 515.62 456.95 514.92
  C 453.29 512.62 450.05 512.04 446.99 507.98
  Z"
/>
<path fill="#0a334b" d="
  M 263.30 512.55
  Q 262.93 512.97 263.65 513.36
  L 253.98 520.04
  A 0.35 0.34 51.3 0 1 253.54 519.99
  L 253.31 519.73
  Q 252.90 519.29 253.42 518.97
  Q 255.91 517.44 258.32 515.18
  A 0.51 0.51 0.0 0 0 258.17 514.34
  Q 257.98 514.26 257.76 514.27
  Q 257.52 514.28 257.32 514.36
  Q 252.03 516.49 246.25 517.12
  A 0.45 0.45 0.0 0 1 245.84 516.41
  Q 246.22 515.89 246.98 515.72
  Q 254.99 513.92 263.30 512.55
  Z"
/>
<path fill="#baa5ff" d="
  M 279.16 545.96
  Q 280.08 546.43 281.50 546.43
  Q 401.74 546.35 433.75 546.39
  Q 436.56 546.40 438.35 546.06
  L 446.72 546.04
  Q 455.73 546.68 464.66 546.54
  Q 479.26 546.30 479.35 546.30
  Q 535.68 546.41 592.00 546.39
  Q 592.71 546.39 593.27 545.97
  C 593.75 546.20 594.05 546.41 594.60 546.41
  Q 602.55 546.39 610.57 546.23
  L 624.03 546.29
  A 0.97 0.97 0.0 0 1 624.99 547.26
  L 624.96 570.70
  A 0.88 0.88 0.0 0 1 624.08 571.58
  Q 355.24 571.57 93.15 571.57
  Q 89.40 571.57 84.46 571.29
  A 0.82 0.82 0.0 0 1 83.69 570.47
  L 83.69 547.25
  A 0.77 0.77 0.0 0 1 84.45 546.48
  L 96.63 546.26
  Q 107.55 546.67 119.50 546.29
  Q 120.25 546.27 120.69 545.95
  Q 121.37 546.29 122.00 546.30
  Q 139.99 546.52 157.98 546.46
  Q 158.26 546.46 158.47 546.35
  Q 158.75 546.21 158.93 546.08
  Q 159.68 546.51 160.75 546.50
  Q 201.62 546.32 242.50 546.22
  Q 257.24 546.18 271.95 545.91
  L 279.16 545.96
  Z"
/>
</svg>
